<svg width="1200" height="800" viewBox="0 0 1200 800" fill="none" xmlns="http://www.w3.org/2000/svg">
<rect width="1200" height="800" rx="10" fill="white"/>
<mask id="mask0_8_409" style="mask-type:alpha" maskUnits="userSpaceOnUse" x="0" y="0" width="1200" height="800">
<rect width="1200" height="800" rx="10" fill="white"/>
<rect width="1200" height="800" rx="10" stroke="black"/>
</mask>
<g mask="url(#mask0_8_409)">
<rect x="1235.3" y="-123.127" width="172" height="167" rx="10" transform="rotate(40.8712 1235.3 -123.127)" fill="#303030"/>
<rect x="1235.3" y="-123.127" width="172" height="167" rx="10" transform="rotate(40.8712 1235.3 -123.127)" stroke="black"/>
<rect x="800.889" y="-238.521" width="172" height="167" rx="10" transform="rotate(40.8712 800.889 -238.521)" fill="#303030"/>
<rect x="800.889" y="-238.521" width="172" height="167" rx="10" transform="rotate(40.8712 800.889 -238.521)" stroke="black"/>
<rect x="953.638" y="-106.34" width="172" height="167" rx="10" transform="rotate(40.8712 953.638 -106.34)" fill="#303030"/>
<rect x="953.638" y="-106.34" width="172" height="167" rx="10" transform="rotate(40.8712 953.638 -106.34)" stroke="black"/>
<rect x="1106.39" y="25.8407" width="172" height="167" rx="10" transform="rotate(40.8712 1106.39 25.8407)" fill="#303030"/>
<rect x="1106.39" y="25.8407" width="172" height="167" rx="10" transform="rotate(40.8712 1106.39 25.8407)" stroke="black"/>
<rect x="1259.14" y="158.022" width="172" height="167" rx="10" transform="rotate(40.8712 1259.14 158.022)" fill="#303030"/>
<rect x="1259.14" y="158.022" width="172" height="167" rx="10" transform="rotate(40.8712 1259.14 158.022)" stroke="black"/>
<rect x="519.231" y="-221.734" width="172" height="167" rx="10" transform="rotate(40.8712 519.231 -221.734)" fill="#303030"/>
<rect x="519.231" y="-221.734" width="172" height="167" rx="10" transform="rotate(40.8712 519.231 -221.734)" stroke="black"/>
<rect x="671.98" y="-89.5535" width="172" height="167" rx="10" transform="rotate(40.8712 671.98 -89.5535)" fill="#303030"/>
<rect x="671.98" y="-89.5535" width="172" height="167" rx="10" transform="rotate(40.8712 671.98 -89.5535)" stroke="black"/>
<rect x="824.729" y="42.6276" width="172" height="167" rx="10" transform="rotate(40.8712 824.729 42.6276)" fill="#303030"/>
<rect x="824.729" y="42.6276" width="172" height="167" rx="10" transform="rotate(40.8712 824.729 42.6276)" stroke="black"/>
<rect x="977.477" y="174.809" width="172" height="167" rx="10" transform="rotate(40.8712 977.477 174.809)" fill="#303030"/>
<rect x="977.477" y="174.809" width="172" height="167" rx="10" transform="rotate(40.8712 977.477 174.809)" stroke="black"/>
<rect x="1130.23" y="306.99" width="172" height="167" rx="10" transform="rotate(40.8712 1130.23 306.99)" fill="#303030"/>
<rect x="1130.23" y="306.99" width="172" height="167" rx="10" transform="rotate(40.8712 1130.23 306.99)" stroke="black"/>
<rect x="1282.97" y="439.171" width="172" height="167" rx="10" transform="rotate(40.8712 1282.97 439.171)" fill="#303030"/>
<rect x="1282.97" y="439.171" width="172" height="167" rx="10" transform="rotate(40.8712 1282.97 439.171)" stroke="black"/>
<rect x="237.573" y="-204.948" width="172" height="167" rx="10" transform="rotate(40.8712 237.573 -204.948)" fill="#303030"/>
<rect x="237.573" y="-204.948" width="172" height="167" rx="10" transform="rotate(40.8712 237.573 -204.948)" stroke="black"/>
<rect x="390.322" y="-72.7666" width="172" height="167" rx="10" transform="rotate(40.8712 390.322 -72.7666)" fill="#303030"/>
<rect x="390.322" y="-72.7666" width="172" height="167" rx="10" transform="rotate(40.8712 390.322 -72.7666)" stroke="black"/>
<rect x="543.071" y="59.4144" width="172" height="167" rx="10" transform="rotate(40.8712 543.071 59.4144)" fill="#303030"/>
<rect x="543.071" y="59.4144" width="172" height="167" rx="10" transform="rotate(40.8712 543.071 59.4144)" stroke="black"/>
<rect x="695.819" y="191.595" width="172" height="167" rx="10" transform="rotate(40.8712 695.819 191.595)" fill="#303030"/>
<rect x="695.819" y="191.595" width="172" height="167" rx="10" transform="rotate(40.8712 695.819 191.595)" stroke="black"/>
<rect x="848.568" y="323.776" width="172" height="167" rx="10" transform="rotate(40.8712 848.568 323.776)" fill="#303030"/>
<rect x="848.568" y="323.776" width="172" height="167" rx="10" transform="rotate(40.8712 848.568 323.776)" stroke="black"/>
<rect x="1001.32" y="455.957" width="172" height="167" rx="10" transform="rotate(40.8712 1001.32 455.957)" fill="#303030"/>
<rect x="1001.32" y="455.957" width="172" height="167" rx="10" transform="rotate(40.8712 1001.32 455.957)" stroke="black"/>
<rect x="1154.07" y="588.138" width="172" height="167" rx="10" transform="rotate(40.8712 1154.07 588.138)" fill="#303030"/>
<rect x="1154.07" y="588.138" width="172" height="167" rx="10" transform="rotate(40.8712 1154.07 588.138)" stroke="black"/>
<rect x="1306.81" y="720.319" width="172" height="167" rx="10" transform="rotate(40.8712 1306.81 720.319)" fill="#303030"/>
<rect x="1306.81" y="720.319" width="172" height="167" rx="10" transform="rotate(40.8712 1306.81 720.319)" stroke="black"/>
<rect x="-44.0848" y="-188.161" width="172" height="167" rx="10" transform="rotate(40.8712 -44.0848 -188.161)" fill="#303030"/>
<rect x="-44.0848" y="-188.161" width="172" height="167" rx="10" transform="rotate(40.8712 -44.0848 -188.161)" stroke="black"/>
<rect x="108.664" y="-55.9797" width="172" height="167" rx="10" transform="rotate(40.8712 108.664 -55.9797)" fill="#303030"/>
<rect x="108.664" y="-55.9797" width="172" height="167" rx="10" transform="rotate(40.8712 108.664 -55.9797)" stroke="black"/>
<rect x="261.413" y="76.2013" width="172" height="167" rx="10" transform="rotate(40.8712 261.413 76.2013)" fill="#303030"/>
<rect x="261.413" y="76.2013" width="172" height="167" rx="10" transform="rotate(40.8712 261.413 76.2013)" stroke="black"/>
<rect x="414.161" y="208.382" width="172" height="167" rx="10" transform="rotate(40.8712 414.161 208.382)" fill="#303030"/>
<rect x="414.161" y="208.382" width="172" height="167" rx="10" transform="rotate(40.8712 414.161 208.382)" stroke="black"/>
<rect x="566.91" y="340.563" width="172" height="167" rx="10" transform="rotate(40.8712 566.91 340.563)" fill="#303030"/>
<rect x="566.91" y="340.563" width="172" height="167" rx="10" transform="rotate(40.8712 566.91 340.563)" stroke="black"/>
<rect x="719.659" y="472.744" width="172" height="167" rx="10" transform="rotate(40.8712 719.659 472.744)" fill="#303030"/>
<rect x="719.659" y="472.744" width="172" height="167" rx="10" transform="rotate(40.8712 719.659 472.744)" stroke="black"/>
<rect x="872.408" y="604.925" width="172" height="167" rx="10" transform="rotate(40.8712 872.408 604.925)" fill="#303030"/>
<rect x="872.408" y="604.925" width="172" height="167" rx="10" transform="rotate(40.8712 872.408 604.925)" stroke="black"/>
<rect x="1025.16" y="737.106" width="172" height="167" rx="10" transform="rotate(40.8712 1025.16 737.106)" fill="#303030"/>
<rect x="1025.16" y="737.106" width="172" height="167" rx="10" transform="rotate(40.8712 1025.16 737.106)" stroke="black"/>
<rect x="-20.2452" y="92.988" width="172" height="167" rx="10" transform="rotate(40.8712 -20.2452 92.988)" fill="#303030"/>
<rect x="-20.2452" y="92.988" width="172" height="167" rx="10" transform="rotate(40.8712 -20.2452 92.988)" stroke="black"/>
<rect x="132.504" y="225.169" width="172" height="167" rx="10" transform="rotate(40.8712 132.504 225.169)" fill="#303030"/>
<rect x="132.504" y="225.169" width="172" height="167" rx="10" transform="rotate(40.8712 132.504 225.169)" stroke="black"/>
<rect x="285.252" y="357.35" width="172" height="167" rx="10" transform="rotate(40.8712 285.252 357.35)" fill="#303030"/>
<rect x="285.252" y="357.35" width="172" height="167" rx="10" transform="rotate(40.8712 285.252 357.35)" stroke="black"/>
<rect x="438.001" y="489.531" width="172" height="167" rx="10" transform="rotate(40.8712 438.001 489.531)" fill="#303030"/>
<rect x="438.001" y="489.531" width="172" height="167" rx="10" transform="rotate(40.8712 438.001 489.531)" stroke="black"/>
<rect x="590.75" y="621.712" width="172" height="167" rx="10" transform="rotate(40.8712 590.75 621.712)" fill="#303030"/>
<rect x="590.75" y="621.712" width="172" height="167" rx="10" transform="rotate(40.8712 590.75 621.712)" stroke="black"/>
<rect x="743.499" y="753.893" width="172" height="167" rx="10" transform="rotate(40.8712 743.499 753.893)" fill="#303030"/>
<rect x="743.499" y="753.893" width="172" height="167" rx="10" transform="rotate(40.8712 743.499 753.893)" stroke="black"/>
<rect x="3.59424" y="374.137" width="172" height="167" rx="10" transform="rotate(40.8712 3.59424 374.137)" fill="#303030"/>
<rect x="3.59424" y="374.137" width="172" height="167" rx="10" transform="rotate(40.8712 3.59424 374.137)" stroke="black"/>
<rect x="156.343" y="506.318" width="172" height="167" rx="10" transform="rotate(40.8712 156.343 506.318)" fill="#303030"/>
<rect x="156.343" y="506.318" width="172" height="167" rx="10" transform="rotate(40.8712 156.343 506.318)" stroke="black"/>
<rect x="309.092" y="638.499" width="172" height="167" rx="10" transform="rotate(40.8712 309.092 638.499)" fill="#303030"/>
<rect x="309.092" y="638.499" width="172" height="167" rx="10" transform="rotate(40.8712 309.092 638.499)" stroke="black"/>
<rect x="461.841" y="770.68" width="172" height="167" rx="10" transform="rotate(40.8712 461.841 770.68)" fill="#303030"/>
<rect x="461.841" y="770.68" width="172" height="167" rx="10" transform="rotate(40.8712 461.841 770.68)" stroke="black"/>
<rect x="-125.315" y="523.105" width="172" height="167" rx="10" transform="rotate(40.8712 -125.315 523.105)" fill="#303030"/>
<rect x="-125.315" y="523.105" width="172" height="167" rx="10" transform="rotate(40.8712 -125.315 523.105)" stroke="black"/>
<rect x="27.4338" y="655.286" width="172" height="167" rx="10" transform="rotate(40.8712 27.4338 655.286)" fill="#303030"/>
<rect x="27.4338" y="655.286" width="172" height="167" rx="10" transform="rotate(40.8712 27.4338 655.286)" stroke="black"/>
<rect x="180.183" y="787.467" width="172" height="167" rx="10" transform="rotate(40.8712 180.183 787.467)" fill="#303030"/>
<rect x="180.183" y="787.467" width="172" height="167" rx="10" transform="rotate(40.8712 180.183 787.467)" stroke="black"/>
</g>
</svg>
