<svg width="3840" height="2160" viewBox="0 0 3840 2160" fill="none" xmlns="http://www.w3.org/2000/svg">
<rect width="3840" height="2160" fill="url(#paint0_linear_3_72)"/>
<mask id="mask0_3_72" style="mask-type:alpha" maskUnits="userSpaceOnUse" x="0" y="0" width="3840" height="2160">
<rect width="3840" height="2160" fill="#369FFF"/>
</mask>
<g mask="url(#mask0_3_72)">
<path d="M-199.5 967C-372.154 791.645 -370.5 360.5 -370.5 360.5L-847.5 2643L3527 2754L4735.5 2059.5C4735.5 2059.5 4638.11 1253.04 4249.5 1157C3934.88 1079.25 3802.25 1412.46 3485.5 1481C3089.59 1566.67 2779.15 1691.51 2448.5 1457.5C2343.12 1382.92 2321.57 1297.21 2217 1221.5C1851.02 956.522 1428.95 1482.33 1060 1221.5C927.312 1127.7 914.045 1004.09 777.5 916C456.454 708.876 68.5538 1239.25 -199.5 967Z" fill="url(#paint1_linear_3_72)"/>
</g>
<rect x="1059" y="1138" width="1723" height="25" fill="black"/>
<path d="M1319.91 1354V1206.5H1342.41V1354H1319.91ZM1349.91 1354V1206.5H1357.41V1354H1349.91ZM1379.91 1354V1206.5H1387.41V1354H1379.91ZM1394.91 1354V1206.5H1402.41V1354H1394.91ZM1409.91 1354V1206.5H1432.41V1354H1409.91ZM1378.16 1383.75L1366.41 1387.25L1364.91 1383.75L1379.91 1375.75H1384.66V1433.75H1378.16V1383.75ZM1440.03 1354V1206.5H1447.53V1354H1440.03ZM1455.03 1354V1206.5H1477.53V1354H1455.03ZM1500.03 1354V1206.5H1507.53V1354H1500.03ZM1515.03 1354V1206.5H1537.53V1354H1515.03ZM1545.03 1354V1206.5H1552.53V1354H1545.03ZM1499.78 1375.5C1503.28 1375.5 1506.45 1376.5 1509.28 1378.5C1511.95 1380.67 1513.95 1383.58 1515.28 1387.25C1516.78 1390.92 1517.53 1395.17 1517.53 1400C1517.53 1411.33 1515.86 1419.92 1512.53 1425.75C1509.03 1431.58 1504.2 1434.58 1498.03 1434.75C1492.36 1434.75 1487.7 1433 1484.03 1429.5L1488.78 1424L1489.28 1424.5C1489.28 1425.17 1489.45 1425.75 1489.78 1426.25C1489.95 1426.58 1490.45 1427 1491.28 1427.5C1492.95 1428.5 1495.03 1429 1497.53 1429C1501.7 1429 1504.95 1427 1507.28 1423C1509.45 1418.83 1510.78 1413.75 1511.28 1407.75C1509.78 1409.08 1508.11 1410.08 1506.28 1410.75C1504.45 1411.42 1502.36 1411.75 1500.03 1411.75C1496.86 1411.75 1493.95 1411 1491.28 1409.5C1488.78 1408 1486.78 1406 1485.28 1403.5C1483.78 1400.83 1483.03 1397.75 1483.03 1394.25C1483.03 1390.75 1483.78 1387.58 1485.28 1384.75C1486.78 1381.92 1488.78 1379.67 1491.28 1378C1493.95 1376.33 1496.78 1375.5 1499.78 1375.5ZM1500.03 1406.25C1502.7 1406.25 1504.86 1405.83 1506.53 1405C1508.36 1404.33 1509.95 1403.08 1511.28 1401.25C1511.11 1394.42 1510.11 1389.33 1508.28 1386C1506.45 1382.83 1503.7 1381.25 1500.03 1381.25C1496.86 1381.25 1494.28 1382.42 1492.28 1384.75C1490.45 1387.08 1489.53 1390.25 1489.53 1394.25C1489.53 1397.92 1490.53 1400.83 1492.53 1403C1494.53 1405.17 1497.03 1406.25 1500.03 1406.25ZM1560.15 1354V1206.5H1582.65V1354H1560.15ZM1605.15 1354V1206.5H1612.65V1354H1605.15ZM1620.15 1354V1206.5H1627.65V1354H1620.15ZM1635.15 1354V1206.5H1657.65V1354H1635.15ZM1665.15 1354V1206.5H1672.65V1354H1665.15ZM1618.9 1434.75C1617.57 1434.75 1616.32 1434.25 1615.15 1433.25C1614.15 1432.08 1613.65 1430.83 1613.65 1429.5C1613.65 1428 1614.15 1426.75 1615.15 1425.75C1616.32 1424.75 1617.57 1424.25 1618.9 1424.25C1620.4 1424.25 1621.65 1424.75 1622.65 1425.75C1623.82 1426.75 1624.4 1428 1624.4 1429.5C1624.4 1430.83 1623.82 1432.08 1622.65 1433.25C1621.65 1434.25 1620.4 1434.75 1618.9 1434.75ZM1680.27 1354V1206.5H1687.77V1354H1680.27ZM1695.27 1354V1206.5H1702.77V1354H1695.27ZM1725.27 1354V1206.5H1747.77V1354H1725.27ZM1755.27 1354V1206.5H1777.77V1354H1755.27ZM1785.27 1354V1206.5H1792.77V1354H1785.27ZM1740.27 1375.5C1745.93 1375.5 1750.35 1378.08 1753.52 1383.25C1756.68 1388.58 1758.27 1395.83 1758.27 1405C1758.27 1414.5 1756.68 1421.83 1753.52 1427C1750.52 1432.17 1746.1 1434.75 1740.27 1434.75C1734.43 1434.75 1730.02 1432.17 1727.02 1427C1723.85 1421.83 1722.27 1414.5 1722.27 1405C1722.27 1395.83 1723.85 1388.58 1727.02 1383.25C1730.18 1378.08 1734.6 1375.5 1740.27 1375.5ZM1740.27 1381.25C1736.77 1381.25 1734.02 1383.33 1732.02 1387.5C1730.02 1391.83 1729.02 1397.67 1729.02 1405C1729.02 1409.17 1729.27 1412.75 1729.77 1415.75L1749.52 1390.25C1748.68 1387.42 1747.43 1385.17 1745.77 1383.5C1744.27 1382 1742.43 1381.25 1740.27 1381.25ZM1740.27 1429C1743.77 1429 1746.52 1427 1748.52 1423C1750.52 1418.83 1751.52 1412.83 1751.52 1405C1751.52 1401.5 1751.27 1398.42 1750.77 1395.75L1731.27 1421C1733.1 1426.33 1736.1 1429 1740.27 1429ZM1800.38 1354V1206.5H1822.88V1354H1800.38ZM1830.38 1354V1206.5H1837.88V1354H1830.38ZM1860.38 1354V1206.5H1882.88V1354H1860.38ZM1890.38 1354V1206.5H1897.88V1354H1890.38ZM1905.38 1354V1206.5H1912.88V1354H1905.38ZM1860.38 1434.75C1856.72 1434.75 1853.38 1434 1850.38 1432.5C1847.38 1431 1844.97 1428.75 1843.13 1425.75L1849.13 1421.5L1849.38 1421.75C1849.38 1422.42 1849.47 1423 1849.63 1423.5C1849.8 1423.83 1850.22 1424.33 1850.88 1425C1852.05 1426.5 1853.47 1427.58 1855.13 1428.25C1856.63 1428.75 1858.47 1429 1860.63 1429C1862.63 1429 1864.47 1428.5 1866.13 1427.5C1867.97 1426.33 1869.38 1424.67 1870.38 1422.5C1871.38 1420.5 1871.88 1418.08 1871.88 1415.25C1871.88 1411.08 1870.72 1407.75 1868.38 1405.25C1866.22 1402.75 1863.38 1401.5 1859.88 1401.5C1858.05 1401.5 1856.13 1402 1854.13 1403C1852.3 1404 1850.63 1405.33 1849.13 1407L1845.13 1405.25L1846.88 1375.75H1876.38V1381.75H1852.38L1851.63 1398.25C1854.63 1396.75 1857.8 1396 1861.13 1396C1864.47 1396 1867.38 1396.83 1869.88 1398.5C1872.55 1400 1874.63 1402.25 1876.13 1405.25C1877.63 1408.25 1878.38 1411.67 1878.38 1415.5C1878.38 1419.5 1877.63 1422.92 1876.13 1425.75C1874.47 1428.75 1872.3 1431 1869.63 1432.5C1866.8 1434 1863.72 1434.75 1860.38 1434.75ZM1920.5 1354V1206.5H1943V1354H1920.5ZM1965.5 1354V1206.5H1973V1354H1965.5ZM1980.5 1354V1206.5H1988V1354H1980.5ZM1995.5 1354V1206.5H2018V1354H1995.5ZM2025.5 1354V1206.5H2033V1354H2025.5ZM1979.25 1434.75C1977.92 1434.75 1976.67 1434.25 1975.5 1433.25C1974.5 1432.08 1974 1430.83 1974 1429.5C1974 1428 1974.5 1426.75 1975.5 1425.75C1976.67 1424.75 1977.92 1424.25 1979.25 1424.25C1980.75 1424.25 1982 1424.75 1983 1425.75C1984.17 1426.75 1984.75 1428 1984.75 1429.5C1984.75 1430.83 1984.17 1432.08 1983 1433.25C1982 1434.25 1980.75 1434.75 1979.25 1434.75ZM2040.62 1354V1206.5H2048.12V1354H2040.62ZM2055.62 1354V1206.5H2078.12V1354H2055.62ZM2100.62 1354V1206.5H2108.12V1354H2100.62ZM2115.62 1354V1206.5H2123.12V1354H2115.62ZM2130.62 1354V1206.5H2153.12V1354H2130.62ZM2084.12 1428.5L2091.62 1421C2096.62 1416 2100.37 1412 2102.87 1409C2105.37 1406.17 2107.37 1403.33 2108.87 1400.5C2110.37 1397.83 2111.12 1394.92 2111.12 1391.75C2111.12 1388.08 2110.28 1385.42 2108.62 1383.75C2106.78 1382.08 2104.37 1381.25 2101.37 1381.25C2096.7 1381.25 2092.78 1383.17 2089.62 1387C2088.95 1388 2088.62 1388.83 2088.62 1389.5C2088.62 1390 2088.62 1390.33 2088.62 1390.5L2088.12 1391L2087.62 1390.5L2082.87 1386.75C2084.7 1383.08 2087.2 1380.33 2090.37 1378.5C2093.53 1376.5 2097.2 1375.5 2101.37 1375.5C2106.2 1375.5 2110.2 1377 2113.37 1380C2116.37 1383 2117.87 1387 2117.87 1392C2117.87 1395.33 2117.03 1398.58 2115.37 1401.75C2113.87 1404.92 2111.87 1407.92 2109.37 1410.75C2106.87 1413.58 2103.37 1417.25 2098.87 1421.75L2092.62 1428H2114.12C2115.12 1428 2115.87 1428 2116.37 1428C2116.7 1427.83 2117.12 1427.58 2117.62 1427.25H2118.12V1433.75H2084.12V1428.5ZM2160.73 1354V1206.5H2168.23V1354H2160.73ZM2175.73 1354V1206.5H2183.23V1354H2175.73ZM2205.73 1354V1206.5H2228.23V1354H2205.73ZM2235.73 1354V1206.5H2258.23V1354H2235.73ZM2265.73 1354V1206.5H2273.23V1354H2265.73ZM2220.73 1375.5C2226.4 1375.5 2230.82 1378.08 2233.98 1383.25C2237.15 1388.58 2238.73 1395.83 2238.73 1405C2238.73 1414.5 2237.15 1421.83 2233.98 1427C2230.98 1432.17 2226.57 1434.75 2220.73 1434.75C2214.9 1434.75 2210.48 1432.17 2207.48 1427C2204.32 1421.83 2202.73 1414.5 2202.73 1405C2202.73 1395.83 2204.32 1388.58 2207.48 1383.25C2210.65 1378.08 2215.07 1375.5 2220.73 1375.5ZM2220.73 1381.25C2217.23 1381.25 2214.48 1383.33 2212.48 1387.5C2210.48 1391.83 2209.48 1397.67 2209.48 1405C2209.48 1409.17 2209.73 1412.75 2210.23 1415.75L2229.98 1390.25C2229.15 1387.42 2227.9 1385.17 2226.23 1383.5C2224.73 1382 2222.9 1381.25 2220.73 1381.25ZM2220.73 1429C2224.23 1429 2226.98 1427 2228.98 1423C2230.98 1418.83 2231.98 1412.83 2231.98 1405C2231.98 1401.5 2231.73 1398.42 2231.23 1395.75L2211.73 1421C2213.57 1426.33 2216.57 1429 2220.73 1429ZM2280.85 1354V1206.5H2288.35V1354H2280.85ZM2295.85 1354V1206.5H2318.35V1354H2295.85ZM2340.85 1354V1206.5H2348.35V1354H2340.85ZM2355.85 1354V1206.5H2363.35V1354H2355.85ZM2370.85 1354V1206.5H2393.35V1354H2370.85ZM2324.35 1428.5L2331.85 1421C2336.85 1416 2340.6 1412 2343.1 1409C2345.6 1406.17 2347.6 1403.33 2349.1 1400.5C2350.6 1397.83 2351.35 1394.92 2351.35 1391.75C2351.35 1388.08 2350.52 1385.42 2348.85 1383.75C2347.02 1382.08 2344.6 1381.25 2341.6 1381.25C2336.93 1381.25 2333.02 1383.17 2329.85 1387C2329.18 1388 2328.85 1388.83 2328.85 1389.5C2328.85 1390 2328.85 1390.33 2328.85 1390.5L2328.35 1391L2327.85 1390.5L2323.1 1386.75C2324.93 1383.08 2327.43 1380.33 2330.6 1378.5C2333.77 1376.5 2337.43 1375.5 2341.6 1375.5C2346.43 1375.5 2350.43 1377 2353.6 1380C2356.6 1383 2358.1 1387 2358.1 1392C2358.1 1395.33 2357.27 1398.58 2355.6 1401.75C2354.1 1404.92 2352.1 1407.92 2349.6 1410.75C2347.1 1413.58 2343.6 1417.25 2339.1 1421.75L2332.85 1428H2354.35C2355.35 1428 2356.1 1428 2356.6 1428C2356.93 1427.83 2357.35 1427.58 2357.85 1427.25H2358.35V1433.75H2324.35V1428.5ZM2400.97 1354V1206.5H2408.47V1354H2400.97ZM2415.97 1354V1206.5H2438.47V1354H2415.97ZM2460.97 1354V1206.5H2468.47V1354H2460.97ZM2475.97 1354V1206.5H2483.47V1354H2475.97ZM2490.97 1354V1206.5H2513.47V1354H2490.97ZM2444.47 1428.5L2451.97 1421C2456.97 1416 2460.72 1412 2463.22 1409C2465.72 1406.17 2467.72 1403.33 2469.22 1400.5C2470.72 1397.83 2471.47 1394.92 2471.47 1391.75C2471.47 1388.08 2470.64 1385.42 2468.97 1383.75C2467.14 1382.08 2464.72 1381.25 2461.72 1381.25C2457.05 1381.25 2453.14 1383.17 2449.97 1387C2449.3 1388 2448.97 1388.83 2448.97 1389.5C2448.97 1390 2448.97 1390.33 2448.97 1390.5L2448.47 1391L2447.97 1390.5L2443.22 1386.75C2445.05 1383.08 2447.55 1380.33 2450.72 1378.5C2453.89 1376.5 2457.55 1375.5 2461.72 1375.5C2466.55 1375.5 2470.55 1377 2473.72 1380C2476.72 1383 2478.22 1387 2478.22 1392C2478.22 1395.33 2477.39 1398.58 2475.72 1401.75C2474.22 1404.92 2472.22 1407.92 2469.72 1410.75C2467.22 1413.58 2463.72 1417.25 2459.22 1421.75L2452.97 1428H2474.47C2475.47 1428 2476.22 1428 2476.72 1428C2477.05 1427.83 2477.47 1427.58 2477.97 1427.25H2478.47V1433.75H2444.47V1428.5Z" fill="black"/>
<path fill-rule="evenodd" clip-rule="evenodd" d="M1833.2 791.743C1770.58 854.368 1743.24 827.032 1743.24 827.032L1899.81 983.596C1899.81 983.596 2019.59 1103.38 2082.22 1040.75C2138.88 984.093 2019.09 864.309 2019.09 864.309L1862.53 707.745C1862.53 707.745 1889.87 735.081 1833.2 791.743ZM1857.83 817.812C1820.78 854.865 1809.84 843.931 1809.84 843.931L1919.1 953.188C1919.1 953.188 2002.69 1036.78 2039.74 999.725C2073.27 966.2 1989.68 882.61 1989.68 882.61L1880.42 773.352C1880.42 773.352 1891.36 784.287 1857.83 817.812Z" fill="black"/>
<ellipse cx="1789.46" cy="753.968" rx="84.3488" ry="41.4715" transform="rotate(-45 1789.46 753.968)" fill="black"/>
<rect x="2293.04" y="726.373" width="324.336" height="245.493" rx="115" fill="black"/>
<path d="M2618.94 708.152C2606.06 699.584 2548.84 721.568 2513.66 736.456C2500.27 742.126 2498.27 757.285 2509.65 764.854L2578.06 810.356C2589.44 817.926 2606.58 812.834 2610.1 800.6C2619.36 768.472 2631.82 716.719 2618.94 708.152Z" fill="black"/>
<path d="M2296.53 709.613C2309.41 701.045 2366.63 723.03 2401.81 737.918C2415.2 743.587 2417.2 758.746 2405.82 766.315L2337.41 811.817C2326.03 819.387 2308.89 814.295 2305.37 802.061C2296.11 769.933 2283.65 718.18 2296.53 709.613Z" fill="black"/>
<rect x="2387.82" y="954.331" width="134.77" height="149.049" rx="45" fill="black"/>
<path d="M2340.03 1001.73C2359.52 1005.17 2399.67 995.421 2399.67 995.421L2390.55 1035.59C2390.55 1035.59 2329.73 1039.54 2302.07 1021.3C2279.78 1006.59 2284 986.728 2265.6 968.63C2257.46 960.62 2240.7 959.937 2242.88 949.57C2245.53 936.924 2267.29 949.602 2281.74 953.833C2311.83 962.641 2308.85 996.23 2340.03 1001.73Z" fill="black"/>
<path d="M1327.83 733.679C1327.83 725.395 1321.11 718.679 1312.83 718.679H1223.67C1219.75 718.679 1215.98 720.217 1213.17 722.964L1188.25 747.382C1178.75 756.682 1162.75 749.956 1162.75 736.667V718.679V680C1162.75 671.716 1169.47 665 1177.75 665H1586.13C1594.41 665 1601.13 671.716 1601.13 680V718.679V736.667C1601.13 749.956 1585.13 756.682 1575.63 747.382L1550.71 722.964C1547.9 720.217 1544.13 718.679 1540.21 718.679H1452.42C1444.14 718.679 1437.42 725.395 1437.42 733.679V1038.34C1437.42 1044.18 1440.81 1049.49 1446.1 1051.95L1482.63 1068.93C1487.92 1071.39 1491.31 1076.69 1491.31 1082.53V1089.07V1089.07C1491.31 1096.97 1484.9 1103.38 1476.99 1103.38H1437.42H1327.83H1286.66C1278.75 1103.38 1272.35 1096.97 1272.35 1089.07V1089.07V1082.65C1272.35 1076.75 1275.8 1071.4 1281.17 1068.98L1319 1051.9C1324.37 1049.47 1327.83 1044.12 1327.83 1038.23V733.679Z" fill="black"/>
<defs>
<linearGradient id="paint0_linear_3_72" x1="1920" y1="0" x2="1779.5" y2="1812" gradientUnits="userSpaceOnUse">
<stop stop-color="#0085FF"/>
<stop offset="1" stop-color="#ABD7FF"/>
</linearGradient>
<linearGradient id="paint1_linear_3_72" x1="2237.5" y1="606.5" x2="1975.5" y2="2723.5" gradientUnits="userSpaceOnUse">
<stop stop-color="#36FFDB"/>
<stop offset="0.9999" stop-color="#BF36FF"/>
</linearGradient>
</defs>
</svg>
