<svg width="3840" height="2160" viewBox="0 0 3840 2160" fill="none" xmlns="http://www.w3.org/2000/svg">
<rect width="3840" height="2160" fill="url(#paint0_linear_3_71)"/>
<mask id="mask0_3_71" style="mask-type:alpha" maskUnits="userSpaceOnUse" x="0" y="0" width="3840" height="2160">
<rect width="3840" height="2160" fill="#369FFF"/>
</mask>
<g mask="url(#mask0_3_71)">
<path d="M-199.5 967C-372.154 791.645 -370.5 360.5 -370.5 360.5L-847.5 2643L3527 2754L4735.5 2059.5C4735.5 2059.5 4638.11 1253.04 4249.5 1157C3934.88 1079.25 3802.25 1412.46 3485.5 1481C3089.59 1566.67 2779.15 1691.51 2448.5 1457.5C2343.12 1382.92 2321.57 1297.21 2217 1221.5C1851.02 956.522 1428.95 1482.33 1060 1221.5C927.312 1127.7 914.045 1004.09 777.5 916C456.454 708.876 68.5538 1239.25 -199.5 967Z" fill="url(#paint1_linear_3_71)"/>
</g>
<rect x="1080" y="1138" width="1723" height="25" fill="black"/>
<path d="M1340.91 1354V1206.5H1348.41V1354H1340.91ZM1355.91 1354V1206.5H1378.41V1354H1355.91ZM1400.91 1354V1206.5H1408.41V1354H1400.91ZM1415.91 1354V1206.5H1423.41V1354H1415.91ZM1430.91 1354V1206.5H1453.41V1354H1430.91ZM1384.41 1428.5L1391.91 1421C1396.91 1416 1400.66 1412 1403.16 1409C1405.66 1406.17 1407.66 1403.33 1409.16 1400.5C1410.66 1397.83 1411.41 1394.92 1411.41 1391.75C1411.41 1388.08 1410.58 1385.42 1408.91 1383.75C1407.08 1382.08 1404.66 1381.25 1401.66 1381.25C1397 1381.25 1393.08 1383.17 1389.91 1387C1389.25 1388 1388.91 1388.83 1388.91 1389.5C1388.91 1390 1388.91 1390.33 1388.91 1390.5L1388.41 1391L1387.91 1390.5L1383.16 1386.75C1385 1383.08 1387.5 1380.33 1390.66 1378.5C1393.83 1376.5 1397.5 1375.5 1401.66 1375.5C1406.5 1375.5 1410.5 1377 1413.66 1380C1416.66 1383 1418.16 1387 1418.16 1392C1418.16 1395.33 1417.33 1398.58 1415.66 1401.75C1414.16 1404.92 1412.16 1407.92 1409.66 1410.75C1407.16 1413.58 1403.66 1417.25 1399.16 1421.75L1392.91 1428H1414.41C1415.41 1428 1416.16 1428 1416.66 1428C1417 1427.83 1417.41 1427.58 1417.91 1427.25H1418.41V1433.75H1384.41V1428.5ZM1461.03 1354V1206.5H1468.53V1354H1461.03ZM1476.03 1354V1206.5H1483.53V1354H1476.03ZM1506.03 1354V1206.5H1528.53V1354H1506.03ZM1536.03 1354V1206.5H1558.53V1354H1536.03ZM1566.03 1354V1206.5H1573.53V1354H1566.03ZM1521.03 1375.5C1526.7 1375.5 1531.11 1378.08 1534.28 1383.25C1537.45 1388.58 1539.03 1395.83 1539.03 1405C1539.03 1414.5 1537.45 1421.83 1534.28 1427C1531.28 1432.17 1526.86 1434.75 1521.03 1434.75C1515.2 1434.75 1510.78 1432.17 1507.78 1427C1504.61 1421.83 1503.03 1414.5 1503.03 1405C1503.03 1395.83 1504.61 1388.58 1507.78 1383.25C1510.95 1378.08 1515.36 1375.5 1521.03 1375.5ZM1521.03 1381.25C1517.53 1381.25 1514.78 1383.33 1512.78 1387.5C1510.78 1391.83 1509.78 1397.67 1509.78 1405C1509.78 1409.17 1510.03 1412.75 1510.53 1415.75L1530.28 1390.25C1529.45 1387.42 1528.2 1385.17 1526.53 1383.5C1525.03 1382 1523.2 1381.25 1521.03 1381.25ZM1521.03 1429C1524.53 1429 1527.28 1427 1529.28 1423C1531.28 1418.83 1532.28 1412.83 1532.28 1405C1532.28 1401.5 1532.03 1398.42 1531.53 1395.75L1512.03 1421C1513.86 1426.33 1516.86 1429 1521.03 1429ZM1581.15 1354V1206.5H1603.65V1354H1581.15ZM1626.15 1354V1206.5H1633.65V1354H1626.15ZM1641.15 1354V1206.5H1648.65V1354H1641.15ZM1656.15 1354V1206.5H1678.65V1354H1656.15ZM1686.15 1354V1206.5H1693.65V1354H1686.15ZM1639.9 1434.75C1638.57 1434.75 1637.32 1434.25 1636.15 1433.25C1635.15 1432.08 1634.65 1430.83 1634.65 1429.5C1634.65 1428 1635.15 1426.75 1636.15 1425.75C1637.32 1424.75 1638.57 1424.25 1639.9 1424.25C1641.4 1424.25 1642.65 1424.75 1643.65 1425.75C1644.82 1426.75 1645.4 1428 1645.4 1429.5C1645.4 1430.83 1644.82 1432.08 1643.65 1433.25C1642.65 1434.25 1641.4 1434.75 1639.9 1434.75ZM1701.27 1354V1206.5H1708.77V1354H1701.27ZM1716.27 1354V1206.5H1723.77V1354H1716.27ZM1746.27 1354V1206.5H1768.77V1354H1746.27ZM1776.27 1354V1206.5H1798.77V1354H1776.27ZM1806.27 1354V1206.5H1813.77V1354H1806.27ZM1761.27 1375.5C1766.93 1375.5 1771.35 1378.08 1774.52 1383.25C1777.68 1388.58 1779.27 1395.83 1779.27 1405C1779.27 1414.5 1777.68 1421.83 1774.52 1427C1771.52 1432.17 1767.1 1434.75 1761.27 1434.75C1755.43 1434.75 1751.02 1432.17 1748.02 1427C1744.85 1421.83 1743.27 1414.5 1743.27 1405C1743.27 1395.83 1744.85 1388.58 1748.02 1383.25C1751.18 1378.08 1755.6 1375.5 1761.27 1375.5ZM1761.27 1381.25C1757.77 1381.25 1755.02 1383.33 1753.02 1387.5C1751.02 1391.83 1750.02 1397.67 1750.02 1405C1750.02 1409.17 1750.27 1412.75 1750.77 1415.75L1770.52 1390.25C1769.68 1387.42 1768.43 1385.17 1766.77 1383.5C1765.27 1382 1763.43 1381.25 1761.27 1381.25ZM1761.27 1429C1764.77 1429 1767.52 1427 1769.52 1423C1771.52 1418.83 1772.52 1412.83 1772.52 1405C1772.52 1401.5 1772.27 1398.42 1771.77 1395.75L1752.27 1421C1754.1 1426.33 1757.1 1429 1761.27 1429ZM1821.38 1354V1206.5H1843.88V1354H1821.38ZM1851.38 1354V1206.5H1858.88V1354H1851.38ZM1881.38 1354V1206.5H1903.88V1354H1881.38ZM1911.38 1354V1206.5H1918.88V1354H1911.38ZM1926.38 1354V1206.5H1933.88V1354H1926.38ZM1881.38 1434.75C1877.72 1434.75 1874.38 1434 1871.38 1432.5C1868.38 1431 1865.97 1428.75 1864.13 1425.75L1870.13 1421.5L1870.38 1421.75C1870.38 1422.42 1870.47 1423 1870.63 1423.5C1870.8 1423.83 1871.22 1424.33 1871.88 1425C1873.05 1426.5 1874.47 1427.58 1876.13 1428.25C1877.63 1428.75 1879.47 1429 1881.63 1429C1883.63 1429 1885.47 1428.5 1887.13 1427.5C1888.97 1426.33 1890.38 1424.67 1891.38 1422.5C1892.38 1420.5 1892.88 1418.08 1892.88 1415.25C1892.88 1411.08 1891.72 1407.75 1889.38 1405.25C1887.22 1402.75 1884.38 1401.5 1880.88 1401.5C1879.05 1401.5 1877.13 1402 1875.13 1403C1873.3 1404 1871.63 1405.33 1870.13 1407L1866.13 1405.25L1867.88 1375.75H1897.38V1381.75H1873.38L1872.63 1398.25C1875.63 1396.75 1878.8 1396 1882.13 1396C1885.47 1396 1888.38 1396.83 1890.88 1398.5C1893.55 1400 1895.63 1402.25 1897.13 1405.25C1898.63 1408.25 1899.38 1411.67 1899.38 1415.5C1899.38 1419.5 1898.63 1422.92 1897.13 1425.75C1895.47 1428.75 1893.3 1431 1890.63 1432.5C1887.8 1434 1884.72 1434.75 1881.38 1434.75ZM1941.5 1354V1206.5H1964V1354H1941.5ZM1986.5 1354V1206.5H1994V1354H1986.5ZM2001.5 1354V1206.5H2009V1354H2001.5ZM2016.5 1354V1206.5H2039V1354H2016.5ZM2046.5 1354V1206.5H2054V1354H2046.5ZM2000.25 1434.75C1998.92 1434.75 1997.67 1434.25 1996.5 1433.25C1995.5 1432.08 1995 1430.83 1995 1429.5C1995 1428 1995.5 1426.75 1996.5 1425.75C1997.67 1424.75 1998.92 1424.25 2000.25 1424.25C2001.75 1424.25 2003 1424.75 2004 1425.75C2005.17 1426.75 2005.75 1428 2005.75 1429.5C2005.75 1430.83 2005.17 1432.08 2004 1433.25C2003 1434.25 2001.75 1434.75 2000.25 1434.75ZM2061.62 1354V1206.5H2069.12V1354H2061.62ZM2076.62 1354V1206.5H2099.12V1354H2076.62ZM2121.62 1354V1206.5H2129.12V1354H2121.62ZM2136.62 1354V1206.5H2144.12V1354H2136.62ZM2151.62 1354V1206.5H2174.12V1354H2151.62ZM2105.12 1428.5L2112.62 1421C2117.62 1416 2121.37 1412 2123.87 1409C2126.37 1406.17 2128.37 1403.33 2129.87 1400.5C2131.37 1397.83 2132.12 1394.92 2132.12 1391.75C2132.12 1388.08 2131.28 1385.42 2129.62 1383.75C2127.78 1382.08 2125.37 1381.25 2122.37 1381.25C2117.7 1381.25 2113.78 1383.17 2110.62 1387C2109.95 1388 2109.62 1388.83 2109.62 1389.5C2109.62 1390 2109.62 1390.33 2109.62 1390.5L2109.12 1391L2108.62 1390.5L2103.87 1386.75C2105.7 1383.08 2108.2 1380.33 2111.37 1378.5C2114.53 1376.5 2118.2 1375.5 2122.37 1375.5C2127.2 1375.5 2131.2 1377 2134.37 1380C2137.37 1383 2138.87 1387 2138.87 1392C2138.87 1395.33 2138.03 1398.58 2136.37 1401.75C2134.87 1404.92 2132.87 1407.92 2130.37 1410.75C2127.87 1413.58 2124.37 1417.25 2119.87 1421.75L2113.62 1428H2135.12C2136.12 1428 2136.87 1428 2137.37 1428C2137.7 1427.83 2138.12 1427.58 2138.62 1427.25H2139.12V1433.75H2105.12V1428.5ZM2181.73 1354V1206.5H2189.23V1354H2181.73ZM2196.73 1354V1206.5H2204.23V1354H2196.73ZM2226.73 1354V1206.5H2249.23V1354H2226.73ZM2256.73 1354V1206.5H2279.23V1354H2256.73ZM2286.73 1354V1206.5H2294.23V1354H2286.73ZM2241.73 1375.5C2247.4 1375.5 2251.82 1378.08 2254.98 1383.25C2258.15 1388.58 2259.73 1395.83 2259.73 1405C2259.73 1414.5 2258.15 1421.83 2254.98 1427C2251.98 1432.17 2247.57 1434.75 2241.73 1434.75C2235.9 1434.75 2231.48 1432.17 2228.48 1427C2225.32 1421.83 2223.73 1414.5 2223.73 1405C2223.73 1395.83 2225.32 1388.58 2228.48 1383.25C2231.65 1378.08 2236.07 1375.5 2241.73 1375.5ZM2241.73 1381.25C2238.23 1381.25 2235.48 1383.33 2233.48 1387.5C2231.48 1391.83 2230.48 1397.67 2230.48 1405C2230.48 1409.17 2230.73 1412.75 2231.23 1415.75L2250.98 1390.25C2250.15 1387.42 2248.9 1385.17 2247.23 1383.5C2245.73 1382 2243.9 1381.25 2241.73 1381.25ZM2241.73 1429C2245.23 1429 2247.98 1427 2249.98 1423C2251.98 1418.83 2252.98 1412.83 2252.98 1405C2252.98 1401.5 2252.73 1398.42 2252.23 1395.75L2232.73 1421C2234.57 1426.33 2237.57 1429 2241.73 1429ZM2301.85 1354V1206.5H2309.35V1354H2301.85ZM2316.85 1354V1206.5H2339.35V1354H2316.85ZM2361.85 1354V1206.5H2369.35V1354H2361.85ZM2376.85 1354V1206.5H2384.35V1354H2376.85ZM2391.85 1354V1206.5H2414.35V1354H2391.85ZM2345.35 1428.5L2352.85 1421C2357.85 1416 2361.6 1412 2364.1 1409C2366.6 1406.17 2368.6 1403.33 2370.1 1400.5C2371.6 1397.83 2372.35 1394.92 2372.35 1391.75C2372.35 1388.08 2371.52 1385.42 2369.85 1383.75C2368.02 1382.08 2365.6 1381.25 2362.6 1381.25C2357.93 1381.25 2354.02 1383.17 2350.85 1387C2350.18 1388 2349.85 1388.83 2349.85 1389.5C2349.85 1390 2349.85 1390.33 2349.85 1390.5L2349.35 1391L2348.85 1390.5L2344.1 1386.75C2345.93 1383.08 2348.43 1380.33 2351.6 1378.5C2354.77 1376.5 2358.43 1375.5 2362.6 1375.5C2367.43 1375.5 2371.43 1377 2374.6 1380C2377.6 1383 2379.1 1387 2379.1 1392C2379.1 1395.33 2378.27 1398.58 2376.6 1401.75C2375.1 1404.92 2373.1 1407.92 2370.6 1410.75C2368.1 1413.58 2364.6 1417.25 2360.1 1421.75L2353.85 1428H2375.35C2376.35 1428 2377.1 1428 2377.6 1428C2377.93 1427.83 2378.35 1427.58 2378.85 1427.25H2379.35V1433.75H2345.35V1428.5ZM2421.97 1354V1206.5H2429.47V1354H2421.97ZM2436.97 1354V1206.5H2459.47V1354H2436.97ZM2481.97 1354V1206.5H2489.47V1354H2481.97ZM2496.97 1354V1206.5H2504.47V1354H2496.97ZM2511.97 1354V1206.5H2534.47V1354H2511.97ZM2465.47 1428.5L2472.97 1421C2477.97 1416 2481.72 1412 2484.22 1409C2486.72 1406.17 2488.72 1403.33 2490.22 1400.5C2491.72 1397.83 2492.47 1394.92 2492.47 1391.75C2492.47 1388.08 2491.64 1385.42 2489.97 1383.75C2488.14 1382.08 2485.72 1381.25 2482.72 1381.25C2478.05 1381.25 2474.14 1383.17 2470.97 1387C2470.3 1388 2469.97 1388.83 2469.97 1389.5C2469.97 1390 2469.97 1390.33 2469.97 1390.5L2469.47 1391L2468.97 1390.5L2464.22 1386.75C2466.05 1383.08 2468.55 1380.33 2471.72 1378.5C2474.89 1376.5 2478.55 1375.5 2482.72 1375.5C2487.55 1375.5 2491.55 1377 2494.72 1380C2497.72 1383 2499.22 1387 2499.22 1392C2499.22 1395.33 2498.39 1398.58 2496.72 1401.75C2495.22 1404.92 2493.22 1407.92 2490.72 1410.75C2488.22 1413.58 2484.72 1417.25 2480.22 1421.75L2473.97 1428H2495.47C2496.47 1428 2497.22 1428 2497.72 1428C2498.05 1427.83 2498.47 1427.58 2498.97 1427.25H2499.47V1433.75H2465.47V1428.5Z" fill="black"/>
<path fill-rule="evenodd" clip-rule="evenodd" d="M1854.2 791.743C1791.58 854.368 1764.24 827.032 1764.24 827.032L1920.81 983.596C1920.81 983.596 2040.59 1103.38 2103.22 1040.75C2159.88 984.093 2040.09 864.309 2040.09 864.309L1883.53 707.745C1883.53 707.745 1910.87 735.081 1854.2 791.743ZM1878.83 817.812C1841.78 854.865 1830.84 843.931 1830.84 843.931L1940.1 953.188C1940.1 953.188 2023.69 1036.78 2060.74 999.725C2094.27 966.2 2010.68 882.61 2010.68 882.61L1901.42 773.352C1901.42 773.352 1912.36 784.287 1878.83 817.812Z" fill="black"/>
<ellipse cx="1810.46" cy="753.968" rx="84.3488" ry="41.4715" transform="rotate(-45 1810.46 753.968)" fill="black"/>
<rect x="2314.04" y="726.373" width="324.336" height="245.493" rx="115" fill="black"/>
<path d="M2639.94 708.152C2627.06 699.584 2569.84 721.569 2534.66 736.457C2521.27 742.126 2519.27 757.285 2530.65 764.854L2599.06 810.356C2610.44 817.926 2627.58 812.834 2631.1 800.6C2640.36 768.472 2652.82 716.719 2639.94 708.152Z" fill="black"/>
<path d="M2317.53 709.613C2330.41 701.045 2387.63 723.029 2422.81 737.917C2436.2 743.587 2438.2 758.746 2426.82 766.315L2358.41 811.817C2347.03 819.387 2329.89 814.295 2326.37 802.061C2317.11 769.933 2304.65 718.18 2317.53 709.613Z" fill="black"/>
<rect x="2408.82" y="954.331" width="134.77" height="149.049" rx="45" fill="black"/>
<path d="M2361.03 1001.73C2380.52 1005.17 2420.67 995.421 2420.67 995.421L2411.55 1035.59C2411.55 1035.59 2350.73 1039.54 2323.07 1021.3C2300.78 1006.59 2305 986.728 2286.6 968.63C2278.46 960.62 2261.7 959.937 2263.88 949.57C2266.53 936.924 2288.29 949.602 2302.74 953.833C2332.83 962.641 2329.85 996.23 2361.03 1001.73Z" fill="black"/>
<path d="M1348.83 733.679C1348.83 725.395 1342.11 718.679 1333.83 718.679H1244.67C1240.75 718.679 1236.98 720.217 1234.17 722.964L1209.25 747.382C1199.75 756.682 1183.75 749.956 1183.75 736.667V718.679V680C1183.75 671.716 1190.47 665 1198.75 665H1607.13C1615.41 665 1622.13 671.716 1622.13 680V718.679V736.667C1622.13 749.956 1606.13 756.682 1596.63 747.382L1571.71 722.964C1568.9 720.217 1565.13 718.679 1561.21 718.679H1473.42C1465.14 718.679 1458.42 725.395 1458.42 733.679V1038.34C1458.42 1044.18 1461.81 1049.49 1467.1 1051.95L1503.63 1068.93C1508.92 1071.39 1512.31 1076.69 1512.31 1082.53V1089.07V1089.07C1512.31 1096.97 1505.9 1103.38 1497.99 1103.38H1458.42H1348.83H1307.66C1299.75 1103.38 1293.35 1096.97 1293.35 1089.07V1089.07V1082.65C1293.35 1076.75 1296.8 1071.4 1302.17 1068.98L1340 1051.9C1345.37 1049.47 1348.83 1044.12 1348.83 1038.23V733.679Z" fill="black"/>
<defs>
<linearGradient id="paint0_linear_3_71" x1="1920" y1="0" x2="1779.5" y2="1812" gradientUnits="userSpaceOnUse">
<stop stop-color="#FF0000"/>
<stop offset="1" stop-color="#FFABCE"/>
</linearGradient>
<linearGradient id="paint1_linear_3_71" x1="2237.5" y1="606.5" x2="1975.5" y2="2723.5" gradientUnits="userSpaceOnUse">
<stop stop-color="#FF3636"/>
<stop offset="0.9999" stop-color="#FF36D3"/>
</linearGradient>
</defs>
</svg>
