<svg width="3840" height="2160" viewBox="0 0 3840 2160" fill="none" xmlns="http://www.w3.org/2000/svg">
<rect width="3840" height="2160" fill="#366DDA"/>
<path d="M1461 1068H1416.06C1407.75 1068 1401.03 1061.25 1401.06 1052.94L1401.5 948H1362.35C1353.87 948 1349.24 938.111 1354.67 931.598L1479.48 781.828C1485.47 774.632 1496.53 774.632 1502.52 781.828L1627.33 931.598C1632.76 938.111 1628.13 948 1619.65 948H1581V1053C1581 1061.28 1574.28 1068 1566 1068H1521V1013.69C1521 1005.4 1514.28 998.689 1506 998.689H1476C1467.72 998.689 1461 1005.4 1461 1013.69V1068Z" fill="#172541"/>
<rect x="1531" y="792" width="50" height="117" rx="15" fill="#172541"/>
<path d="M1879.35 777.002C1881.74 771.535 1887.13 768 1893.1 768H1910.01C1919.03 768 1926.01 775.909 1924.89 784.863L1912.5 883.863C1911.56 891.368 1905.18 897 1897.62 897H1849.91C1839.1 897 1831.84 885.911 1836.16 876.002L1879.35 777.002Z" fill="#172541"/>
<rect x="1834" y="869" width="162" height="198" rx="15" fill="#172541"/>
<rect x="1868" y="868" width="179" height="62" rx="15" fill="#172541"/>
<rect x="1868" y="1005" width="179" height="62" rx="15" fill="#172541"/>
<rect x="1747" y="869.762" width="75" height="198.238" rx="15" fill="#172541"/>
<rect x="1868" y="936" width="179" height="62" rx="15" fill="#172541"/>
<path fill-rule="evenodd" clip-rule="evenodd" d="M2183.98 914.549L2325.16 1057.49C2330.92 1063.32 2340.29 1063.45 2346.21 1057.79L2441.99 966.111C2448.04 960.319 2448.18 950.694 2442.29 944.734L2301.2 801.879L2301.19 801.869C2301 801.675 2232.53 732.745 2173.97 792.107C2123.46 843.318 2179.55 909.503 2183.51 914.048C2183.67 914.227 2183.82 914.38 2183.98 914.549ZM2235.97 881.552C2254.3 881.552 2269.16 866.719 2269.16 848.421C2269.16 830.124 2254.3 815.291 2235.97 815.291C2217.64 815.291 2202.78 830.124 2202.78 848.421C2202.78 866.719 2217.64 881.552 2235.97 881.552Z" fill="#172541"/>
<rect x="1307" y="1104" width="1179" height="17" fill="#172541"/>
<path d="M1723.53 1253V1146.8H1728.93V1253H1723.53ZM1734.33 1253V1146.8H1750.53V1253H1734.33ZM1766.73 1253V1146.8H1772.13V1253H1766.73ZM1777.53 1253V1146.8H1782.93V1253H1777.53ZM1788.33 1253V1146.8H1804.53V1253H1788.33ZM1754.85 1306.64L1760.25 1301.24C1763.85 1297.64 1766.55 1294.76 1768.35 1292.6C1770.15 1290.56 1771.59 1288.52 1772.67 1286.48C1773.75 1284.56 1774.29 1282.46 1774.29 1280.18C1774.29 1277.54 1773.69 1275.62 1772.49 1274.42C1771.17 1273.22 1769.43 1272.62 1767.27 1272.62C1763.91 1272.62 1761.09 1274 1758.81 1276.76C1758.33 1277.48 1758.09 1278.08 1758.09 1278.56C1758.09 1278.92 1758.09 1279.16 1758.09 1279.28L1757.73 1279.64L1757.37 1279.28L1753.95 1276.58C1755.27 1273.94 1757.07 1271.96 1759.35 1270.64C1761.63 1269.2 1764.27 1268.48 1767.27 1268.48C1770.75 1268.48 1773.63 1269.56 1775.91 1271.72C1778.07 1273.88 1779.15 1276.76 1779.15 1280.36C1779.15 1282.76 1778.55 1285.1 1777.35 1287.38C1776.27 1289.66 1774.83 1291.82 1773.03 1293.86C1771.23 1295.9 1768.71 1298.54 1765.47 1301.78L1760.97 1306.28H1776.45C1777.17 1306.28 1777.71 1306.28 1778.07 1306.28C1778.31 1306.16 1778.61 1305.98 1778.97 1305.74H1779.33V1310.42H1754.85V1306.64ZM1810.02 1253V1146.8H1815.42V1253H1810.02ZM1820.82 1253V1146.8H1826.22V1253H1820.82ZM1842.42 1253V1146.8H1858.62V1253H1842.42ZM1864.02 1253V1146.8H1880.22V1253H1864.02ZM1885.62 1253V1146.8H1891.02V1253H1885.62ZM1853.22 1268.48C1857.3 1268.48 1860.48 1270.34 1862.76 1274.06C1865.04 1277.9 1866.18 1283.12 1866.18 1289.72C1866.18 1296.56 1865.04 1301.84 1862.76 1305.56C1860.6 1309.28 1857.42 1311.14 1853.22 1311.14C1849.02 1311.14 1845.84 1309.28 1843.68 1305.56C1841.4 1301.84 1840.26 1296.56 1840.26 1289.72C1840.26 1283.12 1841.4 1277.9 1843.68 1274.06C1845.96 1270.34 1849.14 1268.48 1853.22 1268.48ZM1853.22 1272.62C1850.7 1272.62 1848.72 1274.12 1847.28 1277.12C1845.84 1280.24 1845.12 1284.44 1845.12 1289.72C1845.12 1292.72 1845.3 1295.3 1845.66 1297.46L1859.88 1279.1C1859.28 1277.06 1858.38 1275.44 1857.18 1274.24C1856.1 1273.16 1854.78 1272.62 1853.22 1272.62ZM1853.22 1307C1855.74 1307 1857.72 1305.56 1859.16 1302.68C1860.6 1299.68 1861.32 1295.36 1861.32 1289.72C1861.32 1287.2 1861.14 1284.98 1860.78 1283.06L1846.74 1301.24C1848.06 1305.08 1850.22 1307 1853.22 1307ZM1896.5 1253V1146.8H1901.9V1253H1896.5ZM1907.3 1253V1146.8H1923.5V1253H1907.3ZM1939.7 1253V1146.8H1945.1V1253H1939.7ZM1950.5 1253V1146.8H1955.9V1253H1950.5ZM1961.3 1253V1146.8H1977.5V1253H1961.3ZM1927.82 1306.64L1933.22 1301.24C1936.82 1297.64 1939.52 1294.76 1941.32 1292.6C1943.12 1290.56 1944.56 1288.52 1945.64 1286.48C1946.72 1284.56 1947.26 1282.46 1947.26 1280.18C1947.26 1277.54 1946.66 1275.62 1945.46 1274.42C1944.14 1273.22 1942.4 1272.62 1940.24 1272.62C1936.88 1272.62 1934.06 1274 1931.78 1276.76C1931.3 1277.48 1931.06 1278.08 1931.06 1278.56C1931.06 1278.92 1931.06 1279.16 1931.06 1279.28L1930.7 1279.64L1930.34 1279.28L1926.92 1276.58C1928.24 1273.94 1930.04 1271.96 1932.32 1270.64C1934.6 1269.2 1937.24 1268.48 1940.24 1268.48C1943.72 1268.48 1946.6 1269.56 1948.88 1271.72C1951.04 1273.88 1952.12 1276.76 1952.12 1280.36C1952.12 1282.76 1951.52 1285.1 1950.32 1287.38C1949.24 1289.66 1947.8 1291.82 1946 1293.86C1944.2 1295.9 1941.68 1298.54 1938.44 1301.78L1933.94 1306.28H1949.42C1950.14 1306.28 1950.68 1306.28 1951.04 1306.28C1951.28 1306.16 1951.58 1305.98 1951.94 1305.74H1952.3V1310.42H1927.82V1306.64ZM1982.98 1253V1146.8H1988.38V1253H1982.98ZM1993.78 1253V1146.8H1999.18V1253H1993.78ZM2015.38 1253V1146.8H2031.58V1253H2015.38ZM2036.98 1253V1146.8H2042.38V1253H2036.98ZM2047.78 1253V1146.8H2063.98V1253H2047.78ZM2030.68 1300.16H2012.68V1296.74L2031.76 1268.66H2035.72V1296.38H2040.94V1300.16H2035.72V1310.42H2030.68V1300.16ZM2030.68 1296.2V1277.12L2018.08 1296.2H2030.68Z" fill="#172541"/>
</svg>
