<svg id="canvas" height="auto" xmlns="http://www.w3.org/2000/svg" version="1.1" xmlns:xlink="http://www.w3.org/1999/xlink" xmlns:svgjs="http://svgjs.dev/svgjs" viewBox="0 0 900 512" width="auto" style="width: auto; height: auto;"><rect width="900" height="512" fill="#213c70"/><g stroke-opacity="1" stroke="#ff00ff" transform="matrix(1,0,0,1,30.721758429744785,52.167915985290286)"><path d="M97.79364654180098,23.96944997707113C95.73586922000618,49.48810801473868,64.01029575720436,60.30201434316503,34.74615720655616,68.53915488768118C5.482018655907961,76.77629543219733,-55.72384611115774,80.85757350980982,-77.79118476208824,73.39229324416806C-99.85852341301873,65.92701297852629,-103.55705635204698,47.243067636657585,-97.65787469902682,23.747473293830552C-91.75869304600666,0.25187895100351554,-66.52121081669253,-49.52789504076837,-42.396094843967234,-67.58127281279415C-18.270978871241937,-85.63465058481994,23.727864239696917,-99.831247136635,47.092821137324954,-84.57279333832412C70.457778034953,-69.31433954001324,99.85142386359578,-1.5492080605964205,97.79364654180098,23.96944997707113C95.73586922000618,49.48810801473868,64.01029575720436,60.30201434316503,34.74615720655616,68.53915488768118" fill-opacity="0.25" fill="#ff00ff"/></g><g stroke-opacity="1" stroke="#ff00ff" transform="matrix(1,0,0,1,70.65821352844976,218.5901795816526)"><path d="M121.97769518006577,7.75435956937725C122.09062119423703,30.519586658067873,67.48593698287502,39.028299525835365,39.98677625104547,51.83137182065984C12.487615519215918,64.63444411548431,-27.694336671044844,90.5514480843978,-43.01726921091154,84.57279333832409C-58.34020175077824,78.59413859225037,-47.415441634284406,47.71531795235964,-51.95081898815471,15.959443344217505C-56.48619634202501,-15.796431263924635,-85.43953985982881,-89.17588196791186,-70.22953333413338,-105.96245431052876C-55.01952680843795,-122.74902665314565,7.274682080317994,-103.71279302480156,39.30922016601785,-84.7599907114839C71.3437582517177,-65.80718839816623,121.8647691658945,-15.010867519313372,121.97769518006577,7.75435956937725C122.09062119423703,30.519586658067873,67.48593698287502,39.028299525835365,39.98677625104547,51.83137182065984" fill-opacity="0.25" fill="#ff00ff"/></g><g stroke-opacity="1" stroke="#ff00ff" transform="matrix(1,0,0,1,64.50370467266036,293.5376842507254)"><path d="M107.28699593818703,20.358633294447507C103.43059320886766,48.35611050881404,48.80418772750825,75.48725134432303,25.66882597197501,83.41206994787508C2.533464216441768,91.33688855142714,-8.937484290615163,82.36972089104557,-31.52517459501243,67.90754491575987C-54.1128648994097,53.44536894047416,-113.55871741848395,18.490584837956238,-109.85731585440857,-3.360985903839172C-106.15591429033319,-25.21255664563458,-35.76085824427675,-49.66657829593176,-9.31676521056012,-63.20187953501258C17.127327823156506,-76.7371807740934,29.373282156433337,-98.49954547656746,48.8072423478912,-84.57279333832412C68.24120253934906,-70.64604120008077,111.1433986675064,-7.638843919919022,107.28699593818703,20.358633294447507C103.43059320886766,48.35611050881404,48.80418772750825,75.48725134432303,25.66882597197501,83.41206994787508" fill-opacity="0.25" fill="#ff00ff"/></g><g stroke-opacity="1" stroke="#ff00ff" transform="matrix(1,0,0,1,81.71253249008657,434.877044002245)"><path d="M96.24631245369483,17.643017155549977C96.94775413151345,39.135345109167446,75.99118762847516,55.14968802070117,58.4153875472459,66.36131125547189C40.83958746601664,77.57293449024262,20.658797342324373,93.02366904866423,-9.208488033680766,84.9127565641743C-39.07577340968591,76.80184407968437,-116.93143151640041,48.44121367402791,-120.78832470878494,17.695836348532282C-124.64521790116947,-13.049540976963346,-61.515690886174426,-86.17809191967194,-32.34984718798792,-99.55950738879947C-3.184003489801409,-112.940922857927,32.77404420672033,-82.12641055695785,54.20673748033413,-62.59265646623294C75.63943075394792,-43.058902375508026,95.5448707758762,-3.8493107980674957,96.24631245369483,17.643017155549977C96.94775413151345,39.135345109167446,75.99118762847516,55.14968802070117,58.4153875472459,66.36131125547189" fill-opacity="0.25" fill="#ff00ff"/></g><g stroke-opacity="1" stroke="#ff00ff" transform="matrix(1,0,0,1,174.47241248606812,60.37711224072353)"><path d="M100.3464526882689,-33.90777756681195C95.61704712640282,-13.463267919962139,49.54710984030356,39.093759912024055,24.698135602424898,60.30693234055168C-0.15083863545376985,81.52010476907931,-28.458760348757277,103.37427041859326,-48.74739273900313,93.37125700435385C-69.03602512924898,83.36824359011445,-100.66364593284221,32.96547335807769,-97.03365873905022,0.2888518551152828C-93.40367154525823,-32.38776964784712,-51.9855075283631,-92.24697578081015,-26.967469576251176,-102.68847201342057C-1.9494316241392546,-113.12996824603098,31.855581929534633,-73.82357461498196,53.07456897362131,-62.3601255405472C74.29355601770799,-50.89667646611243,105.07585825013497,-54.35228721366177,100.3464526882689,-33.90777756681195C95.61704712640282,-13.463267919962139,49.54710984030356,39.093759912024055,24.698135602424898,60.30693234055168" fill-opacity="0.25" fill="#ff00ff"/></g><g stroke-opacity="1" stroke="#ff00ff" transform="matrix(1,0,0,1,167.53942154587216,165.57250300525448)"><path d="M101.93322787879036,-20.200326117949576C108.91722404971311,12.688865899616413,70.40446831972605,88.01546416257013,48.828125000000014,106.24634720653609C27.251781680273975,124.47723025050205,-3.1107971511100807,105.35199376866476,-27.524832039565865,89.18497214584616C-51.93886692802165,73.01795052302757,-93.96893756686849,41.14247348590129,-97.6560843307347,9.244217469624509C-101.34323109460091,-22.654038546652277,-67.07775134029617,-85.48239355706717,-49.64771262276314,-102.20456395181456C-32.2176739052301,-118.92673434656196,-18.339342109128744,-104.75617787117068,6.924147974463503,-91.08880489885985C32.187638058055754,-77.42143192654902,94.94923170786761,-53.08951813551556,101.93322787879036,-20.200326117949576C108.91722404971311,12.688865899616413,70.40446831972605,88.01546416257013,48.828125000000014,106.24634720653609" fill-opacity="0.25" fill="#ff00ff"/></g><g stroke-opacity="1" stroke="#ff00ff" transform="matrix(1,0,0,1,196.31012528175964,339.8099363468269)"><path d="M140.03345574227822,10.15819074163695C138.1175135704062,41.318403691453256,72.84410442412137,93.06789335801072,45.19372365971478,106.37460540536377C17.543342895308182,119.68131745271681,-5.771166283447396,110.4956634899328,-25.868828844161357,89.9984630257552C-45.96649140487531,69.5012625615776,-78.44300281558922,16.080974342154292,-75.39225170456898,-16.608597379701784C-72.34150059354873,-49.29816910155786,-29.577926910625838,-95.47595481974253,-7.564322178039859,-106.13896730538124C14.44928255454612,-116.80197979101996,32.08974703756054,-99.9695319680371,56.689376690946894,-80.58667229353406C81.28900634433325,-61.20381261903103,141.94939791415024,-21.00202220817936,140.03345574227822,10.15819074163695C138.1175135704062,41.318403691453256,72.84410442412137,93.06789335801072,45.19372365971478,106.37460540536377" fill-opacity="0.25" fill="#ff00ff"/></g><g stroke-opacity="1" stroke="#ff00ff" transform="matrix(1,0,0,1,186.85704942921285,419.81805449012677)"><path d="M95.04646400480597,-41.686545584768254C94.53616598836075,-9.92101501296925,47.95978663072148,102.04839982877371,24.63635446091565,119.073497601041C1.312922291109821,136.09859537330829,-28.00742756825004,82.9518408315493,-44.89412901402902,60.46404104883546C-61.780830459808,37.97624126612161,-79.55233680650142,9.361419694644756,-76.68385421375822,-15.85330109524211C-73.81537162101503,-41.06802188512897,-45.08023291979407,-81.54655290140056,-27.68323345756987,-90.82428369048571C-10.286233995345665,-100.10201447957087,7.243192982524363,-79.70930884737261,27.698142559587,-71.51968582975303C48.15309213664964,-63.330062812133455,95.55676202125119,-73.45207615656726,95.04646400480597,-41.686545584768254C94.53616598836075,-9.92101501296925,47.95978663072148,102.04839982877371,24.63635446091565,119.073497601041" fill-opacity="0.25" fill="#ff00ff"/></g><g stroke-opacity="1" stroke="#ff00ff" transform="matrix(1,0,0,1,306.2975799563437,42.130990299435844)"><path d="M137.7332066623182,12.54725405406851C136.6938076934911,35.7254545329922,90.8461546414508,68.16712538465252,61.37207222713315,83.74026093239239C31.897989812815513,99.31339648013225,-9.097084743725315,126.12441986652097,-39.11128782358763,105.98606734050774C-69.12549090344994,85.84771481449452,-113.61743540553564,-1.943826592260855,-118.71314625204076,-37.08985422368694C-123.80885709854587,-72.23588185511304,-100.73915495130775,-101.85025049513831,-69.68555290261834,-104.89009844804879C-38.63195085392893,-107.92994640095927,33.038672779272936,-74.901834024836,67.60846604009569,-55.32894194114979C102.17825930091846,-35.75604985746358,138.7726056311453,-10.630946424855185,137.7332066623182,12.54725405406851C136.6938076934911,35.7254545329922,90.8461546414508,68.16712538465252,61.37207222713315,83.74026093239239" fill-opacity="0.25" fill="#ff00ff"/></g><g stroke-opacity="1" stroke="#ff00ff" transform="matrix(1,0,0,1,294.00243239464646,163.14441497924298)"><path d="M87.13404231035372,-0.000030832971354755045C80.82857913714216,18.764156087957762,54.9885159233162,28.730197541689737,28.301288508706055,50.18604149684354C1.6140610940959093,71.64188545199735,-51.59303006242166,135.29363216322628,-72.98932217730714,128.73503289795147C-94.38561429219263,122.17643363267666,-104.1033303768247,49.9634058662395,-100.07646418060685,10.83444590519467C-96.049597984389,-28.294514055850158,-76.52988028809709,-93.8331392126632,-48.82812500000004,-106.0387268683175C-21.126369711903,-118.2443145239718,43.47370632958311,-80.07219603462217,66.1340675479754,-62.39908002873115C88.7944287663677,-44.72596402284013,93.43950548356528,-18.76421775390047,87.13404231035372,-0.000030832971354755045C80.82857913714216,18.764156087957762,54.9885159233162,28.730197541689737,28.301288508706055,50.18604149684354" fill-opacity="0.25" fill="#ff00ff"/></g><g stroke-opacity="1" stroke="#ff00ff" transform="matrix(1,0,0,1,301.6831286079278,297.95446635150256)"><path d="M93.91239844502073,23.140661106012153C97.44014777981897,56.41784367661843,94.17775224457796,84.89474726732625,69.99462100878942,91.17897210544825C45.811489773000886,97.46319694357025,-28.912567136177383,75.91803253542676,-51.186388969710535,60.846010134744176C-73.46021080324368,45.773987734061585,-66.34821636545456,25.676334133008577,-63.64830999240948,0.7468377013527174C-60.94840361936439,-24.182658730303142,-53.73302323017492,-70.52580828526729,-34.98695073144002,-88.73096845519098C-16.240878232705114,-106.93612862511466,27.344900137256477,-127.12939491172328,48.828124999999936,-108.48412331818943C70.3113498627434,-89.83885172465558,90.38464911022248,-10.136521464594125,93.91239844502073,23.140661106012153C97.44014777981897,56.41784367661843,94.17775224457796,84.89474726732625,69.99462100878942,91.17897210544825" fill-opacity="0.25" fill="#ff00ff"/></g><g stroke-opacity="1" stroke="#ff00ff" transform="matrix(1,0,0,1,297.99690755549864,476.2427378166198)"><path d="M122.009079479583,18.13393751123528C126.06948008159716,42.831570379253925,78.10880870638736,74.42004422933485,48.828125000000014,84.66022835816614C19.547441293612664,94.90041248699742,-30.2216347793996,95.5239235825882,-53.6750227587411,79.57504228422303C-77.12841073808261,63.62616098585787,-89.6639577731235,18.07923284544959,-91.89220287604897,-11.033059432024835C-94.12044797897444,-40.14535170949926,-86.43748075362127,-86.34995981097003,-67.04449337629394,-95.09871138062351C-47.65150599896661,-103.84746295027699,-7.043207421397849,-82.39767699858885,24.465721387914975,-63.525568849945714C55.9746501972278,-44.65346070130258,117.94867887756882,-6.563695356783363,122.009079479583,18.13393751123528C126.06948008159716,42.831570379253925,78.10880870638736,74.42004422933485,48.828125000000014,84.66022835816614" fill-opacity="0.25" fill="#ff00ff"/></g><g stroke-opacity="1" stroke="#ff00ff" transform="matrix(1,0,0,1,381.1548513226194,36.83836994636526)"><path d="M97.51172917930496,20.056063008898924C108.70308343656956,40.996259694677356,91.47544530854682,70.2801772710535,71.00799948414556,84.5663205769298C50.54055365974429,98.85246388280609,10.099159910837784,122.06086907177279,-25.292945767102637,105.77292284415671C-60.68505144504306,89.48497661654064,-141.19657513054406,16.931927435887122,-141.34463458349697,-13.161356788766618C-141.49269403644988,-43.254641013420354,-50.382053905495894,-70.13453204560338,-26.181302484820066,-74.78678250376574C-1.9805510641442332,-79.43903296192809,-16.755631336796142,-56.882000456518234,3.859873940558027,-41.07485953774079C24.4753792179122,-25.26771861896335,86.32037492204037,-0.8841336768795074,97.51172917930496,20.056063008898924C108.70308343656956,40.996259694677356,91.47544530854682,70.2801772710535,71.00799948414556,84.5663205769298" fill-opacity="0.25" fill="#ff00ff"/></g><g stroke-opacity="1" stroke="#ff00ff" transform="matrix(1,0,0,1,373.55594607113477,217.74123592289448)"><path d="M97.65625,-38.527254560649624C103.65496679528643,-6.935438584837826,90.25143846948087,68.41362372358101,62.313545504197776,89.6690650812626C34.37565253891468,110.92450643894419,-46.8649050344421,108.00984903079824,-69.97110779169854,89.00539358543995C-93.07731054895498,70.00093814008166,-80.39338083638138,3.12011091303226,-76.3236710393409,-24.357667590887107C-72.2539612423004,-51.83544609480647,-62.660334971425605,-63.27391690762274,-45.552849009455585,-75.86127743807626C-28.445363047485564,-88.44863796852977,2.4530615642366342,-106.10416791984596,26.321244732479233,-99.88183077360819C50.18942790072183,-93.65949362737041,91.65753320471357,-70.11907053646142,97.65625,-38.527254560649624C103.65496679528643,-6.935438584837826,90.25143846948087,68.41362372358101,62.313545504197776,89.6690650812626" fill-opacity="0.25" fill="#ff00ff"/></g><g stroke-opacity="1" stroke="#ff00ff" transform="matrix(1,0,0,1,367.176599900858,292.07259767780874)"><path d="M96.77736569771824,-14.082504062959408C96.17322799099401,12.377422263677527,73.09570678295304,78.01903560855011,48.828125000000014,98.51820590390139C24.56054321704698,119.01737619925267,-26.051151037863296,123.82452141951866,-48.82812499999997,108.91251770914822C-71.60509896213665,94.00051399877778,-87.83370857339499,38.50503864893307,-87.83371877282003,9.046183641678773C-87.83372897224508,-20.412671365575527,-72.20929786541117,-56.29268971811109,-48.82818619655026,-67.8406123343776C-25.447074527689352,-79.3885349506441,28.185359257967352,-69.20103676782328,52.452951240345435,-60.241352055920245C76.72054322272352,-51.281667344017215,97.38150340444247,-40.54243038959635,96.77736569771824,-14.082504062959408C96.17322799099401,12.377422263677527,73.09570678295304,78.01903560855011,48.828125000000014,98.51820590390139" fill-opacity="0.25" fill="#ff00ff"/></g><g stroke-opacity="1" stroke="#ff00ff" transform="matrix(1,0,0,1,410.86424832935285,470.08698202822865)"><path d="M136.8652380904647,22.55501780213222C133.28241734163026,54.08543468000448,60.84472452903768,77.96367654990512,27.331200506993415,84.57279333832406C-6.182323515050843,91.181910126743,-46.525407618908815,79.07261567316807,-64.21590604180088,62.20971853264592C-81.90640446469294,45.34682139212377,-88.41694391096662,15.456449997458527,-78.81179003035895,-16.60458950480883C-69.20663614975128,-48.665629007076184,-27.858301929881318,-115.48899874360811,-6.584982758154837,-130.15651848095823C14.688336413571644,-144.82403821830835,24.919754858563348,-130.06163064275796,48.828124999999936,-104.60970792890954C72.73649514143652,-79.15778521506114,140.4480588392991,-8.975399075740047,136.8652380904647,22.55501780213222C133.28241734163026,54.08543468000448,60.84472452903768,77.96367654990512,27.331200506993415,84.57279333832406" fill-opacity="0.25" fill="#ff00ff"/></g><g stroke-opacity="1" stroke="#ff00ff" transform="matrix(1,0,0,1,503.82163619978576,41.953335243876595)"><path d="M119.00329972322004,-6.687739280989497C110.92055955531967,26.83447259780658,74.15093910136702,112.41620181110238,42.129806008731954,124.71703662167262C10.108672916096893,137.01787143224286,-50.23187674574119,85.42642842489892,-73.12349883259033,67.11726958243196C-96.01512091943947,48.808110739964995,-100.88975083433432,43.8020538354409,-95.21992651236289,14.862083566870837C-89.55010219039146,-14.077886701699224,-70.07891515551123,-91.3094989926593,-39.104552900761725,-106.52255202898841C-8.13019064601222,-121.73560506531753,64.27493824547051,-93.05537010910369,90.62624701613413,-76.41623465110388C116.97755578679775,-59.777099193104064,127.08603989112041,-40.209951159785575,119.00329972322004,-6.687739280989497C110.92055955531967,26.83447259780658,74.15093910136702,112.41620181110238,42.129806008731954,124.71703662167262" fill-opacity="0.25" fill="#ff00ff"/></g><g stroke-opacity="1" stroke="#ff00ff" transform="matrix(1,0,0,1,528.5694966806864,162.68445716946974)"><path d="M97.65625,22.839524105040816C94.63808602137159,53.98266803819011,58.4874145281843,90.19020909595872,30.41292372722825,102.28607026057163C2.338432926272194,114.38193142518455,-48.995669566608115,112.38658261924303,-70.79069480573632,95.4146910927183C-92.58572004486453,78.44279956619357,-97.70761452626112,33.39032261911247,-100.357227707541,0.45472110142323174C-103.00684088882088,-32.480880416266004,-111.50156311117217,-88.02766560679254,-86.68837389341556,-102.1989180134171C-61.87518467565894,-116.37017042004166,17.79780361676276,-105.41253369140044,48.52190759899869,-84.57279333832412C79.24601158123461,-63.733052985247795,100.67441397862841,-8.303619828108477,97.65625,22.839524105040816C94.63808602137159,53.98266803819011,58.4874145281843,90.19020909595872,30.41292372722825,102.28607026057163" fill-opacity="0.25" fill="#ff00ff"/></g><g stroke-opacity="1" stroke="#ff00ff" transform="matrix(1,0,0,1,479.5708216704596,290.5347240211973)"><path d="M60.943569211943746,19.25363578985793C60.87954161254789,47.800577820348785,47.47167101199567,79.88073415224503,31.094918845558965,86.708858844621C14.718166679122266,93.53698353699698,-19.488489266036574,74.6738604182173,-37.31694378667644,60.2223839441138C-55.145398307316306,45.7709074700103,-72.91292965414902,21.30563852778541,-75.87580827828023,1.4210854715202004e-14C-78.83868690241144,-21.30563852778538,-72.98669765149937,-53.51598166621122,-55.09421553146365,-67.61144722259857C-37.201733411427924,-81.70691277898592,12.139453651366214,-99.05030717373353,31.479084441934113,-84.57279333832412C50.818715232502015,-70.0952795029147,61.0075968113396,-9.293306240632923,60.943569211943746,19.25363578985793C60.87954161254789,47.800577820348785,47.47167101199567,79.88073415224503,31.094918845558965,86.708858844621" fill-opacity="0.25" fill="#ff00ff"/></g><g stroke-opacity="1" stroke="#ff00ff" transform="matrix(1,0,0,1,504.28967708689487,450.11162493733633)"><path d="M121.47006776847117,12.172965096804283C125.52869717121186,40.27083559036748,83.66868085293007,47.23911617047234,48.828125000000014,63.10246219588355C13.987569147069955,78.96580822129475,-66.86078173485683,112.05498730627052,-87.5732673491092,107.3530412492715C-108.28575296336157,102.65109519227248,-85.35644194149846,68.88847475115745,-75.44678868551422,34.890785853889454C-65.53713542952998,0.8930969566214699,-44.769204024715435,-73.23716769777222,-28.115347813203755,-96.63309213433641C-11.461491601692078,-120.0290165709006,-0.45455401338999124,-123.61910363735242,24.476348583555826,-105.48476076549564C49.407251180501646,-87.35041789363885,117.41143836573048,-15.924905396758913,121.47006776847117,12.172965096804283C125.52869717121186,40.27083559036748,83.66868085293007,47.23911617047234,48.828125000000014,63.10246219588355" fill-opacity="0.25" fill="#ff00ff"/></g><g stroke-opacity="1" stroke="#ff00ff" transform="matrix(1,0,0,1,615.6568928719581,67.27550028771002)"><path d="M76.5282496876974,1.1187699525442412C77.84789281402111,33.43648666664529,52.58530072935916,96.0662909706899,32.475082850578254,106.05529116800103C12.36486497179735,116.04429136531216,-17.631454551313738,78.72865299774453,-44.13305758498804,61.05277113641103C-70.63466061866234,43.37688927507753,-128.05682339718038,27.365813313609824,-126.53453535146754,1.4210854715202004e-14C-125.01224730575471,-27.365813313609795,-60.181289218061664,-88.5002738924803,-34.99932931071107,-103.14210874524784C-9.817369403360477,-117.78394359801538,5.969294259567942,-105.22782223290395,24.55722409263602,-87.85100911660527C43.14515392570409,-70.47419600030659,75.20860656137368,-31.198946761556805,76.5282496876974,1.1187699525442412C77.84789281402111,33.43648666664529,52.58530072935916,96.0662909706899,32.475082850578254,106.05529116800103" fill-opacity="0.25" fill="#ff00ff"/></g><g stroke-opacity="1" stroke="#ff00ff" transform="matrix(1,0,0,1,609.3504614058701,162.98923308761323)"><path d="M83.40642263262572,23.019841621360264C90.37584759967343,59.258462353732014,95.71059687780321,78.58714610401627,71.12459940658167,88.90906380291591C46.53860193536012,99.23098150181555,-31.921597349991522,102.5796876287463,-64.10956219470356,84.95134781475812C-96.2975270394156,67.32300800076995,-121.045307711065,15.13141878562124,-122.00318966169054,-16.860975081013166C-122.96107161231608,-48.85336894764757,-95.07539377612106,-88.39273446666473,-69.85685389845675,-107.0030153850483C-44.638314020792436,-125.61329630343187,3.764170182448286,-150.19313675904937,29.308049604295363,-128.5226605913146C54.85192902614244,-106.85218442357984,76.436997665578,-13.218779111011486,83.40642263262572,23.019841621360264C90.37584759967343,59.258462353732014,95.71059687780321,78.58714610401627,71.12459940658167,88.90906380291591" fill-opacity="0.25" fill="#ff00ff"/></g><g stroke-opacity="1" stroke="#ff00ff" transform="matrix(1,0,0,1,619.701461024794,298.5550522712227)"><path d="M110.03897913456053,15.863706524824316C104.7619717228332,47.18147988805604,55.27419021470446,96.81756661146939,24.756876459544003,104.21467217793591C-5.760437295616452,111.61177774440243,-60.099744821226906,84.14072839747683,-73.06490339640219,60.24633992362345C-86.03006197157747,36.35195144977007,-60.21699537210456,-15.591181661886797,-53.034074991507666,-39.15165866518442C-45.85115461091077,-62.71213566848205,-48.20954709972344,-73.69313720678396,-29.967381112820817,-81.1165220961623C-11.725215125918194,-88.53990698554064,33.08452755534452,-99.85533943828553,56.418920929908076,-83.69196800145443C79.75331430447163,-67.52859656462333,115.31598654628787,-15.454066838407407,110.03897913456053,15.863706524824316C104.7619717228332,47.18147988805604,55.27419021470446,96.81756661146939,24.756876459544003,104.21467217793591" fill-opacity="0.25" fill="#ff00ff"/></g><g stroke-opacity="1" stroke="#ff00ff" transform="matrix(1,0,0,1,628.3171221780151,460.8582171197431)"><path d="M129.61892066614493,-2.1316282072803006e-14C133.56935182407668,32.6343642201602,82.74021619859158,88.46212128897311,52.999041920900765,99.00111472307952C23.25786764320995,109.54010815718594,-29.05954566024588,76.30721472962654,-48.82812499999997,63.23396060463845C-68.59670433975407,50.16070647965035,-63.62090357011687,43.06804664380334,-65.61243411762378,20.561589973150944C-67.60396466513069,-1.9448666975014568,-76.59545646686375,-52.24366932410385,-60.777308285041414,-71.80477941927597C-44.95916010321908,-91.3658895144481,-2.4362498518874887,-108.7725338344278,29.296454973310237,-96.80507059788181C61.02915979850796,-84.83760736133581,125.66848950821317,-32.63436422016024,129.61892066614493,-2.1316282072803006e-14C133.56935182407668,32.6343642201602,82.74021619859158,88.46212128897311,52.999041920900765,99.00111472307952" fill-opacity="0.25" fill="#ff00ff"/></g><g stroke-opacity="1" stroke="#ff00ff" transform="matrix(1,0,0,1,715.6515392558154,36.55884269921092)"><path d="M95.43412604715283,-23.935731969937823C94.88594716788947,3.451633462409969,94.74158141438599,44.036802887882274,62.7426545074731,65.15386001061704C30.74372760056021,86.2709171333518,-72.12615423436431,107.45304640745462,-96.55943539432451,102.76661076647079C-120.99271655428471,98.08017512548696,-95.87089367032411,60.86502143227642,-83.85703245228808,37.03524616471404C-71.84317123425205,13.20547089715166,-49.45772812533188,-17.51111104753952,-24.47626808610832,-40.21204083890348C0.50519195311524,-62.91297063026744,46.04666209417641,-101.8830507282973,66.03172778305327,-99.1703325834697C86.01679347193013,-96.4576144386421,95.98230492641619,-51.32309740228561,95.43412604715283,-23.935731969937823C94.88594716788947,3.451633462409969,94.74158141438599,44.036802887882274,62.7426545074731,65.15386001061704" fill-opacity="0.25" fill="#ff00ff"/></g><g stroke-opacity="1" stroke="#ff00ff" transform="matrix(1,0,0,1,708.5775613547648,179.52924406089662)"><path d="M98.40773325157849,-1.1367792365454932C101.25485295396363,27.04035144771966,74.39269169535787,51.12780784677249,48.828125000000014,65.33562925069538C23.26355830464216,79.54345065461825,-26.58220778809047,93.97288120530149,-54.97966692056863,84.11014918699182C-83.3771260530468,74.24741716868215,-122.5818867816304,33.59116542671187,-121.55662979486897,6.159237140837334C-120.53137280810753,-21.272691145037204,-74.37846443009306,-62.16702186229993,-48.82812500000004,-80.48142052825541C-23.277785569907028,-98.79581919421089,7.2060970770927035,-116.95126173684721,31.745406785689124,-103.72715485489556C56.28471649428555,-90.5030479729439,95.56061354919335,-29.313909920810648,98.40773325157849,-1.1367792365454932C101.25485295396363,27.04035144771966,74.39269169535787,51.12780784677249,48.828125000000014,65.33562925069538" fill-opacity="0.25" fill="#ff00ff"/></g><g stroke-opacity="1" stroke="#ff00ff" transform="matrix(1,0,0,1,718.0683642670572,314.20797390653786)"><path d="M138.64410844051451,14.19545136484301C138.90528464604765,41.18782104014723,104.1196388878914,71.77447561497829,68.59737719178248,80.22752517389037C33.07511549567357,88.68057473280246,-54.88022597706046,78.28500291396394,-74.48946173613896,64.91374871831555C-94.09869749521746,51.542494522667155,-50.26322353580912,17.75248204975878,-49.05803736268854,1.4210854715202004e-14C-47.85285118956796,-17.75248204975875,-86.60640425096086,-27.980028100581222,-67.25834469741548,-41.60114358023705C-47.9102851438701,-55.22225905989288,32.7132444355954,-91.02612536878163,67.03031995858373,-81.72669287793497C101.34739548157206,-72.4272603870883,138.38293223498138,-12.796918310461212,138.64410844051451,14.19545136484301C138.90528464604765,41.18782104014723,104.1196388878914,71.77447561497829,68.59737719178248,80.22752517389037" fill-opacity="0.25" fill="#ff00ff"/></g><g stroke-opacity="1" stroke="#ff00ff" transform="matrix(1,0,0,1,727.910487331323,473.28806443075734)"><path d="M97.65625,6.164789055855827C106.63534152026168,33.874263964395254,105.49308754549446,60.72122806748847,84.79828662752361,80.75100012837211C64.10348570955276,100.78077218925576,-0.7272200703332885,139.80990725511683,-26.51255550782514,126.34342142115771C-52.29789094531699,112.8769355871986,-69.28064132718221,39.1652097612599,-69.91372599742752,-0.04791487538256689C-70.54681066767283,-39.261039512025036,-47.117307446527164,-94.69233732411675,-30.311063529296973,-108.93532639869707C-13.504819612066786,-123.1783154732774,9.59585191773743,-104.68920189862328,30.923737505953593,-85.50584932286446C52.25162309416976,-66.32249674710565,88.67715847973832,-21.544685852683603,97.65625,6.164789055855827C106.63534152026168,33.874263964395254,105.49308754549446,60.72122806748847,84.79828662752361,80.75100012837211" fill-opacity="0.25" fill="#ff00ff"/></g><g stroke-opacity="1" stroke="#ff00ff" transform="matrix(1,0,0,1,848.9281512001351,88.9428614864994)"><path d="M97.64864205782303,-0.08276881366574429C96.49082952691066,29.711866344932794,67.83615327304322,72.66289850444235,48.828125000000014,86.80354506601739C29.820096726956802,100.94419162759243,8.014534919563758,101.96885173400364,-16.399527580436242,84.76111055578451C-40.81359008043624,67.55336937756539,-93.38960090982334,14.936510073558505,-97.65625,-16.44290200329734C-101.92289909017666,-47.82231408015319,-67.57129715240853,-90.92846792497117,-41.99942212149616,-103.51536190535059C-16.42754709058379,-116.10225588573,32.50032282225437,-109.20303140085464,55.775000185474234,-91.96426588557384C79.04967754869409,-74.72550037029303,98.80645458873539,-29.877403972264283,97.64864205782303,-0.08276881366574429C96.49082952691066,29.711866344932794,67.83615327304322,72.66289850444235,48.828125000000014,86.80354506601739" fill-opacity="0.25" fill="#ff00ff"/></g><g stroke-opacity="1" stroke="#ff00ff" transform="matrix(1,0,0,1,852.3957431846951,201.89006380268336)"><path d="M103.36832922336421,24.362201903060914C103.37654145233303,47.56832189246797,57.9862541964326,42.925698920680404,24.525090553872698,52.96079749322426C-8.936073088687206,62.99589606576812,-73.56277635893782,89.95117582422156,-97.39865263199519,84.57279333832409C-121.23452890505256,79.19441085242661,-123.24533558789932,45.53346351698818,-118.49016708447151,20.69050257783944C-113.7349985810437,-4.1524583613093,-92.69530565551688,-46.657234793058755,-68.86764161142833,-64.48497229656834C-45.039977567339776,-82.31270980007793,-4.230177959072279,-101.08378480982297,24.47581718005981,-86.27592244321809C53.1818123191919,-71.46806007661321,103.3601169943954,1.156081913653857,103.36832922336421,24.362201903060914C103.37654145233303,47.56832189246797,57.9862541964326,42.925698920680404,24.525090553872698,52.96079749322426" fill-opacity="0.25" fill="#ff00ff"/></g><g stroke-opacity="1" stroke="#ff00ff" transform="matrix(1,0,0,1,853.3452047288991,346.27057424639224)"><path d="M117.65450385563669,-18.50773078353579C112.2239252357113,5.819259929924787,69.42177283925335,62.842146455412376,38.26466506182971,76.89375106899303C7.107557284406063,90.94535568257368,-39.62388446035577,76.43541887092726,-69.2881428089052,65.8018968979481C-98.95240115745464,55.16837492496894,-147.19123417842314,38.373875304795064,-139.72088502946693,13.092619231118064C-132.2505358805107,-12.188636842558935,-59.56088488364273,-72.19217080363248,-24.466047915167906,-85.8856395441139C10.628789053306917,-99.57910828459532,47.16137815291458,-80.29784467186681,70.84813678138201,-69.06819321177046C94.53489540984944,-57.838541751674114,123.08508247556207,-42.834721496996366,117.65450385563669,-18.50773078353579C112.2239252357113,5.819259929924787,69.42177283925335,62.842146455412376,38.26466506182971,76.89375106899303" fill-opacity="0.25" fill="#ff00ff"/></g><g stroke-opacity="1" stroke="#ff00ff" transform="matrix(1,0,0,1,819.7849646510016,473.11977277345704)"><path d="M83.30632520669269,-9.356575283026238C85.42667107693342,22.86516285577074,84.18142357486028,86.43578576888301,61.550200221444335,108.59623991515548C38.9189768680284,130.75669406142794,-24.05188884916614,142.10567914213954,-52.4810149138029,123.60614959460855C-80.91014097843967,105.10662004707757,-109.62198763538132,29.707454825742374,-109.02455616637624,-2.4009373700304337C-108.42712469737117,-34.50932956580324,-75.20520629416852,-55.321994988762306,-48.89642609977249,-69.0442035800283C-22.58764590537646,-82.76641217129429,26.794333115589072,-94.68212696712672,48.828124999999936,-84.73418891762638C70.8619168844108,-74.78625086812605,81.18597933645196,-41.57831342182322,83.30632520669269,-9.356575283026238C85.42667107693342,22.86516285577074,84.18142357486028,86.43578576888301,61.550200221444335,108.59623991515548" fill-opacity="0.25" fill="#ff00ff"/></g></svg>