<svg xmlns="http://www.w3.org/2000/svg" version="1.1" xmlns:xlink="http://www.w3.org/1999/xlink" xmlns:svgjs="http://svgjs.dev/svgjs" width="1440" height="560" preserveAspectRatio="none" viewBox="0 0 1440 560"><g mask="url(&quot;#SvgjsMask1029&quot;)" fill="none"><rect width="1440" height="560" x="0" y="0" fill="url(&quot;#SvgjsLinearGradient1030&quot;)"></rect><path d="M-73.8 374.99L-73.8 374.99" stroke="rgba(143, 52, 143, 1)" stroke-width="1.5"></path><path d="M-73.8 374.99L39.77 352.35" stroke="rgba(143, 52, 143, 1)" stroke-width="1.5"></path><path d="M-73.8 374.99L-60.57 550.22" stroke="rgba(143, 52, 143, 1)" stroke-width="1.5"></path><path d="M-73.8 374.99L106.01 510.27" stroke="rgba(143, 52, 143, 1)" stroke-width="1.5"></path><path d="M-73.8 374.99L-54.49 644.13" stroke="rgba(143, 52, 143, 1)" stroke-width="1.5"></path><path d="M-73.8 374.99L214.79 380.65" stroke="rgba(143, 52, 143, 1)" stroke-width="1.5"></path><path d="M-73.8 374.99L235.45 511.08" stroke="rgba(143, 52, 143, 1)" stroke-width="1.5"></path><path d="M-60.57 550.22L-60.57 550.22" stroke="rgba(143, 52, 143, 1)" stroke-width="1.5"></path><path d="M-60.57 550.22L-54.49 644.13" stroke="rgba(143, 52, 143, 1)" stroke-width="1.5"></path><path d="M-60.57 550.22L106.01 510.27" stroke="rgba(143, 52, 143, 1)" stroke-width="1.5"></path><path d="M-54.49 644.13L-54.49 644.13" stroke="rgba(143, 52, 143, 1)" stroke-width="1.5"></path><path d="M-54.49 644.13L84.01 692.21" stroke="rgba(143, 52, 143, 1)" stroke-width="1.5"></path><path d="M-54.49 644.13L106.01 510.27" stroke="rgba(143, 52, 143, 1)" stroke-width="1.5"></path><path d="M-54.49 644.13L220.4 708.66" stroke="rgba(143, 52, 143, 1)" stroke-width="1.5"></path><path d="M-54.49 644.13L39.77 352.35" stroke="rgba(143, 52, 143, 1)" stroke-width="1.5"></path><path d="M39.77 352.35L39.77 352.35" stroke="rgba(143, 52, 143, 1)" stroke-width="1.5"></path><path d="M39.77 352.35L106.01 510.27" stroke="rgba(143, 52, 143, 1)" stroke-width="1.5"></path><path d="M39.77 352.35L214.79 380.65" stroke="rgba(143, 52, 143, 1)" stroke-width="1.5"></path><path d="M39.77 352.35L-60.57 550.22" stroke="rgba(143, 52, 143, 1)" stroke-width="1.5"></path><path d="M39.77 352.35L235.45 511.08" stroke="rgba(143, 52, 143, 1)" stroke-width="1.5"></path><path d="M106.01 510.27L106.01 510.27" stroke="rgba(143, 52, 143, 1)" stroke-width="1.5"></path><path d="M106.01 510.27L235.45 511.08" stroke="rgba(143, 52, 143, 1)" stroke-width="1.5"></path><path d="M106.01 510.27L214.79 380.65" stroke="rgba(143, 52, 143, 1)" stroke-width="1.5"></path><path d="M106.01 510.27L84.01 692.21" stroke="rgba(143, 52, 143, 1)" stroke-width="1.5"></path><path d="M84.01 692.21L84.01 692.21" stroke="rgba(143, 52, 143, 1)" stroke-width="1.5"></path><path d="M84.01 692.21L220.4 708.66" stroke="rgba(143, 52, 143, 1)" stroke-width="1.5"></path><path d="M84.01 692.21L-60.57 550.22" stroke="rgba(143, 52, 143, 1)" stroke-width="1.5"></path><path d="M214.79 380.65L214.79 380.65" stroke="rgba(143, 52, 143, 1)" stroke-width="1.5"></path><path d="M214.79 380.65L341.47 400.82" stroke="rgba(143, 52, 143, 1)" stroke-width="1.5"></path><path d="M214.79 380.65L235.45 511.08" stroke="rgba(143, 52, 143, 1)" stroke-width="1.5"></path><path d="M235.45 511.08L235.45 511.08" stroke="rgba(143, 52, 143, 1)" stroke-width="1.5"></path><path d="M235.45 511.08L372.73 512.71" stroke="rgba(143, 52, 143, 1)" stroke-width="1.5"></path><path d="M235.45 511.08L341.47 400.82" stroke="rgba(143, 52, 143, 1)" stroke-width="1.5"></path><path d="M235.45 511.08L220.4 708.66" stroke="rgba(143, 52, 143, 1)" stroke-width="1.5"></path><path d="M220.4 708.66L220.4 708.66" stroke="rgba(143, 52, 143, 1)" stroke-width="1.5"></path><path d="M220.4 708.66L356.05 682.59" stroke="rgba(143, 52, 143, 1)" stroke-width="1.5"></path><path d="M220.4 708.66L106.01 510.27" stroke="rgba(143, 52, 143, 1)" stroke-width="1.5"></path><path d="M341.47 400.82L341.47 400.82" stroke="rgba(143, 52, 143, 1)" stroke-width="1.5"></path><path d="M341.47 400.82L372.73 512.71" stroke="rgba(143, 52, 143, 1)" stroke-width="1.5"></path><path d="M372.73 512.71L372.73 512.71" stroke="rgba(143, 52, 143, 1)" stroke-width="1.5"></path><path d="M372.73 512.71L488.64 492.96" stroke="rgba(143, 52, 143, 1)" stroke-width="1.5"></path><path d="M372.73 512.71L356.05 682.59" stroke="rgba(143, 52, 143, 1)" stroke-width="1.5"></path><path d="M372.73 512.71L214.79 380.65" stroke="rgba(143, 52, 143, 1)" stroke-width="1.5"></path><path d="M372.73 512.71L550.44 378.79" stroke="rgba(143, 52, 143, 1)" stroke-width="1.5"></path><path d="M356.05 682.59L356.05 682.59" stroke="rgba(143, 52, 143, 1)" stroke-width="1.5"></path><path d="M356.05 682.59L235.45 511.08" stroke="rgba(143, 52, 143, 1)" stroke-width="1.5"></path><path d="M550.44 378.79L550.44 378.79" stroke="rgba(143, 52, 143, 1)" stroke-width="1.5"></path><path d="M550.44 378.79L488.64 492.96" stroke="rgba(143, 52, 143, 1)" stroke-width="1.5"></path><path d="M550.44 378.79L693.24 411.32" stroke="rgba(143, 52, 143, 1)" stroke-width="1.5"></path><path d="M550.44 378.79L653.74 536.38" stroke="rgba(143, 52, 143, 1)" stroke-width="1.5"></path><path d="M550.44 378.79L687.53 246.65" stroke="rgba(143, 52, 143, 1)" stroke-width="1.5"></path><path d="M550.44 378.79L341.47 400.82" stroke="rgba(143, 52, 143, 1)" stroke-width="1.5"></path><path d="M488.64 492.96L488.64 492.96" stroke="rgba(143, 52, 143, 1)" stroke-width="1.5"></path><path d="M687.53 246.65L687.53 246.65" stroke="rgba(143, 52, 143, 1)" stroke-width="1.5"></path><path d="M687.53 246.65L809.44 212.75" stroke="rgba(143, 52, 143, 1)" stroke-width="1.5"></path><path d="M687.53 246.65L693.24 411.32" stroke="rgba(143, 52, 143, 1)" stroke-width="1.5"></path><path d="M687.53 246.65L855.91 364.04" stroke="rgba(143, 52, 143, 1)" stroke-width="1.5"></path><path d="M693.24 411.32L693.24 411.32" stroke="rgba(143, 52, 143, 1)" stroke-width="1.5"></path><path d="M693.24 411.32L653.74 536.38" stroke="rgba(143, 52, 143, 1)" stroke-width="1.5"></path><path d="M653.74 536.38L653.74 536.38" stroke="rgba(143, 52, 143, 1)" stroke-width="1.5"></path><path d="M653.74 536.38L683.87 655.27" stroke="rgba(143, 52, 143, 1)" stroke-width="1.5"></path><path d="M653.74 536.38L488.64 492.96" stroke="rgba(143, 52, 143, 1)" stroke-width="1.5"></path><path d="M653.74 536.38L824.45 643.19" stroke="rgba(143, 52, 143, 1)" stroke-width="1.5"></path><path d="M683.87 655.27L683.87 655.27" stroke="rgba(143, 52, 143, 1)" stroke-width="1.5"></path><path d="M683.87 655.27L824.45 643.19" stroke="rgba(143, 52, 143, 1)" stroke-width="1.5"></path><path d="M809.44 212.75L809.44 212.75" stroke="rgba(143, 52, 143, 1)" stroke-width="1.5"></path><path d="M809.44 212.75L855.91 364.04" stroke="rgba(143, 52, 143, 1)" stroke-width="1.5"></path><path d="M809.44 212.75L967.83 214.63" stroke="rgba(143, 52, 143, 1)" stroke-width="1.5"></path><path d="M809.44 212.75L982.84 345.76" stroke="rgba(143, 52, 143, 1)" stroke-width="1.5"></path><path d="M809.44 212.75L693.24 411.32" stroke="rgba(143, 52, 143, 1)" stroke-width="1.5"></path><path d="M809.44 212.75L861.18 514.77" stroke="rgba(143, 52, 143, 1)" stroke-width="1.5"></path><path d="M855.91 364.04L855.91 364.04" stroke="rgba(143, 52, 143, 1)" stroke-width="1.5"></path><path d="M855.91 364.04L982.84 345.76" stroke="rgba(143, 52, 143, 1)" stroke-width="1.5"></path><path d="M855.91 364.04L861.18 514.77" stroke="rgba(143, 52, 143, 1)" stroke-width="1.5"></path><path d="M855.91 364.04L693.24 411.32" stroke="rgba(143, 52, 143, 1)" stroke-width="1.5"></path><path d="M855.91 364.04L967.83 214.63" stroke="rgba(143, 52, 143, 1)" stroke-width="1.5"></path><path d="M861.18 514.77L861.18 514.77" stroke="rgba(143, 52, 143, 1)" stroke-width="1.5"></path><path d="M861.18 514.77L986.91 543.91" stroke="rgba(143, 52, 143, 1)" stroke-width="1.5"></path><path d="M861.18 514.77L824.45 643.19" stroke="rgba(143, 52, 143, 1)" stroke-width="1.5"></path><path d="M824.45 643.19L824.45 643.19" stroke="rgba(143, 52, 143, 1)" stroke-width="1.5"></path><path d="M824.45 643.19L979.47 698.19" stroke="rgba(143, 52, 143, 1)" stroke-width="1.5"></path><path d="M967.83 214.63L967.83 214.63" stroke="rgba(143, 52, 143, 1)" stroke-width="1.5"></path><path d="M967.83 214.63L982.84 345.76" stroke="rgba(143, 52, 143, 1)" stroke-width="1.5"></path><path d="M967.83 214.63L1126.24 262.27" stroke="rgba(143, 52, 143, 1)" stroke-width="1.5"></path><path d="M982.84 345.76L982.84 345.76" stroke="rgba(143, 52, 143, 1)" stroke-width="1.5"></path><path d="M982.84 345.76L1141.56 390.72" stroke="rgba(143, 52, 143, 1)" stroke-width="1.5"></path><path d="M982.84 345.76L1126.24 262.27" stroke="rgba(143, 52, 143, 1)" stroke-width="1.5"></path><path d="M982.84 345.76L986.91 543.91" stroke="rgba(143, 52, 143, 1)" stroke-width="1.5"></path><path d="M986.91 543.91L986.91 543.91" stroke="rgba(143, 52, 143, 1)" stroke-width="1.5"></path><path d="M986.91 543.91L979.47 698.19" stroke="rgba(143, 52, 143, 1)" stroke-width="1.5"></path><path d="M986.91 543.91L1156.71 541.7" stroke="rgba(143, 52, 143, 1)" stroke-width="1.5"></path><path d="M979.47 698.19L979.47 698.19" stroke="rgba(143, 52, 143, 1)" stroke-width="1.5"></path><path d="M1133.14 -88.51L1133.14 -88.51" stroke="rgba(143, 52, 143, 1)" stroke-width="1.5"></path><path d="M1133.14 -88.51L1284.49 -102.92" stroke="rgba(143, 52, 143, 1)" stroke-width="1.5"></path><path d="M1133.14 -88.51L1129.48 87.91" stroke="rgba(143, 52, 143, 1)" stroke-width="1.5"></path><path d="M1133.14 -88.51L1294.15 38.05" stroke="rgba(143, 52, 143, 1)" stroke-width="1.5"></path><path d="M1133.14 -88.51L1408.49 -40.01" stroke="rgba(143, 52, 143, 1)" stroke-width="1.5"></path><path d="M1129.48 87.91L1129.48 87.91" stroke="rgba(143, 52, 143, 1)" stroke-width="1.5"></path><path d="M1129.48 87.91L1294.15 38.05" stroke="rgba(143, 52, 143, 1)" stroke-width="1.5"></path><path d="M1129.48 87.91L1126.24 262.27" stroke="rgba(143, 52, 143, 1)" stroke-width="1.5"></path><path d="M1126.24 262.27L1126.24 262.27" stroke="rgba(143, 52, 143, 1)" stroke-width="1.5"></path><path d="M1126.24 262.27L1253.33 259" stroke="rgba(143, 52, 143, 1)" stroke-width="1.5"></path><path d="M1126.24 262.27L1141.56 390.72" stroke="rgba(143, 52, 143, 1)" stroke-width="1.5"></path><path d="M1141.56 390.72L1141.56 390.72" stroke="rgba(143, 52, 143, 1)" stroke-width="1.5"></path><path d="M1141.56 390.72L1251.36 402.45" stroke="rgba(143, 52, 143, 1)" stroke-width="1.5"></path><path d="M1156.71 541.7L1156.71 541.7" stroke="rgba(143, 52, 143, 1)" stroke-width="1.5"></path><path d="M1156.71 541.7L1161.97 678" stroke="rgba(143, 52, 143, 1)" stroke-width="1.5"></path><path d="M1156.71 541.7L1286.03 493.28" stroke="rgba(143, 52, 143, 1)" stroke-width="1.5"></path><path d="M1156.71 541.7L1141.56 390.72" stroke="rgba(143, 52, 143, 1)" stroke-width="1.5"></path><path d="M1156.71 541.7L1251.36 402.45" stroke="rgba(143, 52, 143, 1)" stroke-width="1.5"></path><path d="M1156.71 541.7L1275.34 707.48" stroke="rgba(143, 52, 143, 1)" stroke-width="1.5"></path><path d="M1161.97 678L1161.97 678" stroke="rgba(143, 52, 143, 1)" stroke-width="1.5"></path><path d="M1161.97 678L1275.34 707.48" stroke="rgba(143, 52, 143, 1)" stroke-width="1.5"></path><path d="M1161.97 678L979.47 698.19" stroke="rgba(143, 52, 143, 1)" stroke-width="1.5"></path><path d="M1161.97 678L986.91 543.91" stroke="rgba(143, 52, 143, 1)" stroke-width="1.5"></path><path d="M1161.97 678L1286.03 493.28" stroke="rgba(143, 52, 143, 1)" stroke-width="1.5"></path><path d="M1161.97 678L1432.95 664.46" stroke="rgba(143, 52, 143, 1)" stroke-width="1.5"></path><path d="M1284.49 -102.92L1284.49 -102.92" stroke="rgba(143, 52, 143, 1)" stroke-width="1.5"></path><path d="M1284.49 -102.92L1408.49 -40.01" stroke="rgba(143, 52, 143, 1)" stroke-width="1.5"></path><path d="M1284.49 -102.92L1294.15 38.05" stroke="rgba(143, 52, 143, 1)" stroke-width="1.5"></path><path d="M1284.49 -102.92L1410.4 62.32" stroke="rgba(143, 52, 143, 1)" stroke-width="1.5"></path><path d="M1284.49 -102.92L1129.48 87.91" stroke="rgba(143, 52, 143, 1)" stroke-width="1.5"></path><path d="M1294.15 38.05L1294.15 38.05" stroke="rgba(143, 52, 143, 1)" stroke-width="1.5"></path><path d="M1294.15 38.05L1410.4 62.32" stroke="rgba(143, 52, 143, 1)" stroke-width="1.5"></path><path d="M1294.15 38.05L1408.49 -40.01" stroke="rgba(143, 52, 143, 1)" stroke-width="1.5"></path><path d="M1253.33 259L1253.33 259" stroke="rgba(143, 52, 143, 1)" stroke-width="1.5"></path><path d="M1253.33 259L1251.36 402.45" stroke="rgba(143, 52, 143, 1)" stroke-width="1.5"></path><path d="M1251.36 402.45L1251.36 402.45" stroke="rgba(143, 52, 143, 1)" stroke-width="1.5"></path><path d="M1251.36 402.45L1286.03 493.28" stroke="rgba(143, 52, 143, 1)" stroke-width="1.5"></path><path d="M1286.03 493.28L1286.03 493.28" stroke="rgba(143, 52, 143, 1)" stroke-width="1.5"></path><path d="M1286.03 493.28L1449.78 503.45" stroke="rgba(143, 52, 143, 1)" stroke-width="1.5"></path><path d="M1286.03 493.28L1141.56 390.72" stroke="rgba(143, 52, 143, 1)" stroke-width="1.5"></path><path d="M1286.03 493.28L1433.3 374.89" stroke="rgba(143, 52, 143, 1)" stroke-width="1.5"></path><path d="M1275.34 707.48L1275.34 707.48" stroke="rgba(143, 52, 143, 1)" stroke-width="1.5"></path><path d="M1275.34 707.48L1432.95 664.46" stroke="rgba(143, 52, 143, 1)" stroke-width="1.5"></path><path d="M1275.34 707.48L1286.03 493.28" stroke="rgba(143, 52, 143, 1)" stroke-width="1.5"></path><path d="M1275.34 707.48L1449.78 503.45" stroke="rgba(143, 52, 143, 1)" stroke-width="1.5"></path><path d="M1275.34 707.48L1548.1 643.16" stroke="rgba(143, 52, 143, 1)" stroke-width="1.5"></path><path d="M1408.49 -40.01L1408.49 -40.01" stroke="rgba(143, 52, 143, 1)" stroke-width="1.5"></path><path d="M1408.49 -40.01L1410.4 62.32" stroke="rgba(143, 52, 143, 1)" stroke-width="1.5"></path><path d="M1410.4 62.32L1410.4 62.32" stroke="rgba(143, 52, 143, 1)" stroke-width="1.5"></path><path d="M1410.4 62.32L1437.22 189.16" stroke="rgba(143, 52, 143, 1)" stroke-width="1.5"></path><path d="M1410.4 62.32L1582.7 45.7" stroke="rgba(143, 52, 143, 1)" stroke-width="1.5"></path><path d="M1410.4 62.32L1253.33 259" stroke="rgba(143, 52, 143, 1)" stroke-width="1.5"></path><path d="M1437.22 189.16L1437.22 189.16" stroke="rgba(143, 52, 143, 1)" stroke-width="1.5"></path><path d="M1437.22 189.16L1588.99 244.72" stroke="rgba(143, 52, 143, 1)" stroke-width="1.5"></path><path d="M1437.22 189.16L1433.3 374.89" stroke="rgba(143, 52, 143, 1)" stroke-width="1.5"></path><path d="M1433.3 374.89L1433.3 374.89" stroke="rgba(143, 52, 143, 1)" stroke-width="1.5"></path><path d="M1433.3 374.89L1449.78 503.45" stroke="rgba(143, 52, 143, 1)" stroke-width="1.5"></path><path d="M1433.3 374.89L1568.11 400.65" stroke="rgba(143, 52, 143, 1)" stroke-width="1.5"></path><path d="M1433.3 374.89L1539.69 500.85" stroke="rgba(143, 52, 143, 1)" stroke-width="1.5"></path><path d="M1433.3 374.89L1251.36 402.45" stroke="rgba(143, 52, 143, 1)" stroke-width="1.5"></path><path d="M1449.78 503.45L1449.78 503.45" stroke="rgba(143, 52, 143, 1)" stroke-width="1.5"></path><path d="M1449.78 503.45L1539.69 500.85" stroke="rgba(143, 52, 143, 1)" stroke-width="1.5"></path><path d="M1432.95 664.46L1432.95 664.46" stroke="rgba(143, 52, 143, 1)" stroke-width="1.5"></path><path d="M1432.95 664.46L1548.1 643.16" stroke="rgba(143, 52, 143, 1)" stroke-width="1.5"></path><path d="M1432.95 664.46L1449.78 503.45" stroke="rgba(143, 52, 143, 1)" stroke-width="1.5"></path><path d="M1432.95 664.46L1539.69 500.85" stroke="rgba(143, 52, 143, 1)" stroke-width="1.5"></path><path d="M1432.95 664.46L1286.03 493.28" stroke="rgba(143, 52, 143, 1)" stroke-width="1.5"></path><path d="M1582.7 45.7L1582.7 45.7" stroke="rgba(143, 52, 143, 1)" stroke-width="1.5"></path><path d="M1582.7 45.7L1408.49 -40.01" stroke="rgba(143, 52, 143, 1)" stroke-width="1.5"></path><path d="M1582.7 45.7L1588.99 244.72" stroke="rgba(143, 52, 143, 1)" stroke-width="1.5"></path><path d="M1582.7 45.7L1437.22 189.16" stroke="rgba(143, 52, 143, 1)" stroke-width="1.5"></path><path d="M1582.7 45.7L1294.15 38.05" stroke="rgba(143, 52, 143, 1)" stroke-width="1.5"></path><path d="M1588.99 244.72L1588.99 244.72" stroke="rgba(143, 52, 143, 1)" stroke-width="1.5"></path><path d="M1588.99 244.72L1568.11 400.65" stroke="rgba(143, 52, 143, 1)" stroke-width="1.5"></path><path d="M1568.11 400.65L1568.11 400.65" stroke="rgba(143, 52, 143, 1)" stroke-width="1.5"></path><path d="M1568.11 400.65L1539.69 500.85" stroke="rgba(143, 52, 143, 1)" stroke-width="1.5"></path><path d="M1568.11 400.65L1449.78 503.45" stroke="rgba(143, 52, 143, 1)" stroke-width="1.5"></path><path d="M1568.11 400.65L1548.1 643.16" stroke="rgba(143, 52, 143, 1)" stroke-width="1.5"></path><path d="M1539.69 500.85L1539.69 500.85" stroke="rgba(143, 52, 143, 1)" stroke-width="1.5"></path><path d="M1539.69 500.85L1548.1 643.16" stroke="rgba(143, 52, 143, 1)" stroke-width="1.5"></path><path d="M1548.1 643.16L1548.1 643.16" stroke="rgba(143, 52, 143, 1)" stroke-width="1.5"></path><path d="M1548.1 643.16L1449.78 503.45" stroke="rgba(143, 52, 143, 1)" stroke-width="1.5"></path><circle r="5" cx="-73.8" cy="374.99" fill="rgba(143, 52, 143, 1)"></circle><circle r="5" cx="-60.57" cy="550.22" fill="rgba(143, 52, 143, 1)"></circle><circle r="5" cx="-54.49" cy="644.13" fill="rgba(143, 52, 143, 1)"></circle><circle r="5" cx="39.77" cy="352.35" fill="rgba(143, 52, 143, 1)"></circle><circle r="5" cx="106.01" cy="510.27" fill="rgba(143, 52, 143, 1)"></circle><circle r="5" cx="84.01" cy="692.21" fill="rgba(143, 52, 143, 1)"></circle><circle r="5" cx="214.79" cy="380.65" fill="rgba(143, 52, 143, 1)"></circle><circle r="5" cx="235.45" cy="511.08" fill="rgba(143, 52, 143, 1)"></circle><circle r="5" cx="220.4" cy="708.66" fill="rgba(143, 52, 143, 1)"></circle><circle r="5" cx="341.47" cy="400.82" fill="rgba(143, 52, 143, 1)"></circle><circle r="5" cx="372.73" cy="512.71" fill="rgba(143, 52, 143, 1)"></circle><circle r="5" cx="356.05" cy="682.59" fill="rgba(143, 52, 143, 1)"></circle><circle r="5" cx="550.44" cy="378.79" fill="rgba(143, 52, 143, 1)"></circle><circle r="5" cx="488.64" cy="492.96" fill="rgba(143, 52, 143, 1)"></circle><circle r="5" cx="687.53" cy="246.65" fill="rgba(143, 52, 143, 1)"></circle><circle r="5" cx="693.24" cy="411.32" fill="rgba(143, 52, 143, 1)"></circle><circle r="5" cx="653.74" cy="536.38" fill="rgba(143, 52, 143, 1)"></circle><circle r="5" cx="683.87" cy="655.27" fill="rgba(143, 52, 143, 1)"></circle><circle r="5" cx="809.44" cy="212.75" fill="rgba(143, 52, 143, 1)"></circle><circle r="5" cx="855.91" cy="364.04" fill="rgba(143, 52, 143, 1)"></circle><circle r="5" cx="861.18" cy="514.77" fill="rgba(143, 52, 143, 1)"></circle><circle r="5" cx="824.45" cy="643.19" fill="rgba(143, 52, 143, 1)"></circle><circle r="5" cx="967.83" cy="214.63" fill="rgba(143, 52, 143, 1)"></circle><circle r="5" cx="982.84" cy="345.76" fill="rgba(143, 52, 143, 1)"></circle><circle r="5" cx="986.91" cy="543.91" fill="rgba(143, 52, 143, 1)"></circle><circle r="5" cx="979.47" cy="698.19" fill="rgba(143, 52, 143, 1)"></circle><circle r="5" cx="1133.14" cy="-88.51" fill="rgba(143, 52, 143, 1)"></circle><circle r="5" cx="1129.48" cy="87.91" fill="rgba(143, 52, 143, 1)"></circle><circle r="5" cx="1126.24" cy="262.27" fill="rgba(143, 52, 143, 1)"></circle><circle r="5" cx="1141.56" cy="390.72" fill="rgba(143, 52, 143, 1)"></circle><circle r="5" cx="1156.71" cy="541.7" fill="rgba(143, 52, 143, 1)"></circle><circle r="5" cx="1161.97" cy="678" fill="rgba(143, 52, 143, 1)"></circle><circle r="5" cx="1284.49" cy="-102.92" fill="rgba(143, 52, 143, 1)"></circle><circle r="5" cx="1294.15" cy="38.05" fill="rgba(143, 52, 143, 1)"></circle><circle r="5" cx="1253.33" cy="259" fill="rgba(143, 52, 143, 1)"></circle><circle r="5" cx="1251.36" cy="402.45" fill="rgba(143, 52, 143, 1)"></circle><circle r="5" cx="1286.03" cy="493.28" fill="rgba(143, 52, 143, 1)"></circle><circle r="5" cx="1275.34" cy="707.48" fill="rgba(143, 52, 143, 1)"></circle><circle r="5" cx="1408.49" cy="-40.01" fill="rgba(143, 52, 143, 1)"></circle><circle r="5" cx="1410.4" cy="62.32" fill="rgba(143, 52, 143, 1)"></circle><circle r="5" cx="1437.22" cy="189.16" fill="rgba(143, 52, 143, 1)"></circle><circle r="5" cx="1433.3" cy="374.89" fill="rgba(143, 52, 143, 1)"></circle><circle r="5" cx="1449.78" cy="503.45" fill="rgba(143, 52, 143, 1)"></circle><circle r="5" cx="1432.95" cy="664.46" fill="rgba(143, 52, 143, 1)"></circle><circle r="5" cx="1582.7" cy="45.7" fill="rgba(143, 52, 143, 1)"></circle><circle r="5" cx="1588.99" cy="244.72" fill="rgba(143, 52, 143, 1)"></circle><circle r="5" cx="1568.11" cy="400.65" fill="rgba(143, 52, 143, 1)"></circle><circle r="5" cx="1539.69" cy="500.85" fill="rgba(143, 52, 143, 1)"></circle><circle r="5" cx="1548.1" cy="643.16" fill="rgba(143, 52, 143, 1)"></circle><path d="M227.26 496.74L227.26 496.74" stroke="hsl(300, 100%, 65%)" stroke-width="1.5"></path><path d="M227.26 496.74L342.48 488.74" stroke="hsl(300, 100%, 65%)" stroke-width="1.5"></path><path d="M227.26 496.74L224.87 664.21" stroke="hsl(300, 100%, 65%)" stroke-width="1.5"></path><path d="M227.26 496.74L39.66 526.77" stroke="hsl(300, 100%, 65%)" stroke-width="1.5"></path><path d="M227.26 496.74L338.82 689.3" stroke="hsl(300, 100%, 65%)" stroke-width="1.5"></path><path d="M227.26 496.74L53.12 689.01" stroke="hsl(300, 100%, 65%)" stroke-width="1.5"></path><path d="M227.26 496.74L513.02 513.02" stroke="hsl(300, 100%, 65%)" stroke-width="1.5"></path><path d="M342.48 488.74L342.48 488.74" stroke="hsl(300, 100%, 65%)" stroke-width="1.5"></path><path d="M342.48 488.74L513.02 513.02" stroke="hsl(300, 100%, 65%)" stroke-width="1.5"></path><path d="M342.48 488.74L338.82 689.3" stroke="hsl(300, 100%, 65%)" stroke-width="1.5"></path><path d="M342.48 488.74L224.87 664.21" stroke="hsl(300, 100%, 65%)" stroke-width="1.5"></path><path d="M825.41 559.4L825.41 559.4" stroke="hsl(300, 100%, 65%)" stroke-width="1.5"></path><path d="M825.41 559.4L839.38 666.66" stroke="hsl(300, 100%, 65%)" stroke-width="1.5"></path><path d="M1565.05 75.44L1565.05 75.44" stroke="hsl(300, 100%, 65%)" stroke-width="1.5"></path><path d="M1565.05 75.44L1560.57 -48.85" stroke="hsl(300, 100%, 65%)" stroke-width="1.5"></path><path d="M1565.05 75.44L1552.56 218.11" stroke="hsl(300, 100%, 65%)" stroke-width="1.5"></path><path d="M1565.05 75.44L1401.35 96.7" stroke="hsl(300, 100%, 65%)" stroke-width="1.5"></path><path d="M1565.05 75.44L1418.51 225.59" stroke="hsl(300, 100%, 65%)" stroke-width="1.5"></path><path d="M-66.31 536.09L-66.31 536.09" stroke="hsl(300, 100%, 65%)" stroke-width="1.5"></path><path d="M-66.31 536.09L39.66 526.77" stroke="hsl(300, 100%, 65%)" stroke-width="1.5"></path><path d="M-66.31 536.09L-70.95 698.53" stroke="hsl(300, 100%, 65%)" stroke-width="1.5"></path><path d="M-66.31 536.09L53.12 689.01" stroke="hsl(300, 100%, 65%)" stroke-width="1.5"></path><path d="M-66.31 536.09L227.26 496.74" stroke="hsl(300, 100%, 65%)" stroke-width="1.5"></path><path d="M-70.95 698.53L-70.95 698.53" stroke="hsl(300, 100%, 65%)" stroke-width="1.5"></path><path d="M-70.95 698.53L53.12 689.01" stroke="hsl(300, 100%, 65%)" stroke-width="1.5"></path><path d="M-70.95 698.53L39.66 526.77" stroke="hsl(300, 100%, 65%)" stroke-width="1.5"></path><path d="M-70.95 698.53L224.87 664.21" stroke="hsl(300, 100%, 65%)" stroke-width="1.5"></path><path d="M-70.95 698.53L227.26 496.74" stroke="hsl(300, 100%, 65%)" stroke-width="1.5"></path><path d="M39.66 526.77L39.66 526.77" stroke="hsl(300, 100%, 65%)" stroke-width="1.5"></path><path d="M39.66 526.77L53.12 689.01" stroke="hsl(300, 100%, 65%)" stroke-width="1.5"></path><path d="M39.66 526.77L224.87 664.21" stroke="hsl(300, 100%, 65%)" stroke-width="1.5"></path><path d="M39.66 526.77L342.48 488.74" stroke="hsl(300, 100%, 65%)" stroke-width="1.5"></path><path d="M53.12 689.01L53.12 689.01" stroke="hsl(300, 100%, 65%)" stroke-width="1.5"></path><path d="M53.12 689.01L224.87 664.21" stroke="hsl(300, 100%, 65%)" stroke-width="1.5"></path><path d="M224.87 664.21L224.87 664.21" stroke="hsl(300, 100%, 65%)" stroke-width="1.5"></path><path d="M224.87 664.21L338.82 689.3" stroke="hsl(300, 100%, 65%)" stroke-width="1.5"></path><path d="M224.87 664.21L504.6 699.17" stroke="hsl(300, 100%, 65%)" stroke-width="1.5"></path><path d="M338.82 689.3L338.82 689.3" stroke="hsl(300, 100%, 65%)" stroke-width="1.5"></path><path d="M338.82 689.3L504.6 699.17" stroke="hsl(300, 100%, 65%)" stroke-width="1.5"></path><path d="M513.02 513.02L513.02 513.02" stroke="hsl(300, 100%, 65%)" stroke-width="1.5"></path><path d="M513.02 513.02L675.97 517.74" stroke="hsl(300, 100%, 65%)" stroke-width="1.5"></path><path d="M513.02 513.02L504.6 699.17" stroke="hsl(300, 100%, 65%)" stroke-width="1.5"></path><path d="M504.6 699.17L504.6 699.17" stroke="hsl(300, 100%, 65%)" stroke-width="1.5"></path><path d="M504.6 699.17L675.97 517.74" stroke="hsl(300, 100%, 65%)" stroke-width="1.5"></path><path d="M504.6 699.17L342.48 488.74" stroke="hsl(300, 100%, 65%)" stroke-width="1.5"></path><path d="M706.28 395.25L706.28 395.25" stroke="hsl(300, 100%, 65%)" stroke-width="1.5"></path><path d="M706.28 395.25L675.97 517.74" stroke="hsl(300, 100%, 65%)" stroke-width="1.5"></path><path d="M706.28 395.25L838.8 405.1" stroke="hsl(300, 100%, 65%)" stroke-width="1.5"></path><path d="M706.28 395.25L825.41 559.4" stroke="hsl(300, 100%, 65%)" stroke-width="1.5"></path><path d="M706.28 395.25L513.02 513.02" stroke="hsl(300, 100%, 65%)" stroke-width="1.5"></path><path d="M675.97 517.74L675.97 517.74" stroke="hsl(300, 100%, 65%)" stroke-width="1.5"></path><path d="M675.97 517.74L825.41 559.4" stroke="hsl(300, 100%, 65%)" stroke-width="1.5"></path><path d="M838.8 405.1L838.8 405.1" stroke="hsl(300, 100%, 65%)" stroke-width="1.5"></path><path d="M838.8 405.1L969.07 410.56" stroke="hsl(300, 100%, 65%)" stroke-width="1.5"></path><path d="M839.38 666.66L839.38 666.66" stroke="hsl(300, 100%, 65%)" stroke-width="1.5"></path><path d="M839.38 666.66L1009.84 710.65" stroke="hsl(300, 100%, 65%)" stroke-width="1.5"></path><path d="M839.38 666.66L1002.61 549.25" stroke="hsl(300, 100%, 65%)" stroke-width="1.5"></path><path d="M1000.98 238.88L1000.98 238.88" stroke="hsl(300, 100%, 65%)" stroke-width="1.5"></path><path d="M1000.98 238.88L1145.62 227.71" stroke="hsl(300, 100%, 65%)" stroke-width="1.5"></path><path d="M1000.98 238.88L969.07 410.56" stroke="hsl(300, 100%, 65%)" stroke-width="1.5"></path><path d="M1000.98 238.88L838.8 405.1" stroke="hsl(300, 100%, 65%)" stroke-width="1.5"></path><path d="M969.07 410.56L969.07 410.56" stroke="hsl(300, 100%, 65%)" stroke-width="1.5"></path><path d="M969.07 410.56L1002.61 549.25" stroke="hsl(300, 100%, 65%)" stroke-width="1.5"></path><path d="M969.07 410.56L1118.91 551.04" stroke="hsl(300, 100%, 65%)" stroke-width="1.5"></path><path d="M969.07 410.56L825.41 559.4" stroke="hsl(300, 100%, 65%)" stroke-width="1.5"></path><path d="M1002.61 549.25L1002.61 549.25" stroke="hsl(300, 100%, 65%)" stroke-width="1.5"></path><path d="M1002.61 549.25L1118.91 551.04" stroke="hsl(300, 100%, 65%)" stroke-width="1.5"></path><path d="M1002.61 549.25L1116.51 652.15" stroke="hsl(300, 100%, 65%)" stroke-width="1.5"></path><path d="M1009.84 710.65L1009.84 710.65" stroke="hsl(300, 100%, 65%)" stroke-width="1.5"></path><path d="M1009.84 710.65L1116.51 652.15" stroke="hsl(300, 100%, 65%)" stroke-width="1.5"></path><path d="M1009.84 710.65L1002.61 549.25" stroke="hsl(300, 100%, 65%)" stroke-width="1.5"></path><path d="M1159.79 54.24L1159.79 54.24" stroke="hsl(300, 100%, 65%)" stroke-width="1.5"></path><path d="M1159.79 54.24L1145.62 227.71" stroke="hsl(300, 100%, 65%)" stroke-width="1.5"></path><path d="M1159.79 54.24L1302.57 -86.19" stroke="hsl(300, 100%, 65%)" stroke-width="1.5"></path><path d="M1159.79 54.24L1272.72 221.33" stroke="hsl(300, 100%, 65%)" stroke-width="1.5"></path><path d="M1145.62 227.71L1145.62 227.71" stroke="hsl(300, 100%, 65%)" stroke-width="1.5"></path><path d="M1145.62 227.71L1272.72 221.33" stroke="hsl(300, 100%, 65%)" stroke-width="1.5"></path><path d="M1145.62 227.71L1267.43 386.05" stroke="hsl(300, 100%, 65%)" stroke-width="1.5"></path><path d="M1145.62 227.71L969.07 410.56" stroke="hsl(300, 100%, 65%)" stroke-width="1.5"></path><path d="M1118.91 551.04L1118.91 551.04" stroke="hsl(300, 100%, 65%)" stroke-width="1.5"></path><path d="M1118.91 551.04L1116.51 652.15" stroke="hsl(300, 100%, 65%)" stroke-width="1.5"></path><path d="M1118.91 551.04L1264.9 512.22" stroke="hsl(300, 100%, 65%)" stroke-width="1.5"></path><path d="M1118.91 551.04L1009.84 710.65" stroke="hsl(300, 100%, 65%)" stroke-width="1.5"></path><path d="M1116.51 652.15L1116.51 652.15" stroke="hsl(300, 100%, 65%)" stroke-width="1.5"></path><path d="M1116.51 652.15L1298.5 668.88" stroke="hsl(300, 100%, 65%)" stroke-width="1.5"></path><path d="M1116.51 652.15L1264.9 512.22" stroke="hsl(300, 100%, 65%)" stroke-width="1.5"></path><path d="M1302.57 -86.19L1302.57 -86.19" stroke="hsl(300, 100%, 65%)" stroke-width="1.5"></path><path d="M1302.57 -86.19L1401.35 96.7" stroke="hsl(300, 100%, 65%)" stroke-width="1.5"></path><path d="M1272.72 221.33L1272.72 221.33" stroke="hsl(300, 100%, 65%)" stroke-width="1.5"></path><path d="M1272.72 221.33L1418.51 225.59" stroke="hsl(300, 100%, 65%)" stroke-width="1.5"></path><path d="M1272.72 221.33L1267.43 386.05" stroke="hsl(300, 100%, 65%)" stroke-width="1.5"></path><path d="M1272.72 221.33L1401.35 96.7" stroke="hsl(300, 100%, 65%)" stroke-width="1.5"></path><path d="M1272.72 221.33L1442.31 378.02" stroke="hsl(300, 100%, 65%)" stroke-width="1.5"></path><path d="M1267.43 386.05L1267.43 386.05" stroke="hsl(300, 100%, 65%)" stroke-width="1.5"></path><path d="M1267.43 386.05L1264.9 512.22" stroke="hsl(300, 100%, 65%)" stroke-width="1.5"></path><path d="M1267.43 386.05L1442.31 378.02" stroke="hsl(300, 100%, 65%)" stroke-width="1.5"></path><path d="M1264.9 512.22L1264.9 512.22" stroke="hsl(300, 100%, 65%)" stroke-width="1.5"></path><path d="M1264.9 512.22L1298.5 668.88" stroke="hsl(300, 100%, 65%)" stroke-width="1.5"></path><path d="M1298.5 668.88L1298.5 668.88" stroke="hsl(300, 100%, 65%)" stroke-width="1.5"></path><path d="M1298.5 668.88L1427.57 698.59" stroke="hsl(300, 100%, 65%)" stroke-width="1.5"></path><path d="M1298.5 668.88L1451.34 535.8" stroke="hsl(300, 100%, 65%)" stroke-width="1.5"></path><path d="M1298.5 668.88L1118.91 551.04" stroke="hsl(300, 100%, 65%)" stroke-width="1.5"></path><path d="M1401.35 96.7L1401.35 96.7" stroke="hsl(300, 100%, 65%)" stroke-width="1.5"></path><path d="M1401.35 96.7L1418.51 225.59" stroke="hsl(300, 100%, 65%)" stroke-width="1.5"></path><path d="M1401.35 96.7L1552.56 218.11" stroke="hsl(300, 100%, 65%)" stroke-width="1.5"></path><path d="M1418.51 225.59L1418.51 225.59" stroke="hsl(300, 100%, 65%)" stroke-width="1.5"></path><path d="M1442.31 378.02L1442.31 378.02" stroke="hsl(300, 100%, 65%)" stroke-width="1.5"></path><path d="M1442.31 378.02L1418.51 225.59" stroke="hsl(300, 100%, 65%)" stroke-width="1.5"></path><path d="M1442.31 378.02L1451.34 535.8" stroke="hsl(300, 100%, 65%)" stroke-width="1.5"></path><path d="M1442.31 378.02L1612.36 387" stroke="hsl(300, 100%, 65%)" stroke-width="1.5"></path><path d="M1442.31 378.02L1552.56 218.11" stroke="hsl(300, 100%, 65%)" stroke-width="1.5"></path><path d="M1442.31 378.02L1607.48 493.36" stroke="hsl(300, 100%, 65%)" stroke-width="1.5"></path><path d="M1451.34 535.8L1451.34 535.8" stroke="hsl(300, 100%, 65%)" stroke-width="1.5"></path><path d="M1427.57 698.59L1427.57 698.59" stroke="hsl(300, 100%, 65%)" stroke-width="1.5"></path><path d="M1427.57 698.59L1589.52 710.94" stroke="hsl(300, 100%, 65%)" stroke-width="1.5"></path><path d="M1560.57 -48.85L1560.57 -48.85" stroke="hsl(300, 100%, 65%)" stroke-width="1.5"></path><path d="M1560.57 -48.85L1401.35 96.7" stroke="hsl(300, 100%, 65%)" stroke-width="1.5"></path><path d="M1552.56 218.11L1552.56 218.11" stroke="hsl(300, 100%, 65%)" stroke-width="1.5"></path><path d="M1552.56 218.11L1418.51 225.59" stroke="hsl(300, 100%, 65%)" stroke-width="1.5"></path><path d="M1552.56 218.11L1612.36 387" stroke="hsl(300, 100%, 65%)" stroke-width="1.5"></path><path d="M1552.56 218.11L1560.57 -48.85" stroke="hsl(300, 100%, 65%)" stroke-width="1.5"></path><path d="M1612.36 387L1612.36 387" stroke="hsl(300, 100%, 65%)" stroke-width="1.5"></path><path d="M1612.36 387L1607.48 493.36" stroke="hsl(300, 100%, 65%)" stroke-width="1.5"></path><path d="M1612.36 387L1451.34 535.8" stroke="hsl(300, 100%, 65%)" stroke-width="1.5"></path><path d="M1607.48 493.36L1607.48 493.36" stroke="hsl(300, 100%, 65%)" stroke-width="1.5"></path><path d="M1607.48 493.36L1451.34 535.8" stroke="hsl(300, 100%, 65%)" stroke-width="1.5"></path><path d="M1607.48 493.36L1589.52 710.94" stroke="hsl(300, 100%, 65%)" stroke-width="1.5"></path><path d="M1607.48 493.36L1427.57 698.59" stroke="hsl(300, 100%, 65%)" stroke-width="1.5"></path><path d="M1589.52 710.94L1589.52 710.94" stroke="hsl(300, 100%, 65%)" stroke-width="1.5"></path><path d="M1589.52 710.94L1451.34 535.8" stroke="hsl(300, 100%, 65%)" stroke-width="1.5"></path><path d="M1589.52 710.94L1298.5 668.88" stroke="hsl(300, 100%, 65%)" stroke-width="1.5"></path><circle r="25" cx="227.26" cy="496.74" fill="url(&quot;#SvgjsRadialGradient1031&quot;)"></circle><circle r="25" cx="342.48" cy="488.74" fill="url(&quot;#SvgjsRadialGradient1031&quot;)"></circle><circle r="25" cx="825.41" cy="559.4" fill="url(&quot;#SvgjsRadialGradient1031&quot;)"></circle><circle r="25" cx="1565.05" cy="75.44" fill="url(&quot;#SvgjsRadialGradient1031&quot;)"></circle><circle r="5" cx="-66.31" cy="536.09" fill="#ff80ff"></circle><circle r="5" cx="-70.95" cy="698.53" fill="#ff80ff"></circle><circle r="5" cx="39.66" cy="526.77" fill="#ff80ff"></circle><circle r="5" cx="53.12" cy="689.01" fill="#ff80ff"></circle><circle r="5" cx="224.87" cy="664.21" fill="#ff80ff"></circle><circle r="5" cx="338.82" cy="689.3" fill="#ff80ff"></circle><circle r="5" cx="513.02" cy="513.02" fill="#ff80ff"></circle><circle r="5" cx="504.6" cy="699.17" fill="#ff80ff"></circle><circle r="5" cx="706.28" cy="395.25" fill="#ff80ff"></circle><circle r="5" cx="675.97" cy="517.74" fill="#ff80ff"></circle><circle r="5" cx="838.8" cy="405.1" fill="#ff80ff"></circle><circle r="5" cx="839.38" cy="666.66" fill="#ff80ff"></circle><circle r="5" cx="1000.98" cy="238.88" fill="#ff80ff"></circle><circle r="5" cx="969.07" cy="410.56" fill="#ff80ff"></circle><circle r="5" cx="1002.61" cy="549.25" fill="#ff80ff"></circle><circle r="5" cx="1009.84" cy="710.65" fill="#ff80ff"></circle><circle r="5" cx="1159.79" cy="54.24" fill="#ff80ff"></circle><circle r="5" cx="1145.62" cy="227.71" fill="#ff80ff"></circle><circle r="5" cx="1118.91" cy="551.04" fill="#ff80ff"></circle><circle r="5" cx="1116.51" cy="652.15" fill="#ff80ff"></circle><circle r="5" cx="1302.57" cy="-86.19" fill="#ff80ff"></circle><circle r="5" cx="1272.72" cy="221.33" fill="#ff80ff"></circle><circle r="5" cx="1267.43" cy="386.05" fill="#ff80ff"></circle><circle r="5" cx="1264.9" cy="512.22" fill="#ff80ff"></circle><circle r="5" cx="1298.5" cy="668.88" fill="#ff80ff"></circle><circle r="5" cx="1401.35" cy="96.7" fill="#ff80ff"></circle><circle r="5" cx="1418.51" cy="225.59" fill="#ff80ff"></circle><circle r="5" cx="1442.31" cy="378.02" fill="#ff80ff"></circle><circle r="5" cx="1451.34" cy="535.8" fill="#ff80ff"></circle><circle r="5" cx="1427.57" cy="698.59" fill="#ff80ff"></circle><circle r="5" cx="1560.57" cy="-48.85" fill="#ff80ff"></circle><circle r="5" cx="1552.56" cy="218.11" fill="#ff80ff"></circle><circle r="5" cx="1612.36" cy="387" fill="#ff80ff"></circle><circle r="5" cx="1607.48" cy="493.36" fill="#ff80ff"></circle><circle r="5" cx="1589.52" cy="710.94" fill="#ff80ff"></circle></g><defs><mask id="SvgjsMask1029"><rect width="1440" height="560" fill="#ffffff"></rect></mask><linearGradient x1="15.28%" y1="-39.29%" x2="84.72%" y2="139.29%" gradientUnits="userSpaceOnUse" id="SvgjsLinearGradient1030"><stop stop-color="rgba(33, 60, 112, 1)" offset="0"></stop><stop stop-color="rgba(0, 87, 255, 1)" offset="1"></stop></linearGradient><radialGradient id="SvgjsRadialGradient1031"><stop stop-color="#ffffff" offset="0.1"></stop><stop stop-color="rgba(255, 0, 255, 1)" offset="0.2"></stop><stop stop-color="rgba(255, 0, 255, 0)" offset="1"></stop></radialGradient></defs></svg>