<svg xmlns="http://www.w3.org/2000/svg" version="1.1" xmlns:xlink="http://www.w3.org/1999/xlink" xmlns:svgjs="http://svgjs.dev/svgjs" width="1440" height="560" preserveAspectRatio="none" viewBox="0 0 1440 560"><g mask="url(&quot;#SvgjsMask1059&quot;)" fill="none"><rect width="1440" height="560" x="0" y="0" fill="url(&quot;#SvgjsLinearGradient1060&quot;)"></rect><path d="M885.84 76.17 a143.96 143.96 0 1 0 287.92 0 a143.96 143.96 0 1 0 -287.92 0z" fill="rgba(255, 0, 255, 0.57)" class="triangle-float3"></path><path d="M1302.6355045057571 464.1186671174064L1278.1371450774907 378.6827345968643 1192.7012125569486 403.1810940251307 1217.199571985215 488.6170265456728z" fill="rgba(255, 0, 255, 0.57)" class="triangle-float2"></path><path d="M416.07403838173974 23.508242335943276L381.35800809073777 130.00773855696093 477.47763598694075 111.32397557229456z" fill="rgba(255, 0, 255, 0.57)" class="triangle-float2"></path><path d="M327.87 60.64 a125.54 125.54 0 1 0 251.08 0 a125.54 125.54 0 1 0 -251.08 0z" fill="rgba(255, 0, 255, 0.57)" class="triangle-float2"></path><path d="M236.93484468149225 406.84820421843943L117.24447867897854 396.26170386810503 159.96674228026185 492.21747898101694z" fill="rgba(255, 0, 255, 0.57)" class="triangle-float1"></path><path d="M949.83 43.92 a130.66 130.66 0 1 0 261.32 0 a130.66 130.66 0 1 0 -261.32 0z" fill="rgba(255, 0, 255, 0.57)" class="triangle-float2"></path><path d="M446.11031337041976 68.9356056222901L500.97398338113135 212.26849211841107 587.2107631519217 109.49550001281595z" fill="rgba(255, 0, 255, 0.57)" class="triangle-float1"></path><path d="M554.9411998487047 242.54190200320977L650.2173874302164 271.7700721761078 632.1046831173552 186.55649810174128z" fill="rgba(255, 0, 255, 0.57)" class="triangle-float2"></path><path d="M938.54 395.91 a152.68 152.68 0 1 0 305.36 0 a152.68 152.68 0 1 0 -305.36 0z" fill="rgba(255, 0, 255, 0.57)" class="triangle-float2"></path><path d="M-88.06 437.12 a100.02 100.02 0 1 0 200.04 0 a100.02 100.02 0 1 0 -200.04 0z" fill="rgba(255, 0, 255, 0.57)" class="triangle-float3"></path><path d="M805.71 485.53 a144.28 144.28 0 1 0 288.56 0 a144.28 144.28 0 1 0 -288.56 0z" fill="rgba(255, 0, 255, 0.57)" class="triangle-float2"></path><path d="M1181.9636720846818 540.1517898475229L1172.1749535026213 447.0183537179786 1088.8302359551376 549.9405084295834z" fill="rgba(255, 0, 255, 0.57)" class="triangle-float3"></path><path d="M271.1979716364334-23.06128479876056L156.1202698914956-12.993290471461064 166.1882642187951 102.08441127347675 281.2659659637329 92.01641694617723z" fill="rgba(255, 0, 255, 0.57)" class="triangle-float2"></path><path d="M511.871,522.927C565.361,525.6,625.071,522.493,654.89,478.005C687.331,429.604,683.307,363.62,651.266,314.954C621.885,270.328,565.298,261.363,511.871,260.781C457.032,260.184,394.953,264.607,367.114,311.858C339.014,359.552,360.332,419.197,391.641,464.848C418.621,504.188,464.227,520.546,511.871,522.927" fill="rgba(255, 0, 255, 0.57)" class="triangle-float2"></path><path d="M253.31089750437354 168.57217309380474L124.4398190191981 108.47860228147357 64.34624820686693 237.34968076664902 193.21732669204238 297.44325157898015z" fill="rgba(255, 0, 255, 0.57)" class="triangle-float1"></path><path d="M742.3061488503431 329.6495547340386L680.8057350621433 223.12771336636695 574.2838936944717 284.62812715456676 635.7843074826715 391.1499685222384z" fill="rgba(255, 0, 255, 0.57)" class="triangle-float1"></path><path d="M1231.5855866124411 215.71532196621058L1157.3733345886553 329.99216874341613 1271.650181365861 404.2044207672019 1345.8624333896466 289.92757398999635z" fill="rgba(255, 0, 255, 0.57)" class="triangle-float3"></path><path d="M-33.29 550.54 a162.57 162.57 0 1 0 325.14 0 a162.57 162.57 0 1 0 -325.14 0z" fill="rgba(255, 0, 255, 0.57)" class="triangle-float3"></path><path d="M134.53 164.17 a149.97 149.97 0 1 0 299.94 0 a149.97 149.97 0 1 0 -299.94 0z" fill="rgba(255, 0, 255, 0.57)" class="triangle-float3"></path><path d="M261.2264603282923 109.70005077695625L205.18084421663042 206.77390542385552 302.2546988635297 262.8195215355174 358.3003149751916 165.74566688861816z" fill="rgba(255, 0, 255, 0.57)" class="triangle-float3"></path></g><defs><mask id="SvgjsMask1059"><rect width="1440" height="560" fill="#ffffff"></rect></mask><linearGradient x1="15.28%" y1="-39.29%" x2="84.72%" y2="139.29%" gradientUnits="userSpaceOnUse" id="SvgjsLinearGradient1060"><stop stop-color="rgba(33, 60, 112, 1)" offset="0"></stop><stop stop-color="rgba(0, 87, 255, 1)" offset="1"></stop></linearGradient><style>
                @keyframes float1 {
                    0%{transform: translate(0, 0)}
                    50%{transform: translate(-10px, 0)}
                    100%{transform: translate(0, 0)}
                }

                .triangle-float1 {
                    animation: float1 5s infinite;
                }

                @keyframes float2 {
                    0%{transform: translate(0, 0)}
                    50%{transform: translate(-5px, -5px)}
                    100%{transform: translate(0, 0)}
                }

                .triangle-float2 {
                    animation: float2 4s infinite;
                }

                @keyframes float3 {
                    0%{transform: translate(0, 0)}
                    50%{transform: translate(0, -10px)}
                    100%{transform: translate(0, 0)}
                }

                .triangle-float3 {
                    animation: float3 6s infinite;
                }
            </style></defs></svg>