<svg xmlns="http://www.w3.org/2000/svg" version="1.1" xmlns:xlink="http://www.w3.org/1999/xlink" xmlns:svgjs="http://svgjs.dev/svgjs" width="1440" height="560" preserveAspectRatio="none" viewBox="0 0 1440 560"><g mask="url(&quot;#SvgjsMask1025&quot;)" fill="none"><rect width="1440" height="560" x="0" y="0" fill="url(&quot;#SvgjsLinearGradient1026&quot;)"></rect><path d="M126.84 329.12 a48.4 48.4 0 1 0 96.8 0 a48.4 48.4 0 1 0 -96.8 0z" fill="rgba(0, 87, 255, 1)"></path><path d="M936.03 554.39 a9.08 9.08 0 1 0 18.16 0 a9.08 9.08 0 1 0 -18.16 0z" fill="rgba(255, 0, 255, 1)"></path><path d="M532.29 96.27L537.72 96.27L537.72 101.7L532.29 101.7z" fill="rgba(216, 50, 216, 1)"></path><path d="M962.12 413.05a33.9 33.9 0 1 0 56.8 37.01z" stroke="rgba(255, 0, 255, 1)"></path><path d="M231.01 494.69a39.6 39.6 0 1 0-38.35-69.29z" stroke="rgba(216, 50, 216, 1)"></path><path d="M559.06 338.29a11.6 11.6 0 1 0-11.14-20.35z" fill="rgba(255, 0, 255, 1)"></path><path d="M1154.57 304.87L1180.56 304.87L1180.56 358.56L1154.57 358.56z" stroke="rgba(255, 0, 255, 1)"></path><path d="M799.18 353.79L851.56 353.79L851.56 406.17L799.18 406.17z" fill="rgba(216, 50, 216, 1)"></path><path d="M274.64 270.8a30.74 30.74 0 1 0-29.42 53.99z" stroke="rgba(0, 87, 255, 1)"></path><path d="M1237.5 43.98a19.65 19.65 0 1 0-25.01 30.32z" fill="rgba(0, 87, 255, 1)"></path><path d="M804.85 469.89a27.49 27.49 0 1 0-16.7-52.39z" stroke="rgba(0, 87, 255, 1)"></path><path d="M333.45 1.71L354.23 1.71L354.23 51.27L333.45 51.27z" fill="rgba(216, 50, 216, 1)"></path><path d="M365.97 228.98 a7.66 7.66 0 1 0 15.32 0 a7.66 7.66 0 1 0 -15.32 0z" fill="rgba(255, 0, 255, 1)"></path><path d="M1047.35 158.91 a37.72 37.72 0 1 0 75.44 0 a37.72 37.72 0 1 0 -75.44 0z" stroke="rgba(255, 0, 255, 1)"></path><path d="M1313.1 302.26a29.84 29.84 0 1 0 58.23-13.08z" fill="rgba(216, 50, 216, 1)"></path><path d="M1352.92 197.89L1405.48 197.89L1405.48 224.46L1352.92 224.46z" fill="rgba(216, 50, 216, 1)"></path><path d="M537.66 402.19a29.55 29.55 0 1 0-0.65 59.1z" fill="rgba(255, 0, 255, 1)"></path><path d="M99.54 79.9a43.35 43.35 0 1 0-81.01 30.88z" stroke="rgba(255, 0, 255, 1)"></path><path d="M252.08 465.01L275.02 465.01L275.02 486.04L252.08 486.04z" stroke="rgba(0, 87, 255, 1)"></path><path d="M486.36 472.21L501.48 472.21L501.48 505.34L486.36 505.34z" fill="rgba(216, 50, 216, 1)"></path><path d="M294.69 163.85a41.65 41.65 0 1 0 43.18 71.24z" stroke="rgba(255, 0, 255, 1)"></path><path d="M543.44 467.62L550.85 467.62L550.85 475.03L543.44 475.03z" fill="rgba(0, 87, 255, 1)"></path><path d="M402.11 132L447.58 132L447.58 177.47L402.11 177.47z" stroke="rgba(0, 87, 255, 1)"></path><path d="M756.65 482.15L810.58 482.15L810.58 496.55L756.65 496.55z" fill="rgba(216, 50, 216, 1)"></path><path d="M667.49 315.04L708.89 315.04L708.89 328.56L667.49 328.56z" fill="rgba(255, 0, 255, 1)"></path><path d="M1279.52 198.57L1284.4 198.57L1284.4 213.17L1279.52 213.17z" stroke="rgba(255, 0, 255, 1)"></path><path d="M401.3 330.01a28.9 28.9 0 1 0-49.68-29.54z" fill="rgba(216, 50, 216, 1)"></path><path d="M1199.41 529.54L1235.3 529.54L1235.3 533.14L1199.41 533.14z" fill="rgba(216, 50, 216, 1)"></path><path d="M1311.74 424.14L1320.19 424.14L1320.19 457.83L1311.74 457.83z" stroke="rgba(0, 87, 255, 1)"></path><path d="M994 69.88 a14.9 14.9 0 1 0 29.8 0 a14.9 14.9 0 1 0 -29.8 0z" stroke="rgba(216, 50, 216, 1)"></path><path d="M540.51 80.01L578.99 80.01L578.99 118.49L540.51 118.49z" fill="rgba(255, 0, 255, 1)"></path><path d="M1392.81 230.13L1395.47 230.13L1395.47 232.79L1392.81 232.79z" stroke="rgba(255, 0, 255, 1)"></path><path d="M454.95 412.19L460.91 412.19L460.91 434.99L454.95 434.99z" fill="rgba(216, 50, 216, 1)"></path></g><defs><mask id="SvgjsMask1025"><rect width="1440" height="560" fill="#ffffff"></rect></mask><linearGradient x1="15.28%" y1="-39.29%" x2="84.72%" y2="139.29%" gradientUnits="userSpaceOnUse" id="SvgjsLinearGradient1026"><stop stop-color="rgba(33, 60, 112, 1)" offset="0"></stop><stop stop-color="rgba(0, 87, 255, 1)" offset="1"></stop></linearGradient></defs></svg>