<svg width="3840" height="2160" viewBox="0 0 3840 2160" fill="none" xmlns="http://www.w3.org/2000/svg">
<rect width="3840" height="2160" fill="url(#paint0_linear_0_3)"/>
<mask id="mask0_0_3" style="mask-type:alpha" maskUnits="userSpaceOnUse" x="0" y="0" width="3840" height="2160">
<rect width="3840" height="2160" fill="#369FFF"/>
</mask>
<g mask="url(#mask0_0_3)">
<path d="M-199.5 967C-372.154 791.645 -370.5 360.5 -370.5 360.5L-847.5 2643L3527 2754L4735.5 2059.5C4735.5 2059.5 4638.11 1253.04 4249.5 1157C3934.88 1079.25 3802.25 1412.46 3485.5 1481C3089.59 1566.67 2779.15 1691.51 2448.5 1457.5C2343.12 1382.92 2321.57 1297.21 2217 1221.5C1851.02 956.522 1428.95 1482.33 1060 1221.5C927.312 1127.7 914.045 1004.09 777.5 916C456.454 708.876 68.5538 1239.25 -199.5 967Z" fill="url(#paint1_linear_0_3)"/>
</g>
<defs>
<linearGradient id="paint0_linear_0_3" x1="1920" y1="0" x2="1779.5" y2="1812" gradientUnits="userSpaceOnUse">
<stop stop-color="#818181"/>
<stop offset="1" stop-color="#434343"/>
</linearGradient>
<linearGradient id="paint1_linear_0_3" x1="2237.5" y1="606.5" x2="1975.5" y2="2723.5" gradientUnits="userSpaceOnUse">
<stop stop-color="#A7A5A5"/>
<stop offset="0.609375" stop-color="#494949"/>
</linearGradient>
</defs>
</svg>
