<svg width="1491" height="1064" viewBox="0 0 1491 1064" fill="none" xmlns="http://www.w3.org/2000/svg">
<rect width="1491" height="1064" fill="url(#paint0_linear_15_368)"/>
<mask id="mask0_15_368" style="mask-type:alpha" maskUnits="userSpaceOnUse" x="0" y="0" width="1491" height="1064">
<rect width="1491" height="1064" fill="#D9D9D9"/>
</mask>
<g mask="url(#mask0_15_368)">
<path d="M-164 376L-344 588L-324 643L-232 615L-69 599C-69 599 -12.0388 658.762 32 687C82.3759 719.301 114.265 735.541 173 747C227.045 757.544 261.384 763.236 314 747C386.21 724.718 456 648.5 460 620C468.131 562.068 499.218 527.995 460 497C429 472.5 412.604 424.62 365 429C322.564 432.905 317.826 476.974 279 492C225.098 512.86 149.5 489.588 129 486.5C9.5 468.5 -164 376 -164 376Z" stroke="url(#paint1_linear_15_368)" stroke-width="6"/>
<path d="M-161 401L-288 576L-311 589L-298 611L-102 576L-1 595C-1 595 85.3234 668.9 153 687C199.151 699.343 227.706 702.754 275 696C351.981 685.006 422.639 673.79 450 601C464.703 561.886 467.163 543.6 447 507C427.243 471.137 419.501 455.816 376.5 455.5C331.898 455.172 318.42 498.524 275 511C220.201 526.745 185.637 517.566 129 511C8.68024 497.052 -161 401 -161 401Z" stroke="url(#paint2_linear_15_368)" stroke-width="6"/>
<path d="M-147 446L-215 552L-184 557L-147 543L-78 531C-78 531 -12.3627 552.328 30 565C81.2906 580.342 109.345 592.326 162 602C205.647 610.019 230.698 616.586 275 614C328.617 610.871 377.253 623.036 408 579C426.722 552.185 442.22 524.803 425 497C409.645 472.208 381.097 457.988 355 471C337.936 479.508 342.31 499.634 327 511C310.03 523.598 275 526 275 526H157C157 526 112.844 525.373 85 521C42.7628 514.367 -20 490 -20 490L-83 460L-147 446Z" stroke="url(#paint3_linear_15_368)" stroke-width="6"/>
<path d="M-130 461.5L-179.5 533.5L-84 519.5C-84 519.5 63.9176 564.935 162.5 581.5C206.137 588.833 230.869 605.231 275 602C323.498 598.449 367.679 607.562 394.5 567C408.475 545.866 424.568 524.73 410 504C398.709 487.933 381.34 481.962 362.5 487.5C340.331 494.017 348.526 521.854 332.5 538.5C286.341 586.446 162.5 550.5 162.5 550.5C162.5 550.5 76.3752 536.745 23.5 519.5C-9.00784 508.897 -58 487.5 -58 487.5L-130 461.5Z" stroke="url(#paint4_linear_15_368)" stroke-width="6"/>
<path d="M-126 631L-323 678L-373.5 738.5L-360 823.5L-195.5 891L-43.5 949C-43.5 949 37.2625 979.04 91.5 984C211.962 995.016 277.863 946.079 389.5 899.5C457.116 871.288 508.371 872.806 557 815C581.408 785.986 625.468 767.738 609.5 729.5C596.679 698.798 584.477 695.899 544 688C530.688 685.402 517.816 679.056 490 677.5C418.728 673.514 399.093 758.73 328 786C265.838 809.845 225.97 823.976 160 815C97.8233 806.54 61.6272 789.265 13.5 749C-17.4294 723.123 -53 670 -53 670L-126 631Z" stroke="url(#paint5_linear_15_368)" stroke-width="6"/>
<path d="M-360 743.5L-344 816.5L-44.5 927C-44.5 927 37.2634 959.38 92.5 965C213.217 977.282 279.687 927.631 391.5 880.5C455.875 853.365 505.824 852.788 551 799.5C566.727 780.949 591.218 770.375 584.5 747C581.009 734.853 574.046 729.543 564.122 721.974L563.5 721.5C546.051 708.185 530.955 707.91 509.141 707.512L508.5 707.5C453.811 706.499 391.5 784.5 391.5 784.5C391.5 784.5 356.803 811.637 331.5 823.5C280.14 847.58 244.326 852.714 188 846C155.774 842.159 108 823.5 108 823.5L-9 784.5L-60.5 714L-144 651L-324 691L-360 743.5Z" stroke="url(#paint6_linear_15_368)" stroke-width="6"/>
<path d="M9 850C-12.6377 862.304 -33.5 897.5 -33.5 897.5C-33.5 897.5 49.7741 944.97 108 944.5C150.905 944.154 179.397 942.173 214.5 917.5C233.708 903.999 259.076 897.276 256 874C252.086 844.382 208.979 878.851 179.5 874C150.437 869.218 136.956 855.389 108 850C69.9907 842.926 42.6085 830.89 9 850Z" stroke="url(#paint7_linear_15_368)" stroke-width="6"/>
<path d="M53.5 863C38.9726 868.202 33.3772 878.444 29.0003 894C19.6702 927.159 62.1434 929.516 96.5002 932C118.072 933.559 130.912 932.127 151.5 925.5C171.63 919.02 209.147 920.979 199 899.5C188.875 878.067 162.812 903.795 139.5 899.5C117.27 895.404 111.938 874.949 90.0002 869.5C72.1869 865.075 67.131 858.119 53.5 863Z" stroke="url(#paint8_linear_15_368)" stroke-width="6"/>
<path d="M-80.5 386.5C-80.5 386.5 45.1968 453.452 136 464C187.242 469.952 217.954 496.994 268 470.5C299.849 453.639 333.479 443.792 346 410C348.535 403.159 350.673 386.795 349 382.5C334 344 268.379 429.175 211 416C177.512 408.311 152.887 399.923 136 370C123.12 347.177 138.413 327.091 127 303.5C108.908 266.103 79.6955 253.497 39.5 243C9.83868 235.254 -39 243 -39 243L-71.5 266.5L-112 340.5L-80.5 386.5Z" stroke="url(#paint9_linear_15_368)" stroke-width="6"/>
<path d="M-78.5 333L-55 373L-27 389C-27 389 14.9666 413.252 44 411.5L44.8102 411.451C68.8751 410.001 88.5936 408.813 102.5 389C111.099 376.749 112.807 366.965 112.5 352C112.024 328.776 101.839 315.511 85.5 299C65.0665 278.352 45.5537 275.344 17 270C-7.56703 265.402 -47 270 -47 270L-78.5 333Z" stroke="url(#paint10_linear_15_368)" stroke-width="6"/>
<path d="M-46 312.5L-30 358.5C-30 358.5 3.17472 388.174 29.5 391C45.7551 392.745 58.1189 395.567 71 385.5C83.6277 375.631 90.0135 363.137 86.5 347.5C81.5757 325.584 46.4328 342.708 34 324C27.3335 313.968 33.386 303.146 25 294.5C11.813 280.904 -23.5 294.5 -23.5 294.5L-46 312.5Z" stroke="url(#paint11_linear_15_368)" stroke-width="6"/>
<path d="M214 405C183.416 400.736 151.793 395.732 145.5 365.5C142.215 349.716 145.342 338.905 153.5 325C163.025 308.765 174.484 302.892 192 296C215.985 286.562 232.243 295.058 258 296C287.752 297.088 306.308 298.367 331.5 282.5C347.365 272.508 347.662 275.081 362 263C381.609 246.478 397.86 239.717 423.5 240C439.365 240.175 448.353 243.402 463 249.5C489.521 260.541 501.935 273.664 520 296C535.171 314.757 546.008 326.208 550 350C554.144 374.7 548.414 390.222 538 413C521.342 449.437 501.154 495.224 463 483C441.148 475.999 440.514 454.896 423.5 439.5C401.77 419.837 371.459 424.237 362 396.5C356.832 381.345 372.423 372.155 362 360C347.474 343.06 307 371 307 371C307 371 252.299 410.34 214 405Z" stroke="url(#paint12_linear_15_368)" stroke-width="6"/>
<path d="M158.5 334.5C155.52 344.207 155.022 350.961 158.5 360.5C164.947 378.182 181.694 380.63 200 385C214.434 388.446 223.28 386.879 238 385C264.909 381.566 282.01 377.684 303 360.5C313.49 351.913 325.705 348.053 326 334.5C326.201 325.242 322.204 319.875 316 313C303.223 298.841 286.951 306.143 268 304C238.702 300.687 218.926 290.923 192.5 304C176.513 311.912 163.735 317.448 158.5 334.5Z" stroke="url(#paint13_linear_15_368)" stroke-width="6"/>
<path d="M205.5 341.5C208.923 355.217 211.384 368.199 225 372C233.781 374.451 239.22 370.456 248 368C268.456 362.278 285.321 360.143 295.5 341.5C299.319 334.507 302.453 329.91 301.5 322C299.251 303.324 272.746 315.573 254 314C235.126 312.416 214.842 297.524 205.5 314C200.203 323.342 202.9 331.08 205.5 341.5Z" stroke="url(#paint14_linear_15_368)" stroke-width="6"/>
<path d="M375.5 275.5C358.998 288.996 352.29 302.365 349.5 323.5C348.478 331.243 345.54 336.768 349.5 343.5C356.232 354.945 373.723 334.516 383.5 343.5C394.14 353.277 378.563 366.92 383.5 380.5C388.471 394.175 397.064 398.86 407.5 409C420.804 421.926 428.153 430.93 445.5 437.5C457.718 442.127 465.681 445.521 478.5 443C498.822 439.004 505.91 423.587 516 405.5C526.71 386.301 530.397 372.353 528 350.5C524.35 317.218 505.784 299.906 478.5 280.5C464.551 270.579 455.832 264.612 439 261.5C414.03 256.883 395.157 259.423 375.5 275.5Z" stroke="url(#paint15_linear_15_368)" stroke-width="6"/>
<path d="M399.5 285C383.697 293.808 359.999 310.419 373 323C378.503 328.325 384.976 325.491 391.5 329.5C403.549 336.903 408.428 345.458 412.5 359C416.154 371.155 406.964 380.079 412.5 391.5C419.308 405.543 446.5 412.5 446.5 412.5C446.5 412.5 465.963 416.979 477 412.5C494.842 405.258 500.013 389.153 502 370C504.001 350.715 495.836 339.709 486 323C475.765 305.613 469.483 293.089 451 285C432.575 276.936 417.067 275.208 399.5 285Z" stroke="url(#paint16_linear_15_368)" stroke-width="6"/>
<path d="M418.5 296C408.721 299.816 398.395 305.126 400 315.5C400.92 321.445 405.53 323.087 409 328C415.811 337.644 422.629 341.685 426 353C429.177 363.667 420.52 371.813 426 381.5C429.402 387.514 432.878 390.297 439 393.5C449.9 399.203 460.369 400.479 470.5 393.5C478.539 387.962 480.202 381.05 482.482 371.573L482.5 371.5C485.827 357.673 482.324 348.688 477 335.5C470.595 319.635 465.251 308.752 450 301C438.897 295.356 430.103 291.472 418.5 296Z" stroke="url(#paint17_linear_15_368)" stroke-width="6"/>
<path d="M586 669C550.246 649.183 485 670.667 485 641.5C485 612.333 476.369 584.675 485 550C491.25 524.893 503 508.333 512 489.5C521 470.667 552.481 449.928 575.5 422C594.776 398.614 591.246 361.274 621.5 359.5C655.781 357.49 654.932 402.174 669 433.5C701.406 505.661 677.875 556.634 684 635.5C686.305 665.183 710.697 690.099 690 711.5C679.234 722.632 668.937 725.767 653.5 727C618.855 729.766 616.398 685.849 586 669Z" stroke="url(#paint18_linear_15_368)" stroke-width="6"/>
<path d="M519.5 552C508.89 576.535 489.986 597.233 505.5 619C515.586 633.152 528.621 634.365 545.5 638.5C564.466 643.146 576.939 632.438 595.5 638.5C618.915 646.147 620.627 690.305 643 680C656.992 673.555 657.104 660.232 663 646C684.582 593.905 655.565 557.971 643 503C635.493 470.159 652.117 428.426 619.5 420C584.895 411.06 584.469 463.425 563 492C545.616 515.139 530.988 525.436 519.5 552Z" stroke="url(#paint19_linear_15_368)" stroke-width="6"/>
<path d="M528 560C523.977 580.303 510.447 594.539 524.5 610.5C534.675 622.056 550.5 619 550.5 619C550.5 619 571.174 609.325 585 610.5C609.987 612.623 609.373 656.726 634 652C647.5 649.409 636.214 602.555 634 571C630.697 523.925 634 443.5 613 452C601.142 456.799 590.374 457.391 585 469C560 523 536.137 518.933 528 560Z" stroke="url(#paint20_linear_15_368)" stroke-width="6"/>
<path d="M544 578C551.193 587.997 549.918 594.376 559 597C581.5 603.5 603.829 610.396 617.5 589.5C621.5 583.386 617.606 579.443 617.5 573C617.143 551.273 630.441 546.752 613.5 517.5C609.564 510.703 608 490.5 596.5 490.5C582.411 490.5 568.661 506.606 559 535C553.219 551.993 531.506 560.634 544 578Z" stroke="url(#paint21_linear_15_368)" stroke-width="6"/>
<path d="M387 922.5C361.324 928.766 336.068 936.997 323 944.5C306.106 954.199 284.291 961.817 279 968C265.09 984.254 232.943 966.732 228 988C224.63 1002.5 224.069 1002.15 228 1016.5C240.446 1061.95 234.5 1137 234.5 1137L325 1192L472 1205L621.5 1172C621.5 1172 667.492 1113.01 660.5 1071.5C655.555 1042.14 640.208 1029.16 621.5 1006C594.286 972.315 574.534 954.75 535.5 936C503.311 920.539 482.708 913.235 447 913C423.277 912.844 410.047 916.876 387 922.5Z" stroke="url(#paint22_linear_15_368)" stroke-width="6"/>
<path d="M425.5 938.5C392.5 943.5 290.457 944.463 273.5 1011C268.533 1030.49 259.265 1030.51 258.5 1045C257.427 1065.32 282 1091.5 282 1091.5L343 1079L418.5 1072.5L494.5 1107.5L557 1161.5L595 1135C595 1135 619.209 1094.29 616 1066.5C613.653 1046.17 607.216 1034.91 595 1018.5C572.512 988.283 544.618 987.958 510.5 972C478.181 956.883 460.777 933.155 425.5 938.5Z" stroke="url(#paint23_linear_15_368)" stroke-width="6"/>
<path d="M325 1002C316.205 1017.44 313.315 1034.11 325 1047.5C337.37 1061.67 354.209 1050.65 373 1051.5C395.627 1052.53 408.641 1047.88 431 1051.5C465.7 1057.12 513.5 1087.5 513.5 1087.5L563 1127.5L587.5 1083C587.5 1083 582.758 1047.11 569.5 1029.5C553.084 1007.69 534.461 1004.34 509 994.5C481.853 984.009 464.979 982.197 436 979.5C411.503 977.22 396.908 973.692 373 979.5C352.883 984.388 335.247 984.012 325 1002Z" stroke="url(#paint24_linear_15_368)" stroke-width="6"/>
<path d="M515.5 881.5C517.433 896.45 536.181 893.511 546.5 904.5C558.26 917.024 555.991 931.387 569.5 942C585.476 954.551 601.298 946.563 620 954.5C634.09 960.48 642.285 952.911 654 974L684 1028C695.716 1049.09 722.215 1070.31 752.5 1066C792.891 1060.25 780.332 1008.57 802 974C831.163 927.476 860.377 910.022 887 862C922.359 798.221 941.326 757.332 945 684.5C947.807 628.87 941.617 573.5 923.5 543.5C901.63 507.284 882.954 484.914 843 471C802.902 457.035 767.237 450.96 734.5 478C712.349 496.297 709.339 516.006 701 543.5C682.169 605.592 760.628 657.511 720.5 708.5C699.665 734.975 670.923 729.331 646 752C634.855 762.137 629.859 769.108 620 780.5C602.438 800.792 599.673 819.382 577.5 834.5C563.773 843.859 551.428 841.064 538.5 851.5C527.013 860.773 513.607 866.859 515.5 881.5Z" stroke="url(#paint25_linear_15_368)" stroke-width="6"/>
<path d="M578.5 899.5C581.747 935.292 638.58 905.691 665.5 929.5C678.636 941.118 683.748 950.103 693 965C707.082 987.674 692.884 1026 719.5 1028C738.627 1029.44 745.069 1012.14 759.5 999.5C783.408 978.567 792.814 962.559 811 936.5C826.294 914.586 834.568 901.912 846.5 878C874.44 822.007 876.453 784.807 889 723.5C896.852 685.132 916.469 661.947 905 624.5C896.877 597.978 891.714 567.658 864 566.5C831.8 565.154 846.791 614.465 828.5 641C813.591 662.629 800.439 670.921 783.5 691C764.307 713.75 758.252 730.683 736.5 751C718.087 768.198 703.963 773.128 684 788.5C656.563 809.626 639.407 820.031 616.5 846C599.548 865.219 576.185 873.978 578.5 899.5Z" stroke="url(#paint26_linear_15_368)" stroke-width="6"/>
<path d="M787 623.5C769.152 645.852 769.404 704.476 748 685.5C735.02 673.992 742.376 659.016 739 642C734.671 620.175 728.095 608.247 728.5 586C729.01 558.003 725.833 534.109 748 517C760.661 507.228 771.072 505.946 787 504.5C809.316 502.474 830.051 498.713 843 517C856.617 536.229 843.399 555.356 833 576.5C821.666 599.546 803.026 603.43 787 623.5Z" stroke="url(#paint27_linear_15_368)" stroke-width="6"/>
<path d="M662 869C667.164 882.705 678.839 884.689 687.5 896.5C701.806 916.011 693.572 939.536 714 952.5C725.278 959.658 733.647 961.862 747 961.5C778.607 960.643 785.955 930.109 804.5 904.5C835.048 862.316 839.117 830.21 851 779.5C861.897 732.997 911.982 649.401 865 658C849.962 660.753 842.191 666.65 830.5 676.5C796.742 704.941 821.689 743.296 789.5 773.5C769.793 791.992 760.478 798.851 741 814C711.327 837.08 648.744 833.823 662 869Z" stroke="url(#paint28_linear_15_368)" stroke-width="6"/>
<path d="M735.5 831.5C713.037 846.174 662.636 851.544 680 872C686.556 879.724 696.154 876.532 703 884C710.228 891.885 705.977 901.431 713 909.5C721.838 919.654 731.312 926.201 744.5 923.5C759.844 920.357 758.454 903.417 768 891C781.18 873.855 792.605 867.181 803.5 848.5C813.438 831.461 838.413 812.44 822 801.5C815.926 797.452 811.016 797.471 803.776 797.499L803.5 797.5C792.571 797.542 777 806.5 777 806.5C777 806.5 751.34 821.152 735.5 831.5Z" stroke="url(#paint29_linear_15_368)" stroke-width="6"/>
<path d="M542 285C558.751 306.937 549.272 337.506 575 347.5C599.637 357.071 613.602 321.722 639.5 327C677.932 334.833 661.969 388.011 693 412C721.776 434.245 781 442.5 781 442.5C781 442.5 875.5 472 895 463.5C914.979 454.791 915.496 433.771 916.5 412C918.701 364.271 870.079 350.538 828.5 327C789.614 304.987 758.399 315.619 718.5 295.5C672.89 272.501 648.081 253.536 617 213C581.941 167.276 593.952 117.758 550 80.5001C517.714 53.1317 508.5 55.5001 446.5 39.5001C384.5 23.5001 346.137 41.8522 273.5 44.0001C200.862 46.148 182.669 28.7774 149.5 65.0001C119.121 98.1763 131.483 134.042 133 179C134.231 215.481 117.697 253.086 149.5 271C169.745 282.404 185.778 270.183 209 271C242.886 272.192 263.997 291.041 295.5 278.5C317.52 269.734 321.278 251.004 342 239.5C370.985 223.41 391.376 218.159 424.5 219.5C452.907 220.65 470.023 225.038 494.5 239.5C516.615 252.567 526.41 264.585 542 285Z" stroke="url(#paint30_linear_15_368)" stroke-width="6"/>
<path d="M165.5 159C167.541 192.487 155.056 225.211 183.5 243C189.282 246.616 193.019 247.875 199.5 250C220.652 256.935 234.729 254.64 256.5 250C284.26 244.083 296.963 231.595 321 216.5C337.839 205.925 344.139 194.633 362.5 187C410.394 167.089 462 216.5 492 216.5C516.373 216.5 531.748 206.012 547 187C560.407 170.287 588.126 155.307 564.5 135L504 83C480.373 62.6927 450.963 50.9268 413 48C380.193 45.4706 362.763 59.4583 330 62.5C292.281 66.0017 270.191 55.3047 233 62.5C207.962 67.3439 187.687 63.7159 171 83C151.528 105.502 163.689 129.298 165.5 159Z" stroke="url(#paint31_linear_15_368)" stroke-width="6"/>
<path d="M186 126C174.491 159.327 185.03 192.928 215 211.5C229.371 220.406 240.374 225.071 257 222C272.021 219.225 277.457 209.719 290 201C310.306 186.883 330.558 184.558 339.5 161.5C345.924 144.933 346.883 132.162 339.5 116C329.935 95.0627 311.95 90.9304 290 84.0001C265.049 76.1224 246.389 72.272 223 84.0001C203.46 93.798 193.135 105.339 186 126Z" stroke="url(#paint32_linear_15_368)" stroke-width="6"/>
<path d="M454 179C424.18 176.734 392 176.5 375.5 163C364.166 153.727 384.961 136.678 375.5 125.5C370.913 120.081 364.506 121.487 360 116C350.009 103.834 346.059 83.8105 365 76C383.94 68.1896 394.56 68.8106 413.5 61.0001C432.44 53.1896 468.13 71.5135 497.5 90C520.31 104.357 552 136.5 548.5 147.5C542.579 166.107 532.583 168.304 518.5 176.5C494.887 190.242 481.242 181.07 454 179Z" stroke="url(#paint33_linear_15_368)" stroke-width="6"/>
<path d="M232.21 175.245L232.5 175.5C241.59 183.47 247.167 193.975 259 191.5C270.468 189.101 268.47 175.531 277 167.5C289.912 155.343 309.517 162.078 317 146C322.273 134.67 322.298 125.318 317 114C308.771 96.4211 290.51 97.9209 271.5 93.9999C253.141 90.2132 239.06 83.5459 223.5 93.9999C210.875 102.483 205.821 112.847 204.5 128C202.642 149.323 216.146 161.162 232.21 175.245Z" stroke="url(#paint34_linear_15_368)" stroke-width="6"/>
<path d="M406.5 109.5C411.966 123.716 400.003 134.725 406.5 148.5C410.286 156.527 412.889 162.398 421 166C431.995 170.883 438.983 159.566 451 159C466.073 158.29 474.21 168.994 489 166C505.956 162.567 526.253 156.711 524.5 139.5C523.712 131.764 515 122 515 122L478.5 94C464.246 83.0654 450.154 71.8393 429 72C412.45 72.1258 389.887 69.4737 389 86C388.387 97.426 402.393 98.8199 406.5 109.5Z" stroke="url(#paint35_linear_15_368)" stroke-width="6"/>
<path d="M564.5 257C566.822 280.06 604.735 279.985 602 303C600.712 313.839 587.237 317.322 589.5 328C593.078 344.885 611.748 314.507 629 315C646.808 315.509 659.111 324.701 672 337C683.775 348.236 683.327 356.463 692.5 367.5C709.888 388.42 721.974 399.734 746.5 411.5C774.403 424.886 793.778 429.232 824.5 425.5C842.955 423.258 858.526 426.128 870 411.5C889.223 386.994 851.693 361.185 824.5 346C809.652 337.709 798.642 339.851 782.5 334.5C741.221 320.815 719.455 308.425 682.5 285.5C659.296 271.105 648.748 259.324 625.5 245C606.753 233.449 594.292 205.741 576 218C562.81 226.84 562.909 241.201 564.5 257Z" stroke="url(#paint36_linear_15_368)" stroke-width="6"/>
<path d="M753 395.5C771.366 405.267 784.742 403.151 805.5 404.5C818.36 405.336 832.46 415.884 838.5 404.5C843.946 394.236 832.357 387.226 826 377.5C816.33 362.705 814.393 349.905 793.5 346L740 336C719.107 332.095 714.851 328.877 708.5 339.5C701.779 350.743 715.672 358.998 723.5 369.5C732.678 381.812 739.442 388.29 753 395.5Z" stroke="url(#paint37_linear_15_368)" stroke-width="6"/>
<path d="M581.5 248.5C573.126 263.011 597.315 269.329 607 283C612.76 291.132 613.197 298.488 621.5 304C629.194 309.108 635.748 306.551 644.5 309.5C659.978 314.715 665.173 328.547 681.5 329C690.075 329.238 697.15 330.774 703 324.5C712.938 313.842 691.704 304.404 681.5 294C664.592 276.76 648.254 276.148 628 263C614.005 253.916 608.319 231.891 593 238.5C587.535 240.857 584.474 243.345 581.5 248.5Z" stroke="url(#paint38_linear_15_368)" stroke-width="6"/>
<path d="M-9 1038C-9 1038 122.509 965.043 173.5 1020C213.21 1062.8 177.5 1142 177.5 1142L286.5 1216L373.5 1291.5L241 1368.5L-20.5 1414L-351 1447.5L-480 1253L-467 1026.5L-378 904L-206.5 935.5L-9 1038Z" stroke="url(#paint39_linear_15_368)" stroke-width="6"/>
<path d="M-449 1239L-341 1368L-250.5 1398.5L-121.5 1368L68.5 1333.5L182.5 1239L133 1159L88 1064H-31L-190.5 971.5L-365 924L-449 1038.5V1239Z" stroke="url(#paint40_linear_15_368)" stroke-width="6"/>
<path d="M-423 1045V1228L-319.5 1346.5L-220.5 1370.5L-93.5 1346.5L42.5 1303.5L85.5 1195.5L-74 1105L-179.5 1019L-354 956.5L-423 1045Z" stroke="url(#paint41_linear_15_368)" stroke-width="6"/>
<path d="M410 1248L427.5 1344.5L461 1414.5L596 1464L736.5 1362L843.5 1248L971.5 1127C971.5 1127 966.789 1017.48 915.5 1000.5C882.34 989.524 856.97 997.749 827.5 1016.5C799.593 1034.26 777 1084.5 777 1084.5H706.5L683.5 1137.5L641.5 1204L527.5 1221.5L410 1248Z" stroke="url(#paint42_linear_15_368)" stroke-width="6"/>
<path d="M915.5 970.5C884.908 967.358 846.519 1016.69 838.5 987C832.385 964.359 853.678 951.49 872.5 937.5C894.356 921.255 914.036 928.212 940 920C983.564 906.221 1018.38 909.788 1048 875C1059.57 861.409 1063.38 861.053 1071 835.5C1084.66 789.689 1046.13 745.331 1022.5 726L962 676.5C938.373 657.169 970.138 581.021 940 533C928.155 514.128 898.847 511.98 902.5 490C904.163 479.989 915.5 467.5 915.5 467.5C915.5 467.5 946.235 403.5 1009.5 403.5H1171.5C1234.76 403.5 1273.47 396.896 1317 435.5C1360.75 474.302 1359.76 518.855 1366 577C1372.25 635.277 1364.16 669.66 1348 726C1327.53 797.36 1311.76 841.288 1260 894.5C1208.37 947.572 1164.89 964.024 1094.5 987C1056.35 999.455 1033.7 1014.42 994 1008.5C960.314 1003.47 949.381 973.979 915.5 970.5Z" stroke="url(#paint43_linear_15_368)" stroke-width="6"/>
<path d="M958.5 729C950 843 852.824 875.268 916 889C933.985 892.91 945.214 890.237 963 885.5C983.591 880.017 993.743 872.279 1011.5 860.5C1027.92 849.61 1042.33 846.428 1050.5 828.5C1065.39 795.813 1035.2 768.923 1006 748C989.76 736.363 959.985 709.077 958.5 729Z" stroke="url(#paint44_linear_15_368)" stroke-width="6"/>
<path d="M989.5 761.5C971.157 757.654 914 850.5 938 867C950.711 875.739 963.332 873.101 977.5 867C993.139 860.265 1001.17 850.329 1006 834C1009.32 822.765 1010.34 814.884 1006 804C999.624 787.995 1020.5 768 989.5 761.5Z" stroke="url(#paint45_linear_15_368)" stroke-width="6"/>
<path d="M994 582.5C991.028 537.956 926.247 506.338 958 474C985.439 446.056 1007.07 513.172 1041.5 494.5C1061.96 483.403 1060.04 460.968 1080 449C1111.82 429.924 1142.84 430.499 1175 449C1209.3 468.732 1199.65 506.198 1222.5 538.5C1246.2 571.998 1273.06 580.209 1294 615.5C1317.83 655.663 1330.7 683.351 1328.5 730C1325.84 786.371 1300.54 816.29 1264.13 859.351L1264 859.5C1244.81 882.187 1208 911 1208 911C1208 911 1104.5 989 1080 971C1073.28 966.061 1073.73 959.251 1072.5 951C1069.07 927.935 1100 898 1100 898C1100 898 1134.09 876.275 1127.5 847C1121.72 821.338 1106.16 809.466 1087.5 787.5C1065.17 761.21 1062.7 734.213 1041.5 707C1023.74 684.203 997.053 684.401 986.5 657.5C975.751 630.097 995.959 611.87 994 582.5Z" stroke="url(#paint46_linear_15_368)" stroke-width="6"/>
<path d="M1058 678.5C1083.9 698.158 1073.93 727.467 1092 754.5C1100.57 767.329 1106.47 773.776 1116.5 785.5C1133.74 805.642 1153.06 809.85 1164 834C1173.26 854.452 1157.38 873.544 1171.5 891C1198.26 924.089 1245.5 811 1245.5 811C1245.5 811 1280.99 755.199 1283 715C1285.08 673.344 1271.26 649.996 1253 612.5C1228.73 562.686 1214.33 525.164 1164 502C1137.94 490.009 1115.16 470.584 1092 487.5C1081.81 494.944 1082.97 505.657 1073.5 514C1049.54 535.105 990.896 488.59 992 520.5C992.601 537.878 1010.54 541.065 1017.5 557C1033.79 594.305 980.493 633.494 1010.5 661C1025.07 674.358 1042.25 666.548 1058 678.5Z" stroke="url(#paint47_linear_15_368)" stroke-width="6"/>
<path d="M1053 558C1028.32 583.845 1013.95 619.835 1038 644C1050.59 656.653 1068 647.268 1081 659.5C1096.83 674.395 1087.13 693.677 1098 712.5C1112.02 736.775 1132.05 740.56 1149.5 762.5C1168.41 786.273 1165.64 835.547 1195.5 830C1214.24 826.519 1212.54 810.253 1222.5 794C1242.65 761.125 1238.06 734.393 1234.5 696C1230.72 655.236 1222.33 631.744 1201.5 596.5C1181.81 563.176 1173.29 528.709 1135 523C1115.57 520.102 1104.32 526.343 1085.5 532C1066.15 537.817 1066.95 543.387 1053 558Z" stroke="url(#paint48_linear_15_368)" stroke-width="6"/>
<path d="M732 278.5C757.629 288.25 775.636 279.392 801.5 288.5C832.408 299.385 845.598 314.592 872 334C900.585 355.012 921.386 369.424 953.5 384.5C1014.46 413.119 1051.11 376.198 1113.5 380C1199.13 385.218 1266.99 361.252 1329.5 420C1376.3 463.984 1386.36 507.671 1393.5 571.5C1399.95 629.187 1390.72 663.729 1371.5 718.5C1357.39 758.712 1334.96 775.063 1321.5 815.5C1308.67 854.062 1283.89 882.402 1303.5 918C1329.42 965.057 1388.4 943.59 1440.5 930.5C1529.03 908.26 1596 756 1596 756L1615.5 502C1615.5 502 1546.75 329.781 1458.5 259.5C1405.14 217.009 1365.38 207.699 1303.5 179C1187.33 125.121 1114.97 112.589 995.5 66.5C944.384 46.7806 919.166 23.2352 865 15C808.233 6.36935 777.013 13.6 718.5 27.5001C662.171 40.8815 610.972 29.3023 593.5 84.5C577.436 135.251 618.779 164.942 648 205C676.286 243.775 691.26 263.001 732 278.5Z" stroke="url(#paint49_linear_15_368)" stroke-width="6"/>
<path d="M718 241.5C686.826 219.889 673.742 200.689 654.5 168C636.785 137.905 619.057 119.251 622.5 84.5C629.8 10.8107 728.804 129.885 796 161C861.378 191.273 892.348 223.075 962 241.5C1020.42 256.952 1056.88 268.989 1116 256.5C1165.04 246.14 1181.51 207.429 1231 199.5C1314.11 186.185 1369.06 220.687 1432.5 276C1514.96 347.889 1538 535.5 1538 535.5L1524 699C1524 699 1498.9 790.546 1457.5 783.5C1423.38 777.693 1419.28 750.201 1408 710C1394.45 661.699 1418.15 623.152 1417 573C1415.72 517.356 1412.58 480.263 1379.5 435.5C1361.76 411.489 1348.19 400.02 1323 384C1266.33 347.964 1220.56 358.576 1153.5 355C1122.69 353.357 1105.35 355 1074.5 355C1019.83 355 985.635 374.348 934.5 355C888.807 337.711 880.796 298.633 837.5 276C794.453 253.497 757.919 269.173 718 241.5Z" stroke="url(#paint50_linear_15_368)" stroke-width="6"/>
<path d="M820.5 39C771.196 36.7361 704.408 22.9987 698.5 72C696.089 92 763.356 106.506 811 131.5L933 195.5C980.644 220.494 998.407 220.933 1042.5 224.5C1080.36 227.562 1110.38 241.876 1139.5 217.5C1162.39 198.345 1185.27 172.023 1169 147C1156 127 923.5 72 923.5 72C883.225 59.2745 862.694 40.9374 820.5 39Z" stroke="url(#paint51_linear_15_368)" stroke-width="6"/>
<path d="M733.5 226C709.737 214.938 683.997 179.989 705.5 165C717.995 156.291 744.5 165 744.5 165C744.5 165 831.251 197.453 883 226C920.753 246.826 934.867 272.575 976 285.5C1023.13 300.309 1053.84 294.043 1102.5 285.5C1151.84 276.836 1173.44 248.831 1223 241.5C1258.93 236.185 1293.59 212.919 1316 241.5C1338.86 270.65 1329 316 1291 333C1231.11 359.792 1188.58 334.801 1123 333C1047.13 330.917 988.46 368.665 929 321.5C906.709 303.818 904.976 283.073 883 265C836.399 226.674 791.5 253 733.5 226Z" stroke="url(#paint52_linear_15_368)" stroke-width="6"/>
<path d="M1424 359C1399.19 353.275 1372.09 349.089 1360 371.5C1345.17 398.977 1398.87 402.969 1414.5 430C1435.06 465.552 1434.04 491.624 1438 532.5C1443.77 592.027 1413.5 650 1424 685C1429.75 704.163 1452.7 704.362 1472.5 701.5C1511.43 695.873 1504.5 606 1504.5 606C1504.5 606 1502.63 514.326 1482.5 460.5C1466.47 417.648 1468.58 369.285 1424 359Z" stroke="url(#paint53_linear_15_368)" stroke-width="6"/>
<path d="M877 1153L818 1115.5L811 1083.5C811 1083.5 830.854 1059.1 847 1047.5C864.091 1035.22 875.067 1018.95 895.5 1024C915.821 1029.02 920.441 1047.29 927.5 1067C935.665 1089.79 927.5 1129 927.5 1129L877 1153Z" stroke="url(#paint54_linear_15_368)" stroke-width="6"/>
<path d="M835.5 1080.5V1102L869.5 1127L907 1117.5V1080.5C907 1080.5 894.113 1055.78 879 1052.5C859.256 1048.22 835.5 1080.5 835.5 1080.5Z" stroke="url(#paint55_linear_15_368)" stroke-width="6"/>
<path d="M1143 288.5C1166.39 269.978 1188.43 278.096 1217 269.5C1232.14 264.946 1239.72 256.076 1255.5 257C1268.89 257.784 1279.76 258.542 1287.5 269.5C1299.24 286.114 1283.47 304.226 1268.5 318C1245.37 339.287 1219.26 321.363 1188 318C1163.48 315.362 1116.81 328.886 1126 306C1129.55 297.158 1135.53 294.415 1143 288.5Z" stroke="url(#paint56_linear_15_368)" stroke-width="6"/>
<path d="M906.5 145.5C862.719 121.322 763.309 124.571 802.5 93.5C814.093 84.3086 823.293 83.1282 837.5 79C903.306 59.8786 941.783 103.072 1007.5 122.5C1055.35 136.645 1128.93 112.107 1129 162C1129.02 178.672 1127.5 190.924 1115.5 202.5C1097.51 219.854 1076.42 204.381 1051.5 202.5C1021.09 200.205 1003.21 199.778 974.5 189.5C949.162 180.43 930.059 158.511 906.5 145.5Z" stroke="url(#paint57_linear_15_368)" stroke-width="6"/>
<path d="M987.5 1141.5L896.5 1226L857.5 1252L734.5 1392.5L760.5 1464L887.5 1509.5L1090.5 1516L1137 1392.5L1155.5 1275.5L1212.5 1204L1367 1226L1498.5 1295L1580 1161L1657 1001.5L1598.5 891L1527 878C1527 878 1514.63 929.484 1490.5 949.5C1460.7 974.221 1431.72 968.031 1393 967.5C1350.28 966.914 1321.5 955.5 1286.5 942.5C1238.36 924.62 1203.56 964.91 1155.5 983C1114.9 998.28 1089.83 1001.7 1051.5 1022C1028 1034.45 1008.83 1036.42 994 1058.5C975.867 1085.49 987.5 1141.5 987.5 1141.5Z" stroke="url(#paint58_linear_15_368)" stroke-width="6"/>
<path d="M787.5 1452.5L761.5 1392.5L898 1271.5L998 1165L1015 1103L1063 1084.5C1063 1084.5 1116.83 1022.98 1163 1002.5C1203.65 984.471 1230.63 984.973 1275 982C1327.14 978.506 1356.25 990.573 1408.5 991C1467.96 991.486 1560.5 982 1560.5 982L1521.5 1095L1488 1171.5L1303.5 1165L1195.5 1182L1133 1271.5L1120 1384.5L1063 1492.5L882.5 1486L787.5 1452.5Z" stroke="url(#paint59_linear_15_368)" stroke-width="6"/>
<path d="M1163 1157.5L1342.5 1141.5L1451.5 1128.5C1451.5 1128.5 1486.42 1098.66 1484 1074C1480.71 1040.54 1442.08 1040.07 1410 1030C1368.27 1016.9 1341.74 1030 1298 1030C1250.94 1030 1214.17 1000.51 1177.5 1030C1157.56 1046.04 1143.5 1086 1143.5 1086L1163 1157.5Z" stroke="url(#paint60_linear_15_368)" stroke-width="6"/>
<path d="M1175 1083.5L1190.5 1135L1314 1118.5H1412.5L1455.5 1092.5C1455.5 1092.5 1440.19 1068.38 1425.5 1058.5C1398.45 1040.3 1375.04 1051.52 1342.5 1049.5C1298.46 1046.76 1270.84 1034.06 1229.5 1049.5C1206 1058.28 1175 1083.5 1175 1083.5Z" stroke="url(#paint61_linear_15_368)" stroke-width="6"/>
<path d="M1085 576C1071.64 588.94 1081.88 604.904 1081.5 623.5C1081.35 630.723 1078.14 635.604 1081.5 642C1087.29 653.028 1103.26 639.238 1113 647C1123.91 655.697 1114.03 671.236 1124 681C1134.79 691.57 1148.23 697.719 1161.5 690.5C1175.01 683.153 1171.27 668.213 1173.5 653C1176.2 634.622 1178.82 622.348 1171 605.5C1161.64 585.338 1148.29 574.402 1126.5 570C1110.45 566.757 1096.76 564.608 1085 576Z" stroke="url(#paint62_linear_15_368)" stroke-width="6"/>
<path d="M1245.5 509C1237.2 493.008 1254.93 475.542 1242 463C1230.4 451.754 1210.02 470.904 1201 457.5C1195.51 449.341 1194.34 441.625 1198 432.5C1205.51 413.807 1229.35 436.766 1248.5 443C1271.34 450.433 1288.71 450.976 1304 469.5C1317.44 485.788 1319.47 499.906 1320.5 521C1321.08 532.954 1326.9 544.09 1317.5 551.5C1306.39 560.259 1296 545.625 1283.5 539C1266.79 530.146 1254.21 525.782 1245.5 509Z" stroke="url(#paint63_linear_15_368)" stroke-width="6"/>
<path d="M1004.5 915C973.594 927.563 922.611 922 932.5 946C935.431 953.115 944 962 944 962C944 962 968.555 985.2 988.5 990.5C1005.3 994.963 1016.82 996.843 1033 990.5L1033.08 990.469C1044.86 985.852 1053.56 982.437 1059 971C1064.03 960.418 1057.42 952.609 1059 941C1061.22 924.663 1083.84 912.965 1072.5 901C1065.82 893.953 1058.2 894.838 1048.5 894.5C1032.26 893.934 1019.55 908.881 1004.5 915Z" stroke="url(#paint64_linear_15_368)" stroke-width="6"/>
<path d="M1018 922.5C995.624 926.342 965.025 925.817 966 948.5C966.572 961.813 974.128 969.556 985.5 976.5C997.887 984.064 1010.26 987.792 1022.5 980C1031.8 974.084 1031.37 965.253 1036.5 955.5C1043.13 942.899 1060.28 934.082 1052 922.5C1044.28 911.699 1031.09 920.253 1018 922.5Z" stroke="url(#paint65_linear_15_368)" stroke-width="6"/>
<path d="M431.5 786C456.725 763.383 468.184 745.58 499 731.5C504.178 729.134 506.967 727.338 512.5 726C526.511 722.611 536.752 723.898 549 731.5C557.336 736.674 562.871 740.7 566 750C571.715 766.987 556.583 777.75 543.5 790C526.634 805.792 508.826 800.493 488 810.5C458.516 824.667 450.2 850.739 418 856.5C403.584 859.079 387.354 869.442 380.5 856.5C375.554 847.159 382.074 839.813 386 830C395.181 807.05 413.096 802.501 431.5 786Z" stroke="url(#paint66_linear_15_368)" stroke-width="6"/>
<path d="M453 779C442.001 790.818 441.448 801.692 431 814C423.313 823.055 403.858 824.293 409 835C414.374 846.189 439 824.5 439 824.5C439 824.5 460.435 808.232 475.5 800C494.719 789.499 513.87 796.143 527.5 779C535.128 769.406 545.658 760.597 539.5 750C533.194 739.148 519.997 748.172 507.5 747C495.003 745.828 469.815 760.933 453 779Z" stroke="url(#paint67_linear_15_368)" stroke-width="6"/>
<path d="M750 570C747.538 587.213 742.535 617.312 759.5 613.5C767.601 611.68 769.307 605.03 775.5 599.5C786.012 590.112 792.563 585.469 802 575C811.622 564.325 828.061 559.285 824 545.5C820.965 535.198 812.281 532.103 802 529C788.939 525.058 778.735 526.76 767.5 534.5C754.771 543.268 752.188 554.699 750 570Z" stroke="url(#paint68_linear_15_368)" stroke-width="6"/>
<path d="M1335.5 860C1322.22 844.965 1337.53 797.608 1375.5 785.5C1416.99 772.269 1466.68 789.957 1467 833.5C1467.23 863.935 1452.05 886.694 1424 898.5C1404.38 906.756 1382.78 913.535 1369.5 898.5L1335.5 860Z" stroke="url(#paint69_linear_15_368)" stroke-width="6"/>
<path d="M1378 815.5C1365.89 823.352 1359.33 835.681 1363.5 849.5C1365.49 856.085 1373.5 864 1373.5 864C1373.5 864 1380.19 877.939 1388.5 881C1402.33 886.094 1411.54 872.697 1420.5 861C1427.98 851.241 1435.5 843.127 1431.5 831.5C1428.49 822.744 1422.34 819.528 1414 815.5C1401.34 809.384 1389.8 807.853 1378 815.5Z" stroke="url(#paint70_linear_15_368)" stroke-width="6"/>
<path d="M1450.5 211L1529 293L1570.5 219.5L1665.5 166L1686 68.5H1581V-139L1543 -287.5L1272 -313.5L1081.5 -242.5L956.5 -109L909 -8L1238.5 113.5L1450.5 211Z" stroke="url(#paint71_linear_15_368)" stroke-width="6"/>
<path d="M951.5 -35L1031.5 14.5L1110 37.5L1241 64.5L1371.5 150.5L1500 191L1527.5 112.5C1527.5 112.5 1476.24 90.8557 1443 78C1406.19 63.7641 1376.59 70.7153 1348 43.5C1307.03 4.50111 1319.5 -98.5 1319.5 -98.5L1276.5 -234H1176.5L1019.5 -154L951.5 -35Z" stroke="url(#paint72_linear_15_368)" stroke-width="6"/>
<path d="M1370.5 -28L1333.5 -229L1357.5 -273L1502.5 -221L1546.5 -106.5V48C1546.5 48 1484.27 38.3461 1448 22C1415.16 7.20139 1370.5 -28 1370.5 -28Z" stroke="url(#paint73_linear_15_368)" stroke-width="6"/>
<path d="M1092 -154L1039.5 -54.5L1031.5 -20C1031.5 -20 1067.97 -6.73662 1092 -0.5C1140.08 11.9811 1180.09 49.1097 1218 17C1237.86 0.180237 1248 -42.5 1248 -42.5V-144.5L1188.5 -183L1092 -154Z" stroke="url(#paint74_linear_15_368)" stroke-width="6"/>
<path d="M1392 -81.5L1363.5 -191L1386 -228L1438.5 -177L1512 -87.5L1539.5 28C1539.5 28 1481.07 21.8463 1451.5 1.5C1418.65 -21.1089 1392 -81.5 1392 -81.5Z" stroke="url(#paint75_linear_15_368)" stroke-width="6"/>
<path d="M1493 137.5C1507.65 92.8501 1424.64 110.941 1381 93.5C1357.73 84.2007 1346.55 69.1059 1321.5 69.5C1277.67 70.1895 1364.71 127.228 1405 144.5C1432.74 156.392 1459.76 179.94 1481 158.5C1487.65 151.79 1490.05 146.475 1493 137.5Z" stroke="url(#paint76_linear_15_368)" stroke-width="6"/>
<path d="M468.5 28C499.11 36.7077 526.779 58.5701 558.5 56C570.829 55.0011 577.608 52.9049 589.5 49.5C617.877 41.375 630.103 27.4863 657.5 16.5C685.469 5.28391 714.782 8.89873 731 -16.5C744.661 -37.8945 731 -72 731 -72L657.5 -108L578 -146L496 -122.5L444 -52.5C444 -52.5 376.71 -29.8793 382.5 0.5C389.101 35.137 434.585 18.3523 468.5 28Z" stroke="url(#paint77_linear_15_368)" stroke-width="6"/>
<path d="M455 -56C455 -56 407.301 -19.6295 422.5 1C432.133 14.0743 446.225 10.1411 462 14C489.46 20.7175 509.678 35.9101 534 21.5C546.374 14.1684 547.088 2.75525 558.5 -6C590.133 -30.2695 660 -17 660 -17L676.5 -69L575 -130L515.5 -112.5L455 -56Z" stroke="url(#paint78_linear_15_368)" stroke-width="6"/>
<path d="M531 -1C504.178 17.5565 472.5 7.5 439 -1C433.434 -2.41238 443.5 -15 443.5 -15L461.5 -36.5L486.5 -59.5L517 -96L558.5 -112L586 -72.5L607 -28.5L546 -24C546 -24 544.985 -10.6753 531 -1Z" stroke="url(#paint79_linear_15_368)" stroke-width="6"/>
<path d="M366 -27.5L462.5 -148.5L428.5 -272.5L351.5 -318L93.5 -302.5L-69 -289.5C-133.167 -224.333 -263.5 -91.5 -271.5 -81.5C-279.5 -71.5 -322.167 74.6667 -342.5 146.5L-294 292L-200 354.5L-114.5 255L-12 191C-12 191 73.5 236.5 102 247.5C114.758 252.424 110.767 241.403 117.5 229.5C135.343 197.955 101.777 174.241 102 138C102.263 95.2603 95.4108 61.8421 125 31C162.428 -8.0127 210.946 34.6031 263 20C305.649 8.03534 366 -27.5 366 -27.5Z" stroke="url(#paint80_linear_15_368)" stroke-width="6"/>
<path d="M-265.5 243.5L-203 325L-178.5 293.5L-110.5 230.5L-30.5 183.5C-30.5 183.5 -3.57089 181.54 13.5 183.5C45.7072 187.199 67.6621 232.891 92 210.5C104.5 199 85.9974 139.567 85 94C84.4274 67.8411 70.8683 49.0207 85 27C97.8787 6.93181 116.417 6.15593 139 -1.5C184.861 -17.0477 263 -1.5 263 -1.5L323 -37L407 -145.5V-209.5L281.5 -221L31 -189.5L-103 -121.5L-265.5 27V243.5Z" stroke="url(#paint81_linear_15_368)" stroke-width="6"/>
<path d="M-233 222L-204.5 300.5L-156 222L-83 195L-35 159.5C-35 159.5 22.2347 180.096 46.5 159.5C59.629 148.356 64.0441 137.76 68 121C73.3031 98.5318 57.9775 85.5353 59.5 62.5C61.069 38.761 60.1904 21.3204 76.5 4C95.1086 -15.7619 143.5 -14.5 143.5 -14.5H259L289 -61.5L266 -120L76.5 -105.5L-101.5 -61.5L-184.5 79.5L-233 222Z" stroke="url(#paint82_linear_15_368)" stroke-width="6"/>
<path d="M-160 116.5L-206 229.5L-144.5 191L-89 169.5L-27.5 144C-27.5 144 27.8997 156.901 45 134C59.3697 114.756 45 96.5172 45 72.5C45 55.3169 40.3083 45.0302 45 28.5C51.6028 5.2363 83.5 -20 83.5 -20L173.5 -57H90.5L-42 -16L-160 116.5Z" stroke="url(#paint83_linear_15_368)" stroke-width="6"/>
</g>
<defs>
<linearGradient id="paint0_linear_15_368" x1="745.5" y1="0" x2="745.5" y2="1064" gradientUnits="userSpaceOnUse">
<stop stop-color="#171B27"/>
<stop offset="1" stop-color="#1A2755"/>
</linearGradient>
<linearGradient id="paint1_linear_15_368" x1="67.6908" y1="376" x2="67.6908" y2="757.154" gradientUnits="userSpaceOnUse">
<stop stop-color="#972097"/>
<stop offset="1" stop-color="#602B60" stop-opacity="0"/>
</linearGradient>
<linearGradient id="paint2_linear_15_368" x1="75.2877" y1="401" x2="75.2877" y2="699.412" gradientUnits="userSpaceOnUse">
<stop stop-color="#972097"/>
<stop offset="1" stop-color="#602B60" stop-opacity="0"/>
</linearGradient>
<linearGradient id="paint3_linear_15_368" x1="108.731" y1="446" x2="108.731" y2="614.572" gradientUnits="userSpaceOnUse">
<stop stop-color="#972097"/>
<stop offset="1" stop-color="#602B60" stop-opacity="0"/>
</linearGradient>
<linearGradient id="paint4_linear_15_368" x1="118.123" y1="461.5" x2="118.123" y2="602.416" gradientUnits="userSpaceOnUse">
<stop stop-color="#972097"/>
<stop offset="1" stop-color="#602B60" stop-opacity="0"/>
</linearGradient>
<linearGradient id="paint5_linear_15_368" x1="119.702" y1="631" x2="119.702" y2="985.57" gradientUnits="userSpaceOnUse">
<stop stop-color="#972097"/>
<stop offset="1" stop-color="#602B60" stop-opacity="0"/>
</linearGradient>
<linearGradient id="paint6_linear_15_368" x1="112.82" y1="651" x2="112.82" y2="966.895" gradientUnits="userSpaceOnUse">
<stop stop-color="#972097"/>
<stop offset="1" stop-color="#602B60" stop-opacity="0"/>
</linearGradient>
<linearGradient id="paint7_linear_15_368" x1="111.378" y1="839.707" x2="111.378" y2="944.504" gradientUnits="userSpaceOnUse">
<stop stop-color="#972097"/>
<stop offset="1" stop-color="#602B60" stop-opacity="0"/>
</linearGradient>
<linearGradient id="paint8_linear_15_368" x1="114.201" y1="861.333" x2="114.201" y2="932.575" gradientUnits="userSpaceOnUse">
<stop stop-color="#972097"/>
<stop offset="1" stop-color="#602B60" stop-opacity="0"/>
</linearGradient>
<linearGradient id="paint9_linear_15_368" x1="118.797" y1="239.557" x2="118.797" y2="481.934" gradientUnits="userSpaceOnUse">
<stop stop-color="#972097"/>
<stop offset="1" stop-color="#602B60" stop-opacity="0"/>
</linearGradient>
<linearGradient id="paint10_linear_15_368" x1="17.0166" y1="267.957" x2="17.0166" y2="411.591" gradientUnits="userSpaceOnUse">
<stop stop-color="#972097"/>
<stop offset="1" stop-color="#602B60" stop-opacity="0"/>
</linearGradient>
<linearGradient id="paint11_linear_15_368" x1="20.7284" y1="288.458" x2="20.7284" y2="392.739" gradientUnits="userSpaceOnUse">
<stop stop-color="#972097"/>
<stop offset="1" stop-color="#602B60" stop-opacity="0"/>
</linearGradient>
<linearGradient id="paint12_linear_15_368" x1="347.785" y1="239.991" x2="347.785" y2="485.019" gradientUnits="userSpaceOnUse">
<stop stop-color="#972097"/>
<stop offset="1" stop-color="#602B60" stop-opacity="0"/>
</linearGradient>
<linearGradient id="paint13_linear_15_368" x1="241.041" y1="297.379" x2="241.041" y2="387.038" gradientUnits="userSpaceOnUse">
<stop stop-color="#972097"/>
<stop offset="1" stop-color="#602B60" stop-opacity="0"/>
</linearGradient>
<linearGradient id="paint14_linear_15_368" x1="252.065" y1="306.312" x2="252.065" y2="372.767" gradientUnits="userSpaceOnUse">
<stop stop-color="#972097"/>
<stop offset="1" stop-color="#602B60" stop-opacity="0"/>
</linearGradient>
<linearGradient id="paint15_linear_15_368" x1="438.096" y1="259.444" x2="438.096" y2="443.858" gradientUnits="userSpaceOnUse">
<stop stop-color="#972097"/>
<stop offset="1" stop-color="#602B60" stop-opacity="0"/>
</linearGradient>
<linearGradient id="paint16_linear_15_368" x1="435.775" y1="278.289" x2="435.775" y2="414.491" gradientUnits="userSpaceOnUse">
<stop stop-color="#972097"/>
<stop offset="1" stop-color="#602B60" stop-opacity="0"/>
</linearGradient>
<linearGradient id="paint17_linear_15_368" x1="441.817" y1="294.016" x2="441.817" y2="398.267" gradientUnits="userSpaceOnUse">
<stop stop-color="#972097"/>
<stop offset="1" stop-color="#602B60" stop-opacity="0"/>
</linearGradient>
<linearGradient id="paint18_linear_15_368" x1="589.717" y1="359.435" x2="589.717" y2="727.125" gradientUnits="userSpaceOnUse">
<stop stop-color="#972097"/>
<stop offset="1" stop-color="#602B60" stop-opacity="0"/>
</linearGradient>
<linearGradient id="paint19_linear_15_368" x1="585.186" y1="418.987" x2="585.186" y2="681.55" gradientUnits="userSpaceOnUse">
<stop stop-color="#972097"/>
<stop offset="1" stop-color="#602B60" stop-opacity="0"/>
</linearGradient>
<linearGradient id="paint20_linear_15_368" x1="579.394" y1="451.376" x2="579.394" y2="652.354" gradientUnits="userSpaceOnUse">
<stop stop-color="#972097"/>
<stop offset="1" stop-color="#602B60" stop-opacity="0"/>
</linearGradient>
<linearGradient id="paint21_linear_15_368" x1="581.157" y1="490.5" x2="581.157" y2="603.525" gradientUnits="userSpaceOnUse">
<stop stop-color="#972097"/>
<stop offset="1" stop-color="#602B60" stop-opacity="0"/>
</linearGradient>
<linearGradient id="paint22_linear_15_368" x1="443.241" y1="912.996" x2="443.241" y2="1205" gradientUnits="userSpaceOnUse">
<stop stop-color="#972097"/>
<stop offset="1" stop-color="#602B60" stop-opacity="0"/>
</linearGradient>
<linearGradient id="paint23_linear_15_368" x1="437.379" y1="937.73" x2="437.379" y2="1161.5" gradientUnits="userSpaceOnUse">
<stop stop-color="#972097"/>
<stop offset="1" stop-color="#602B60" stop-opacity="0"/>
</linearGradient>
<linearGradient id="paint24_linear_15_368" x1="452.391" y1="976.334" x2="452.391" y2="1127.5" gradientUnits="userSpaceOnUse">
<stop stop-color="#972097"/>
<stop offset="1" stop-color="#602B60" stop-opacity="0"/>
</linearGradient>
<linearGradient id="paint25_linear_15_368" x1="730.483" y1="459.121" x2="730.483" y2="1066.56" gradientUnits="userSpaceOnUse">
<stop stop-color="#972097"/>
<stop offset="1" stop-color="#602B60" stop-opacity="0"/>
</linearGradient>
<linearGradient id="paint26_linear_15_368" x1="743.427" y1="566.473" x2="743.427" y2="1028.08" gradientUnits="userSpaceOnUse">
<stop stop-color="#972097"/>
<stop offset="1" stop-color="#602B60" stop-opacity="0"/>
</linearGradient>
<linearGradient id="paint27_linear_15_368" x1="788.647" y1="502.743" x2="788.647" y2="689.223" gradientUnits="userSpaceOnUse">
<stop stop-color="#972097"/>
<stop offset="1" stop-color="#602B60" stop-opacity="0"/>
</linearGradient>
<linearGradient id="paint28_linear_15_368" x1="772.475" y1="657.385" x2="772.475" y2="961.538" gradientUnits="userSpaceOnUse">
<stop stop-color="#972097"/>
<stop offset="1" stop-color="#602B60" stop-opacity="0"/>
</linearGradient>
<linearGradient id="paint29_linear_15_368" x1="751.937" y1="797.494" x2="751.937" y2="924.111" gradientUnits="userSpaceOnUse">
<stop stop-color="#972097"/>
<stop offset="1" stop-color="#602B60" stop-opacity="0"/>
</linearGradient>
<linearGradient id="paint30_linear_15_368" x1="522.904" y1="33.01" x2="522.904" y2="465.038" gradientUnits="userSpaceOnUse">
<stop stop-color="#972097"/>
<stop offset="1" stop-color="#602B60" stop-opacity="0"/>
</linearGradient>
<linearGradient id="paint31_linear_15_368" x1="366.9" y1="47.6958" x2="366.9" y2="254.382" gradientUnits="userSpaceOnUse">
<stop stop-color="#972097"/>
<stop offset="1" stop-color="#602B60" stop-opacity="0"/>
</linearGradient>
<linearGradient id="paint32_linear_15_368" x1="263.065" y1="76.5784" x2="263.065" y2="222.944" gradientUnits="userSpaceOnUse">
<stop stop-color="#972097"/>
<stop offset="1" stop-color="#602B60" stop-opacity="0"/>
</linearGradient>
<linearGradient id="paint33_linear_15_368" x1="450.207" y1="59.1514" x2="450.207" y2="183.916" gradientUnits="userSpaceOnUse">
<stop stop-color="#972097"/>
<stop offset="1" stop-color="#602B60" stop-opacity="0"/>
</linearGradient>
<linearGradient id="paint34_linear_15_368" x1="262.647" y1="88.3931" x2="262.647" y2="191.869" gradientUnits="userSpaceOnUse">
<stop stop-color="#972097"/>
<stop offset="1" stop-color="#602B60" stop-opacity="0"/>
</linearGradient>
<linearGradient id="paint35_linear_15_368" x1="456.793" y1="71.9131" x2="456.793" y2="167.22" gradientUnits="userSpaceOnUse">
<stop stop-color="#972097"/>
<stop offset="1" stop-color="#602B60" stop-opacity="0"/>
</linearGradient>
<linearGradient id="paint36_linear_15_368" x1="719.52" y1="214.935" x2="719.52" y2="426.782" gradientUnits="userSpaceOnUse">
<stop stop-color="#972097"/>
<stop offset="1" stop-color="#602B60" stop-opacity="0"/>
</linearGradient>
<linearGradient id="paint37_linear_15_368" x1="773.316" y1="332.301" x2="773.316" y2="409.751" gradientUnits="userSpaceOnUse">
<stop stop-color="#972097"/>
<stop offset="1" stop-color="#602B60" stop-opacity="0"/>
</linearGradient>
<linearGradient id="paint38_linear_15_368" x1="642.675" y1="237.282" x2="642.675" y2="329.337" gradientUnits="userSpaceOnUse">
<stop stop-color="#972097"/>
<stop offset="1" stop-color="#602B60" stop-opacity="0"/>
</linearGradient>
<linearGradient id="paint39_linear_15_368" x1="-53.25" y1="904" x2="-53.25" y2="1447.5" gradientUnits="userSpaceOnUse">
<stop stop-color="#972097"/>
<stop offset="1" stop-color="#602B60" stop-opacity="0"/>
</linearGradient>
<linearGradient id="paint40_linear_15_368" x1="-133.25" y1="924" x2="-133.25" y2="1398.5" gradientUnits="userSpaceOnUse">
<stop stop-color="#972097"/>
<stop offset="1" stop-color="#602B60" stop-opacity="0"/>
</linearGradient>
<linearGradient id="paint41_linear_15_368" x1="-168.75" y1="956.5" x2="-168.75" y2="1370.5" gradientUnits="userSpaceOnUse">
<stop stop-color="#972097"/>
<stop offset="1" stop-color="#602B60" stop-opacity="0"/>
</linearGradient>
<linearGradient id="paint42_linear_15_368" x1="690.75" y1="995.569" x2="690.75" y2="1464" gradientUnits="userSpaceOnUse">
<stop stop-color="#972097"/>
<stop offset="1" stop-color="#602B60" stop-opacity="0"/>
</linearGradient>
<linearGradient id="paint43_linear_15_368" x1="1102.77" y1="403.071" x2="1102.77" y2="1009.84" gradientUnits="userSpaceOnUse">
<stop stop-color="#972097"/>
<stop offset="1" stop-color="#602B60" stop-opacity="0"/>
</linearGradient>
<linearGradient id="paint44_linear_15_368" x1="974.603" y1="721.926" x2="974.603" y2="890.883" gradientUnits="userSpaceOnUse">
<stop stop-color="#972097"/>
<stop offset="1" stop-color="#602B60" stop-opacity="0"/>
</linearGradient>
<linearGradient id="paint45_linear_15_368" x1="970.545" y1="761.384" x2="970.545" y2="872.609" gradientUnits="userSpaceOnUse">
<stop stop-color="#972097"/>
<stop offset="1" stop-color="#602B60" stop-opacity="0"/>
</linearGradient>
<linearGradient id="paint46_linear_15_368" x1="1139" y1="434.908" x2="1139" y2="973.697" gradientUnits="userSpaceOnUse">
<stop stop-color="#972097"/>
<stop offset="1" stop-color="#602B60" stop-opacity="0"/>
</linearGradient>
<linearGradient id="paint47_linear_15_368" x1="1137.6" y1="480.877" x2="1137.6" y2="897.065" gradientUnits="userSpaceOnUse">
<stop stop-color="#972097"/>
<stop offset="1" stop-color="#602B60" stop-opacity="0"/>
</linearGradient>
<linearGradient id="paint48_linear_15_368" x1="1131.64" y1="522.266" x2="1131.64" y2="830.432" gradientUnits="userSpaceOnUse">
<stop stop-color="#972097"/>
<stop offset="1" stop-color="#602B60" stop-opacity="0"/>
</linearGradient>
<linearGradient id="paint49_linear_15_368" x1="1102.7" y1="11.2666" x2="1102.7" y2="946.927" gradientUnits="userSpaceOnUse">
<stop stop-color="#972097"/>
<stop offset="1" stop-color="#602B60" stop-opacity="0"/>
</linearGradient>
<linearGradient id="paint50_linear_15_368" x1="1080.03" y1="60.8303" x2="1080.03" y2="783.887" gradientUnits="userSpaceOnUse">
<stop stop-color="#972097"/>
<stop offset="1" stop-color="#602B60" stop-opacity="0"/>
</linearGradient>
<linearGradient id="paint51_linear_15_368" x1="936.463" y1="35.5178" x2="936.463" y2="231.459" gradientUnits="userSpaceOnUse">
<stop stop-color="#972097"/>
<stop offset="1" stop-color="#602B60" stop-opacity="0"/>
</linearGradient>
<linearGradient id="paint52_linear_15_368" x1="1012.81" y1="161.129" x2="1012.81" y2="345.337" gradientUnits="userSpaceOnUse">
<stop stop-color="#972097"/>
<stop offset="1" stop-color="#602B60" stop-opacity="0"/>
</linearGradient>
<linearGradient id="paint53_linear_15_368" x1="1431.21" y1="354.458" x2="1431.21" y2="702.836" gradientUnits="userSpaceOnUse">
<stop stop-color="#972097"/>
<stop offset="1" stop-color="#602B60" stop-opacity="0"/>
</linearGradient>
<linearGradient id="paint54_linear_15_368" x1="871.064" y1="1023.06" x2="871.064" y2="1153" gradientUnits="userSpaceOnUse">
<stop stop-color="#972097"/>
<stop offset="1" stop-color="#602B60" stop-opacity="0"/>
</linearGradient>
<linearGradient id="paint55_linear_15_368" x1="871.25" y1="1052.11" x2="871.25" y2="1127" gradientUnits="userSpaceOnUse">
<stop stop-color="#972097"/>
<stop offset="1" stop-color="#602B60" stop-opacity="0"/>
</linearGradient>
<linearGradient id="paint56_linear_15_368" x1="1208.2" y1="256.933" x2="1208.2" y2="328.254" gradientUnits="userSpaceOnUse">
<stop stop-color="#972097"/>
<stop offset="1" stop-color="#602B60" stop-opacity="0"/>
</linearGradient>
<linearGradient id="paint57_linear_15_368" x1="961.269" y1="74.2251" x2="961.269" y2="210.648" gradientUnits="userSpaceOnUse">
<stop stop-color="#972097"/>
<stop offset="1" stop-color="#602B60" stop-opacity="0"/>
</linearGradient>
<linearGradient id="paint58_linear_15_368" x1="1195.75" y1="878" x2="1195.75" y2="1516" gradientUnits="userSpaceOnUse">
<stop stop-color="#972097"/>
<stop offset="1" stop-color="#602B60" stop-opacity="0"/>
</linearGradient>
<linearGradient id="paint59_linear_15_368" x1="1161" y1="981.366" x2="1161" y2="1492.5" gradientUnits="userSpaceOnUse">
<stop stop-color="#972097"/>
<stop offset="1" stop-color="#602B60" stop-opacity="0"/>
</linearGradient>
<linearGradient id="paint60_linear_15_368" x1="1313.81" y1="1016.89" x2="1313.81" y2="1157.5" gradientUnits="userSpaceOnUse">
<stop stop-color="#972097"/>
<stop offset="1" stop-color="#602B60" stop-opacity="0"/>
</linearGradient>
<linearGradient id="paint61_linear_15_368" x1="1315.25" y1="1041.99" x2="1315.25" y2="1135" gradientUnits="userSpaceOnUse">
<stop stop-color="#972097"/>
<stop offset="1" stop-color="#602B60" stop-opacity="0"/>
</linearGradient>
<linearGradient id="paint62_linear_15_368" x1="1127.15" y1="567.413" x2="1127.15" y2="693.629" gradientUnits="userSpaceOnUse">
<stop stop-color="#972097"/>
<stop offset="1" stop-color="#602B60" stop-opacity="0"/>
</linearGradient>
<linearGradient id="paint63_linear_15_368" x1="1259.35" y1="425.313" x2="1259.35" y2="554.218" gradientUnits="userSpaceOnUse">
<stop stop-color="#972097"/>
<stop offset="1" stop-color="#602B60" stop-opacity="0"/>
</linearGradient>
<linearGradient id="paint64_linear_15_368" x1="1003.46" y1="894.484" x2="1003.46" y2="994.583" gradientUnits="userSpaceOnUse">
<stop stop-color="#972097"/>
<stop offset="1" stop-color="#602B60" stop-opacity="0"/>
</linearGradient>
<linearGradient id="paint65_linear_15_368" x1="1010.1" y1="917.16" x2="1010.1" y2="984.316" gradientUnits="userSpaceOnUse">
<stop stop-color="#972097"/>
<stop offset="1" stop-color="#602B60" stop-opacity="0"/>
</linearGradient>
<linearGradient id="paint66_linear_15_368" x1="472.981" y1="724.229" x2="472.981" y2="862.869" gradientUnits="userSpaceOnUse">
<stop stop-color="#972097"/>
<stop offset="1" stop-color="#602B60" stop-opacity="0"/>
</linearGradient>
<linearGradient id="paint67_linear_15_368" x1="474.75" y1="744.588" x2="474.75" y2="838.206" gradientUnits="userSpaceOnUse">
<stop stop-color="#972097"/>
<stop offset="1" stop-color="#602B60" stop-opacity="0"/>
</linearGradient>
<linearGradient id="paint68_linear_15_368" x1="785.997" y1="526.951" x2="785.997" y2="613.83" gradientUnits="userSpaceOnUse">
<stop stop-color="#972097"/>
<stop offset="1" stop-color="#602B60" stop-opacity="0"/>
</linearGradient>
<linearGradient id="paint69_linear_15_368" x1="1398.9" y1="781.203" x2="1398.9" y2="907.412" gradientUnits="userSpaceOnUse">
<stop stop-color="#972097"/>
<stop offset="1" stop-color="#602B60" stop-opacity="0"/>
</linearGradient>
<linearGradient id="paint70_linear_15_368" x1="1397.43" y1="810.323" x2="1397.43" y2="882.112" gradientUnits="userSpaceOnUse">
<stop stop-color="#972097"/>
<stop offset="1" stop-color="#602B60" stop-opacity="0"/>
</linearGradient>
<linearGradient id="paint71_linear_15_368" x1="1297.5" y1="-313.5" x2="1297.5" y2="293" gradientUnits="userSpaceOnUse">
<stop stop-color="#972097"/>
<stop offset="1" stop-color="#602B60" stop-opacity="0"/>
</linearGradient>
<linearGradient id="paint72_linear_15_368" x1="1239.5" y1="-234" x2="1239.5" y2="191" gradientUnits="userSpaceOnUse">
<stop stop-color="#972097"/>
<stop offset="1" stop-color="#602B60" stop-opacity="0"/>
</linearGradient>
<linearGradient id="paint73_linear_15_368" x1="1440" y1="-273" x2="1440" y2="48" gradientUnits="userSpaceOnUse">
<stop stop-color="#972097"/>
<stop offset="1" stop-color="#602B60" stop-opacity="0"/>
</linearGradient>
<linearGradient id="paint74_linear_15_368" x1="1139.75" y1="-183" x2="1139.75" y2="29.7568" gradientUnits="userSpaceOnUse">
<stop stop-color="#972097"/>
<stop offset="1" stop-color="#602B60" stop-opacity="0"/>
</linearGradient>
<linearGradient id="paint75_linear_15_368" x1="1451.5" y1="-228" x2="1451.5" y2="28" gradientUnits="userSpaceOnUse">
<stop stop-color="#972097"/>
<stop offset="1" stop-color="#602B60" stop-opacity="0"/>
</linearGradient>
<linearGradient id="paint76_linear_15_368" x1="1402.09" y1="69.4924" x2="1402.09" y2="167.184" gradientUnits="userSpaceOnUse">
<stop stop-color="#972097"/>
<stop offset="1" stop-color="#602B60" stop-opacity="0"/>
</linearGradient>
<linearGradient id="paint77_linear_15_368" x1="559.609" y1="-146" x2="559.609" y2="56.2086" gradientUnits="userSpaceOnUse">
<stop stop-color="#972097"/>
<stop offset="1" stop-color="#602B60" stop-opacity="0"/>
</linearGradient>
<linearGradient id="paint78_linear_15_368" x1="548.005" y1="-130" x2="548.005" y2="27.5047" gradientUnits="userSpaceOnUse">
<stop stop-color="#972097"/>
<stop offset="1" stop-color="#602B60" stop-opacity="0"/>
</linearGradient>
<linearGradient id="paint79_linear_15_368" x1="522.161" y1="-112" x2="522.161" y2="9.47552" gradientUnits="userSpaceOnUse">
<stop stop-color="#972097"/>
<stop offset="1" stop-color="#602B60" stop-opacity="0"/>
</linearGradient>
<linearGradient id="paint80_linear_15_368" x1="60" y1="-318" x2="60" y2="354.5" gradientUnits="userSpaceOnUse">
<stop stop-color="#972097"/>
<stop offset="1" stop-color="#602B60" stop-opacity="0"/>
</linearGradient>
<linearGradient id="paint81_linear_15_368" x1="70.75" y1="-221" x2="70.75" y2="325" gradientUnits="userSpaceOnUse">
<stop stop-color="#972097"/>
<stop offset="1" stop-color="#602B60" stop-opacity="0"/>
</linearGradient>
<linearGradient id="paint82_linear_15_368" x1="28" y1="-120" x2="28" y2="300.5" gradientUnits="userSpaceOnUse">
<stop stop-color="#972097"/>
<stop offset="1" stop-color="#602B60" stop-opacity="0"/>
</linearGradient>
<linearGradient id="paint83_linear_15_368" x1="-16.25" y1="-57" x2="-16.25" y2="229.5" gradientUnits="userSpaceOnUse">
<stop stop-color="#972097"/>
<stop offset="1" stop-color="#602B60" stop-opacity="0"/>
</linearGradient>
</defs>
</svg>
