<svg width="3840" height="2160" viewBox="0 0 3840 2160" fill="none" xmlns="http://www.w3.org/2000/svg">
<rect width="3840" height="2160" fill="#366DDA"/>
<rect x="1307" y="1104" width="1179" height="17" fill="#172541"/>
<path d="M1723.53 1253V1146.8H1728.93V1253H1723.53ZM1734.33 1253V1146.8H1750.53V1253H1734.33ZM1766.73 1253V1146.8H1772.13V1253H1766.73ZM1777.53 1253V1146.8H1782.93V1253H1777.53ZM1788.33 1253V1146.8H1804.53V1253H1788.33ZM1754.85 1306.64L1760.25 1301.24C1763.85 1297.64 1766.55 1294.76 1768.35 1292.6C1770.15 1290.56 1771.59 1288.52 1772.67 1286.48C1773.75 1284.56 1774.29 1282.46 1774.29 1280.18C1774.29 1277.54 1773.69 1275.62 1772.49 1274.42C1771.17 1273.22 1769.43 1272.62 1767.27 1272.62C1763.91 1272.62 1761.09 1274 1758.81 1276.76C1758.33 1277.48 1758.09 1278.08 1758.09 1278.56C1758.09 1278.92 1758.09 1279.16 1758.09 1279.28L1757.73 1279.64L1757.37 1279.28L1753.95 1276.58C1755.27 1273.94 1757.07 1271.96 1759.35 1270.64C1761.63 1269.2 1764.27 1268.48 1767.27 1268.48C1770.75 1268.48 1773.63 1269.56 1775.91 1271.72C1778.07 1273.88 1779.15 1276.76 1779.15 1280.36C1779.15 1282.76 1778.55 1285.1 1777.35 1287.38C1776.27 1289.66 1774.83 1291.82 1773.03 1293.86C1771.23 1295.9 1768.71 1298.54 1765.47 1301.78L1760.97 1306.28H1776.45C1777.17 1306.28 1777.71 1306.28 1778.07 1306.28C1778.31 1306.16 1778.61 1305.98 1778.97 1305.74H1779.33V1310.42H1754.85V1306.64ZM1810.02 1253V1146.8H1815.42V1253H1810.02ZM1820.82 1253V1146.8H1826.22V1253H1820.82ZM1842.42 1253V1146.8H1858.62V1253H1842.42ZM1864.02 1253V1146.8H1880.22V1253H1864.02ZM1885.62 1253V1146.8H1891.02V1253H1885.62ZM1853.22 1268.48C1857.3 1268.48 1860.48 1270.34 1862.76 1274.06C1865.04 1277.9 1866.18 1283.12 1866.18 1289.72C1866.18 1296.56 1865.04 1301.84 1862.76 1305.56C1860.6 1309.28 1857.42 1311.14 1853.22 1311.14C1849.02 1311.14 1845.84 1309.28 1843.68 1305.56C1841.4 1301.84 1840.26 1296.56 1840.26 1289.72C1840.26 1283.12 1841.4 1277.9 1843.68 1274.06C1845.96 1270.34 1849.14 1268.48 1853.22 1268.48ZM1853.22 1272.62C1850.7 1272.62 1848.72 1274.12 1847.28 1277.12C1845.84 1280.24 1845.12 1284.44 1845.12 1289.72C1845.12 1292.72 1845.3 1295.3 1845.66 1297.46L1859.88 1279.1C1859.28 1277.06 1858.38 1275.44 1857.18 1274.24C1856.1 1273.16 1854.78 1272.62 1853.22 1272.62ZM1853.22 1307C1855.74 1307 1857.72 1305.56 1859.16 1302.68C1860.6 1299.68 1861.32 1295.36 1861.32 1289.72C1861.32 1287.2 1861.14 1284.98 1860.78 1283.06L1846.74 1301.24C1848.06 1305.08 1850.22 1307 1853.22 1307ZM1896.5 1253V1146.8H1901.9V1253H1896.5ZM1907.3 1253V1146.8H1923.5V1253H1907.3ZM1939.7 1253V1146.8H1945.1V1253H1939.7ZM1950.5 1253V1146.8H1955.9V1253H1950.5ZM1961.3 1253V1146.8H1977.5V1253H1961.3ZM1927.82 1306.64L1933.22 1301.24C1936.82 1297.64 1939.52 1294.76 1941.32 1292.6C1943.12 1290.56 1944.56 1288.52 1945.64 1286.48C1946.72 1284.56 1947.26 1282.46 1947.26 1280.18C1947.26 1277.54 1946.66 1275.62 1945.46 1274.42C1944.14 1273.22 1942.4 1272.62 1940.24 1272.62C1936.88 1272.62 1934.06 1274 1931.78 1276.76C1931.3 1277.48 1931.06 1278.08 1931.06 1278.56C1931.06 1278.92 1931.06 1279.16 1931.06 1279.28L1930.7 1279.64L1930.34 1279.28L1926.92 1276.58C1928.24 1273.94 1930.04 1271.96 1932.32 1270.64C1934.6 1269.2 1937.24 1268.48 1940.24 1268.48C1943.72 1268.48 1946.6 1269.56 1948.88 1271.72C1951.04 1273.88 1952.12 1276.76 1952.12 1280.36C1952.12 1282.76 1951.52 1285.1 1950.32 1287.38C1949.24 1289.66 1947.8 1291.82 1946 1293.86C1944.2 1295.9 1941.68 1298.54 1938.44 1301.78L1933.94 1306.28H1949.42C1950.14 1306.28 1950.68 1306.28 1951.04 1306.28C1951.28 1306.16 1951.58 1305.98 1951.94 1305.74H1952.3V1310.42H1927.82V1306.64ZM1982.98 1253V1146.8H1988.38V1253H1982.98ZM1993.78 1253V1146.8H1999.18V1253H1993.78ZM2015.38 1253V1146.8H2031.58V1253H2015.38ZM2036.98 1253V1146.8H2042.38V1253H2036.98ZM2047.78 1253V1146.8H2063.98V1253H2047.78ZM2030.68 1300.16H2012.68V1296.74L2031.76 1268.66H2035.72V1296.38H2040.94V1300.16H2035.72V1310.42H2030.68V1300.16ZM2030.68 1296.2V1277.12L2018.08 1296.2H2030.68Z" fill="#172541"/>
<mask id="mask0_801_60" style="mask-type:alpha" maskUnits="userSpaceOnUse" x="2186" y="780" width="300" height="299">
<path fill-rule="evenodd" clip-rule="evenodd" d="M2398.74 1077.18C2403.46 1079.02 2408.85 1078.9 2413.62 1076.61L2475.38 1046.89C2481.87 1043.76 2486 1037.19 2486 1029.99V828.466C2486 821.26 2481.87 814.692 2475.38 811.569L2413.62 781.848C2407.36 778.836 2400.03 779.574 2394.54 783.567C2393.76 784.138 2393.01 784.775 2392.31 785.477L2274.07 893.351L2222.56 854.255C2217.77 850.616 2211.06 850.914 2206.61 854.965L2190.09 869.991C2184.64 874.946 2184.64 883.514 2190.08 888.477L2234.74 929.227L2190.08 969.976C2184.64 974.939 2184.64 983.508 2190.09 988.462L2206.61 1003.49C2211.06 1007.54 2217.77 1007.84 2222.56 1004.2L2274.07 965.102L2392.31 1072.98C2394.18 1074.85 2396.37 1076.26 2398.74 1077.18ZM2411.05 861.123L2321.33 929.227L2411.05 997.33V861.123Z" fill="white"/>
</mask>
<g mask="url(#mask0_801_60)">
<path d="M2475.38 811.615L2413.57 781.853C2406.42 778.409 2397.86 779.862 2392.25 785.477L2189.9 969.976C2184.45 974.939 2184.46 983.508 2189.91 988.462L2206.44 1003.49C2210.89 1007.54 2217.6 1007.84 2222.4 1004.2L2466.08 819.337C2474.26 813.135 2486 818.965 2486 829.227V828.509C2486 821.306 2481.87 814.74 2475.38 811.615Z" fill="#172541"/>
<g filter="url(#filter0_d_801_60)">
<path d="M2475.38 1046.84L2413.57 1076.6C2406.42 1080.05 2397.86 1078.59 2392.25 1072.98L2189.9 888.477C2184.45 883.515 2184.46 874.946 2189.91 869.991L2206.44 854.965C2210.89 850.914 2217.6 850.616 2222.4 854.255L2466.08 1039.12C2474.26 1045.32 2486 1039.49 2486 1029.23V1029.94C2486 1037.15 2481.87 1043.71 2475.38 1046.84Z" fill="#172541"/>
</g>
<g filter="url(#filter1_d_801_60)">
<path d="M2413.57 1076.61C2406.42 1080.05 2397.87 1078.59 2392.25 1072.98C2399.17 1079.9 2411 1075 2411 1065.21V793.243C2411 783.458 2399.17 778.557 2392.25 785.477C2397.87 779.861 2406.42 778.406 2413.57 781.848L2475.38 811.569C2481.87 814.692 2486 821.26 2486 828.466V1029.99C2486 1037.19 2481.87 1043.76 2475.38 1046.89L2413.57 1076.61Z" fill="#172541"/>
</g>
<g style="mix-blend-mode:overlay" opacity="0.25">
<path fill-rule="evenodd" clip-rule="evenodd" d="M2398.55 1077.18C2403.28 1079.02 2408.67 1078.9 2413.43 1076.61L2475.2 1046.89C2481.69 1043.76 2485.82 1037.19 2485.82 1029.99V828.466C2485.82 821.26 2481.69 814.692 2475.2 811.569L2413.43 781.848C2407.18 778.836 2399.85 779.574 2394.36 783.567C2393.57 784.138 2392.83 784.775 2392.12 785.477L2273.88 893.351L2222.38 854.255C2217.58 850.616 2210.88 850.914 2206.43 854.965L2189.91 869.991C2184.46 874.946 2184.45 883.515 2189.89 888.477L2234.56 929.227L2189.89 969.976C2184.45 974.939 2184.46 983.508 2189.91 988.462L2206.43 1003.49C2210.88 1007.54 2217.58 1007.84 2222.38 1004.2L2273.88 965.102L2392.12 1072.98C2393.99 1074.85 2396.19 1076.26 2398.55 1077.18ZM2410.86 861.123L2321.14 929.227L2410.86 997.33V861.123Z" fill="#172541"/>
</g>
</g>
<path d="M1349.08 889.067C1348 889.067 1347.73 888.524 1348.27 887.709L1353.97 880.381C1354.51 879.566 1355.87 879.023 1356.96 879.023H1453.89C1454.97 879.023 1455.25 879.838 1454.7 880.652L1450.09 887.709C1449.54 888.524 1448.19 889.338 1447.37 889.338L1349.08 889.067Z" fill="#121E39"/>
<path d="M1308.09 914.038C1307 914.038 1306.73 913.495 1307.27 912.681L1312.97 905.352C1313.52 904.538 1314.87 903.995 1315.96 903.995H1439.77C1440.86 903.995 1441.4 904.809 1441.13 905.624L1438.96 912.138C1438.69 913.224 1437.6 913.767 1436.51 913.767L1308.09 914.038Z" fill="#121E39"/>
<path d="M1373.79 939.01C1372.71 939.01 1372.44 938.196 1372.98 937.381L1376.78 930.595C1377.32 929.781 1378.41 928.967 1379.5 928.967H1433.8C1434.89 928.967 1435.43 929.781 1435.43 930.867L1434.89 937.381C1434.89 938.467 1433.8 939.281 1432.98 939.281L1373.79 939.01Z" fill="#121E39"/>
<path d="M1655.63 884.18C1638.52 888.523 1626.85 891.78 1610.01 896.123C1605.94 897.209 1605.67 897.481 1602.14 893.409C1598.06 888.795 1595.08 885.809 1589.38 883.094C1572.27 874.68 1555.71 877.123 1540.23 887.166C1521.77 899.109 1512.27 916.752 1512.54 938.739C1512.81 960.453 1527.74 978.368 1549.19 981.354C1567.65 983.797 1583.13 977.282 1595.35 963.439C1597.79 960.453 1599.97 957.196 1602.68 953.396C1592.91 953.396 1580.69 953.396 1550.28 953.396C1544.58 953.396 1543.22 949.867 1545.12 945.253C1548.65 936.839 1555.17 922.724 1558.97 915.667C1559.78 914.038 1561.68 911.324 1565.75 911.324C1579.6 911.324 1630.65 911.324 1664.59 911.324C1664.04 918.652 1664.04 925.981 1662.96 933.31C1659.97 952.853 1652.64 970.768 1640.69 986.511C1621.14 1012.3 1595.62 1028.31 1563.31 1032.66C1536.7 1036.18 1511.99 1031.03 1490.27 1014.74C1470.18 999.54 1458.78 979.454 1455.79 954.482C1452.26 924.895 1460.95 898.295 1478.87 874.951C1498.15 849.708 1523.67 833.693 1554.89 827.993C1580.42 823.379 1604.85 826.365 1626.85 841.294C1641.24 850.794 1651.55 863.823 1658.34 879.566C1659.97 882.009 1658.88 883.366 1655.63 884.18Z" fill="#121E39"/>
<path d="M1745.5 1034.28C1720.79 1033.74 1698.26 1026.68 1679.25 1010.4C1663.23 996.554 1653.18 978.911 1649.93 958.011C1645.04 927.339 1653.45 900.195 1671.92 876.037C1691.74 849.98 1715.63 836.408 1747.94 830.708C1775.64 825.822 1801.7 828.536 1825.33 844.551C1846.78 859.208 1860.08 879.023 1863.61 905.081C1868.23 941.725 1857.64 971.582 1832.38 997.097C1814.46 1015.28 1792.47 1026.68 1767.22 1031.84C1759.89 1033.2 1752.56 1033.47 1745.5 1034.28ZM1810.12 924.624C1809.85 921.096 1809.85 918.381 1809.31 915.667C1804.42 888.795 1779.71 873.594 1753.92 879.566C1728.67 885.266 1712.37 901.281 1706.4 926.796C1701.51 947.968 1711.83 969.411 1731.38 978.097C1746.31 984.611 1761.25 983.797 1775.64 976.468C1797.09 965.339 1808.76 947.968 1810.12 924.624Z" fill="#121E39"/>
<rect x="2060.26" y="850" width="63" height="163" rx="15" transform="rotate(45 2060.26 850)" fill="white"/>
<rect x="2104.81" y="965.259" width="63" height="163" rx="15" transform="rotate(135 2104.81 965.259)" fill="white"/>
<defs>
<filter id="filter0_d_801_60" x="2177.48" y="843.381" width="316.849" height="243.404" filterUnits="userSpaceOnUse" color-interpolation-filters="sRGB">
<feFlood flood-opacity="0" result="BackgroundImageFix"/>
<feColorMatrix in="SourceAlpha" type="matrix" values="0 0 0 0 0 0 0 0 0 0 0 0 0 0 0 0 0 0 127 0" result="hardAlpha"/>
<feOffset/>
<feGaussianBlur stdDeviation="4.16667"/>
<feColorMatrix type="matrix" values="0 0 0 0 0 0 0 0 0 0 0 0 0 0 0 0 0 0 0.25 0"/>
<feBlend mode="overlay" in2="BackgroundImageFix" result="effect1_dropShadow_801_60"/>
<feBlend mode="normal" in="SourceGraphic" in2="effect1_dropShadow_801_60" result="shape"/>
</filter>
<filter id="filter1_d_801_60" x="2383.92" y="771.667" width="110.417" height="315.121" filterUnits="userSpaceOnUse" color-interpolation-filters="sRGB">
<feFlood flood-opacity="0" result="BackgroundImageFix"/>
<feColorMatrix in="SourceAlpha" type="matrix" values="0 0 0 0 0 0 0 0 0 0 0 0 0 0 0 0 0 0 127 0" result="hardAlpha"/>
<feOffset/>
<feGaussianBlur stdDeviation="4.16667"/>
<feColorMatrix type="matrix" values="0 0 0 0 0 0 0 0 0 0 0 0 0 0 0 0 0 0 0.25 0"/>
<feBlend mode="overlay" in2="BackgroundImageFix" result="effect1_dropShadow_801_60"/>
<feBlend mode="normal" in="SourceGraphic" in2="effect1_dropShadow_801_60" result="shape"/>
</filter>
</defs>
</svg>
