<svg width="1200" height="800" viewBox="0 0 1200 800" fill="none" xmlns="http://www.w3.org/2000/svg">
<rect width="1200" height="800" fill="#777777"/>
<rect y="620" width="1200" height="27" fill="#D9D9D9"/>
<rect y="634" width="1200" height="166" fill="url(#paint0_linear_2_381)"/>
<rect x="427" y="129" width="354" height="505" fill="#D9D9D9"/>
<path d="M493.5 45L283 307H536L595.5 45H493.5Z" fill="#EFEFEF"/>
<path d="M358 430V307H402V378.5H460.5V430H358Z" fill="#9D9D9D"/>
<path d="M397 462L461 378V462H397Z" fill="#EFEFEF"/>
<rect x="397" y="462" width="64" height="158" fill="#B3B3B3"/>
<rect x="439" y="313" width="61" height="54" fill="#868686"/>
<rect x="442" y="351" width="56" height="14" fill="#565656"/>
<rect x="442" y="315" width="56" height="14" fill="#565656"/>
<rect x="442" y="332" width="56" height="16" fill="#565656"/>
<path d="M530.5 378H461V462L567 469.5L530.5 378Z" fill="#F5F5F5"/>
<path d="M712 45L922.5 307H669.5L610 45H712Z" fill="#EFEFEF"/>
<path d="M847.5 430V307H803.5V378.5H745V430H847.5Z" fill="#9D9D9D"/>
<path d="M808.5 462L744.5 378V462H808.5Z" fill="#EFEFEF"/>
<rect width="64" height="158" transform="matrix(-1 0 0 1 808.5 462)" fill="#B3B3B3"/>
<rect width="61" height="54" transform="matrix(-1 0 0 1 766.5 313)" fill="#868686"/>
<rect width="56" height="14" transform="matrix(-1 0 0 1 763.5 351)" fill="#565656"/>
<rect width="56" height="14" transform="matrix(-1 0 0 1 763.5 315)" fill="#565656"/>
<rect width="56" height="16" transform="matrix(-1 0 0 1 763.5 332)" fill="#565656"/>
<path d="M675 378H744.5V462L638.5 469.5L675 378Z" fill="#F5F5F5"/>
<path d="M600 365L503 251L600 18V365Z" fill="white"/>
<path d="M600 365L697 251L600 18V365Z" fill="white"/>
<rect x="427" y="129" width="354" height="505" fill="#D9D9D9"/>
<path d="M493.5 45L283 307H536L595.5 45H493.5Z" fill="#EFEFEF"/>
<path d="M358 430V307H402V378.5H460.5V430H358Z" fill="#9D9D9D"/>
<path d="M397 462L461 378V462H397Z" fill="#EFEFEF"/>
<rect x="397" y="462" width="64" height="158" fill="#B3B3B3"/>
<rect x="439" y="313" width="61" height="54" fill="#868686"/>
<rect x="442" y="351" width="56" height="14" fill="#565656"/>
<rect x="442" y="315" width="56" height="14" fill="#565656"/>
<rect x="442" y="332" width="56" height="16" fill="#565656"/>
<path d="M530.5 378H461V462L567 469.5L530.5 378Z" fill="#F5F5F5"/>
<path d="M712 45L922.5 307H669.5L610 45H712Z" fill="#EFEFEF"/>
<path d="M847.5 430V307H803.5V378.5H745V430H847.5Z" fill="#9D9D9D"/>
<path d="M808.5 462L744.5 378V462H808.5Z" fill="#EFEFEF"/>
<rect width="64" height="158" transform="matrix(-1 0 0 1 808.5 462)" fill="#B3B3B3"/>
<rect width="61" height="54" transform="matrix(-1 0 0 1 766.5 313)" fill="#868686"/>
<rect width="56" height="14" transform="matrix(-1 0 0 1 763.5 351)" fill="#565656"/>
<rect width="56" height="14" transform="matrix(-1 0 0 1 763.5 315)" fill="#565656"/>
<rect width="56" height="16" transform="matrix(-1 0 0 1 763.5 332)" fill="#565656"/>
<path d="M675 378H744.5V462L638.5 469.5L675 378Z" fill="#F5F5F5"/>
<path d="M600 365L503 251L600 18V365Z" fill="white"/>
<path d="M600 365L697 251L600 18V365Z" fill="white"/>
<rect x="696" y="382" width="15" height="112" fill="#868686"/>
<path d="M719.5 634H707H690.5V586.5L728.5 541L719.5 583V634Z" fill="#868686"/>
<path d="M707.385 645H681.266L673 609.114L729.371 538H734L707.385 583.763V645Z" fill="#9D9D9D"/>
<path d="M681.862 663H657.5V610L729 538H734L681.862 611.219V663Z" fill="#B3B3B3"/>
<rect x="601.316" y="478.699" width="123.307" height="123.307" transform="rotate(45 601.316 478.699)" fill="#565656"/>
<path d="M634 653.106V610.394L692.21 538H729L657.546 610.394V663L634 653.106Z" fill="#D9D9D9"/>
<path d="M634 611H568V653H634V611Z" fill="#B3B3B3"/>
<rect x="718" y="405" width="19" height="95" fill="#9D9D9D"/>
<rect x="465" y="494" width="272" height="44" fill="#D9D9D9"/>
<rect x="512" y="405" width="178" height="89" fill="#B3B3B3"/>
<rect x="529" y="405" width="144" height="89" fill="#565656"/>
<path d="M664 451L691.103 451L737 488.377L737 512L691.103 466.119L664 494.524L664 451Z" fill="#D9D9D9"/>
<path d="M664 409L691.103 409L737 446.377L737 470L691.103 424.119L664 452.524L664 409Z" fill="#D9D9D9"/>
<path d="M664 471L636.897 471L591 433.623L591 410L636.897 455.881L664 427.476L664 471Z" fill="#D9D9D9"/>
<path d="M664 365L691.103 365L737 402.377L737 426L691.103 380.119L664 408.524L664 365Z" fill="#D9D9D9"/>
<path d="M620 298L696 409H620V298Z" fill="#EFEFEF"/>
<rect width="15" height="112" transform="matrix(-1 0 0 1 506 382)" fill="#868686"/>
<path d="M482.5 634H495H511.5V586.5L473.5 541L482.5 583V634Z" fill="#868686"/>
<path d="M494.615 645H520.734L529 609.114L472.629 538H468L494.615 583.763V645Z" fill="#9D9D9D"/>
<path d="M520.138 663H544.5V610L473 538H468L520.138 611.219V663Z" fill="#B3B3B3"/>
<path d="M568 653.106V610.394L509.79 538H473L544.454 610.394V663L568 653.106Z" fill="#D9D9D9"/>
<rect width="19" height="95" transform="matrix(-1 0 0 1 484 405)" fill="#9D9D9D"/>
<path d="M538 451L510.897 451L465 488.377L465 512L510.897 466.119L538 494.524L538 451Z" fill="#D9D9D9"/>
<path d="M538 409L510.897 409L465 446.377L465 470L510.897 424.119L538 452.524L538 409Z" fill="#D9D9D9"/>
<path d="M538 471L565.103 471L611 433.623L611 410L565.103 455.881L538 427.476L538 471Z" fill="#D9D9D9"/>
<path d="M538 365L510.897 365L465 402.377L465 426L510.897 380.119L538 408.524L538 365Z" fill="#D9D9D9"/>
<path d="M582 298L506 409H582V298Z" fill="#EFEFEF"/>
<rect x="582" y="298" width="38" height="196" fill="#EFEFEF"/>
<rect x="465" y="494" width="272" height="18" fill="white"/>
<rect x="864.208" y="479.258" width="8.26027" height="61.6767" fill="#868686"/>
<path d="M877.149 618.03H870.266H861.179V591.873L882.105 566.816L877.149 589.945V618.03Z" fill="#868686"/>
<path d="M870.478 624.088H856.094L851.542 604.326L882.585 565.164H885.134L870.478 590.365V624.088Z" fill="#9D9D9D"/>
<path d="M856.423 634H843.007V604.814L882.381 565.164H885.134L856.423 605.485V634Z" fill="#B3B3B3"/>
<rect x="812.067" y="532.508" width="67.9031" height="67.9031" transform="rotate(45 812.067 532.508)" fill="#565656"/>
<path d="M830.066 628.551V605.031L862.121 565.164H882.381L843.032 605.031V634L830.066 628.551Z" fill="#D9D9D9"/>
<path d="M830.066 605.364H793.721V628.493H830.066V605.364Z" fill="#B3B3B3"/>
<rect x="876.323" y="491.923" width="10.463" height="52.3151" fill="#9D9D9D"/>
<rect x="737" y="540.934" width="149.786" height="24.2301" fill="#D9D9D9"/>
<rect x="762.882" y="491.923" width="98.0219" height="49.011" fill="#B3B3B3"/>
<rect x="772.244" y="491.923" width="79.2986" height="49.011" fill="#565656"/>
<path d="M846.586 517.255L861.512 517.255L886.786 537.838L886.786 550.847L861.512 525.58L846.586 541.223L846.586 517.255Z" fill="#D9D9D9"/>
<path d="M846.586 494.126L861.512 494.126L886.786 514.709L886.786 527.718L861.512 502.452L846.586 518.094L846.586 494.126Z" fill="#D9D9D9"/>
<path d="M846.586 528.268L831.661 528.268L806.386 507.686L806.386 494.677L831.661 519.943L846.586 504.3L846.586 528.268Z" fill="#D9D9D9"/>
<path d="M846.586 469.896L861.512 469.896L886.786 490.479L886.786 503.488L861.512 478.222L846.586 493.864L846.586 469.896Z" fill="#D9D9D9"/>
<path d="M822.356 433L864.208 494.126H822.356V433Z" fill="#EFEFEF"/>
<rect width="8.26027" height="61.6767" transform="matrix(-1 0 0 1 759.578 479.258)" fill="#868686"/>
<path d="M746.637 618.03H753.521H762.607V591.873L741.681 566.816L746.637 589.945V618.03Z" fill="#868686"/>
<path d="M753.309 624.088H767.692L772.244 604.326L741.201 565.164H738.652L753.309 590.365V624.088Z" fill="#9D9D9D"/>
<path d="M767.363 634H780.779V604.814L741.406 565.164H738.652L767.363 605.485V634Z" fill="#B3B3B3"/>
<path d="M793.721 628.551V605.031L761.665 565.164H741.405L780.754 605.031V634L793.721 628.551Z" fill="#D9D9D9"/>
<rect width="10.463" height="52.3151" transform="matrix(-1 0 0 1 747.463 491.923)" fill="#9D9D9D"/>
<path d="M777.2 517.255L762.275 517.255L737 537.838L737 550.847L762.275 525.58L777.2 541.223L777.2 517.255Z" fill="#D9D9D9"/>
<path d="M777.2 494.126L762.275 494.126L737 514.709L737 527.718L762.275 502.452L777.2 518.094L777.2 494.126Z" fill="#D9D9D9"/>
<path d="M777.2 528.268L792.125 528.268L817.4 507.686L817.4 494.677L792.125 519.943L777.2 504.3L777.2 528.268Z" fill="#D9D9D9"/>
<path d="M777.2 469.896L762.275 469.896L737 490.479L737 503.488L762.275 478.222L777.2 493.864L777.2 469.896Z" fill="#D9D9D9"/>
<path d="M801.43 433L759.578 494.126H801.43V433Z" fill="#EFEFEF"/>
<rect x="801.43" y="433" width="20.926" height="107.934" fill="#EFEFEF"/>
<rect x="737" y="540.934" width="149.786" height="9.91233" fill="white"/>
<rect x="442.208" y="479.258" width="8.26027" height="61.6767" fill="#868686"/>
<path d="M455.149 618.03H448.266H439.179V591.873L460.105 566.816L455.149 589.945V618.03Z" fill="#868686"/>
<path d="M448.478 624.088H434.094L429.542 604.326L460.585 565.164H463.134L448.478 590.365V624.088Z" fill="#9D9D9D"/>
<path d="M434.423 634H421.007V604.814L460.381 565.164H463.134L434.423 605.485V634Z" fill="#B3B3B3"/>
<rect x="390.067" y="532.508" width="67.9031" height="67.9031" transform="rotate(45 390.067 532.508)" fill="#565656"/>
<path d="M408.066 628.551V605.031L440.121 565.164H460.381L421.032 605.031V634L408.066 628.551Z" fill="#D9D9D9"/>
<path d="M408.066 605.364H371.721V628.493H408.066V605.364Z" fill="#B3B3B3"/>
<rect x="454.323" y="491.923" width="10.463" height="52.3151" fill="#9D9D9D"/>
<rect x="315" y="540.934" width="149.786" height="24.2301" fill="#D9D9D9"/>
<rect x="340.882" y="491.923" width="98.0219" height="49.011" fill="#B3B3B3"/>
<rect x="350.244" y="491.923" width="79.2986" height="49.011" fill="#565656"/>
<path d="M424.586 517.255L439.512 517.255L464.786 537.838L464.786 550.847L439.512 525.58L424.586 541.223L424.586 517.255Z" fill="#D9D9D9"/>
<path d="M424.586 494.126L439.512 494.126L464.786 514.709L464.786 527.718L439.512 502.452L424.586 518.094L424.586 494.126Z" fill="#D9D9D9"/>
<path d="M424.586 528.268L409.661 528.268L384.386 507.686L384.386 494.677L409.661 519.943L424.586 504.3L424.586 528.268Z" fill="#D9D9D9"/>
<path d="M424.586 469.896L439.512 469.896L464.786 490.479L464.786 503.488L439.512 478.222L424.586 493.864L424.586 469.896Z" fill="#D9D9D9"/>
<path d="M400.356 433L442.208 494.126H400.356V433Z" fill="#EFEFEF"/>
<rect width="8.26027" height="61.6767" transform="matrix(-1 0 0 1 337.578 479.258)" fill="#868686"/>
<path d="M324.637 618.03H331.521H340.607V591.873L319.681 566.816L324.637 589.945V618.03Z" fill="#868686"/>
<path d="M331.309 624.088H345.692L350.244 604.326L319.201 565.164H316.652L331.309 590.365V624.088Z" fill="#9D9D9D"/>
<path d="M345.363 634H358.779V604.814L319.405 565.164H316.652L345.363 605.485V634Z" fill="#B3B3B3"/>
<path d="M371.721 628.551V605.031L339.665 565.164H319.405L358.754 605.031V634L371.721 628.551Z" fill="#D9D9D9"/>
<rect width="10.463" height="52.3151" transform="matrix(-1 0 0 1 325.463 491.923)" fill="#9D9D9D"/>
<path d="M355.2 517.255L340.275 517.255L315 537.838L315 550.847L340.275 525.58L355.2 541.223L355.2 517.255Z" fill="#D9D9D9"/>
<path d="M355.2 494.126L340.275 494.126L315 514.709L315 527.718L340.275 502.452L355.2 518.094L355.2 494.126Z" fill="#D9D9D9"/>
<path d="M355.2 528.268L370.125 528.268L395.4 507.686L395.4 494.677L370.125 519.943L355.2 504.3L355.2 528.268Z" fill="#D9D9D9"/>
<path d="M355.2 469.896L340.275 469.896L315 490.479L315 503.488L340.275 478.222L355.2 493.864L355.2 469.896Z" fill="#D9D9D9"/>
<path d="M379.43 433L337.578 494.126H379.43V433Z" fill="#EFEFEF"/>
<rect x="379.43" y="433" width="20.926" height="107.934" fill="#EFEFEF"/>
<rect x="315" y="540.934" width="149.786" height="9.91233" fill="white"/>
<rect x="767.448" y="294.033" width="229.726" height="327.717" fill="#D9D9D9"/>
<path d="M810.603 239.522L674 409.545H838.183L876.795 239.522H810.603Z" fill="#EFEFEF"/>
<path d="M722.671 489.365V409.545H751.224V455.944H789.188V489.365H722.671Z" fill="#9D9D9D"/>
<path d="M747.98 510.131L789.512 455.62V510.131H747.98Z" fill="#EFEFEF"/>
<rect x="747.98" y="510.131" width="41.5324" height="102.533" fill="#B3B3B3"/>
<rect x="775.235" y="413.439" width="39.5856" height="35.043" fill="#868686"/>
<rect x="777.182" y="438.099" width="36.3409" height="9.08522" fill="#565656"/>
<rect x="777.182" y="414.737" width="36.3409" height="9.08522" fill="#565656"/>
<rect x="777.182" y="425.769" width="36.3409" height="10.3831" fill="#565656"/>
<path d="M834.614 455.62H789.512V510.131L858.3 514.998L834.614 455.62Z" fill="#F5F5F5"/>
<path d="M952.397 239.522L1089 409.545H924.817L886.205 239.522H952.397Z" fill="#EFEFEF"/>
<path d="M1040.33 489.365V409.545H1011.78V455.944H973.812V489.365H1040.33Z" fill="#9D9D9D"/>
<path d="M1015.02 510.131L973.488 455.62V510.131H1015.02Z" fill="#EFEFEF"/>
<rect width="41.5324" height="102.533" transform="matrix(-1 0 0 1 1015.02 510.131)" fill="#B3B3B3"/>
<rect width="39.5856" height="35.043" transform="matrix(-1 0 0 1 987.765 413.439)" fill="#868686"/>
<rect width="36.3409" height="9.08522" transform="matrix(-1 0 0 1 985.818 438.099)" fill="#565656"/>
<rect width="36.3409" height="9.08522" transform="matrix(-1 0 0 1 985.818 414.737)" fill="#565656"/>
<rect width="36.3409" height="10.3831" transform="matrix(-1 0 0 1 985.818 425.769)" fill="#565656"/>
<path d="M928.386 455.62H973.488V510.131L904.7 514.998L928.386 455.62Z" fill="#F5F5F5"/>
<path d="M879.715 447.184L816.768 373.204L879.715 222V447.184Z" fill="white"/>
<path d="M879.715 447.184L942.663 373.204L879.715 222V447.184Z" fill="white"/>
<rect x="942.014" y="458.216" width="9.73417" height="72.6818" fill="#868686"/>
<path d="M957.264 621.75H949.152H938.445V590.925L963.105 561.398L957.264 588.654V621.75Z" fill="#868686"/>
<path d="M949.402 628.888H932.452L927.088 605.6L963.67 559.451H966.674L949.402 589.149V628.888Z" fill="#9D9D9D"/>
<path d="M932.84 640.569H917.03V606.175L963.429 559.451H966.674L932.84 606.966V640.569Z" fill="#B3B3B3"/>
<rect x="880.569" y="520.968" width="80.0192" height="80.0192" transform="rotate(45 880.569 520.968)" fill="#565656"/>
<path d="M901.78 634.148V606.431L939.555 559.451H963.429L917.059 606.431V640.569L901.78 634.148Z" fill="#D9D9D9"/>
<path d="M901.779 606.824H858.949V634.08H901.779V606.824Z" fill="#B3B3B3"/>
<rect x="956.291" y="473.142" width="12.3299" height="61.6497" fill="#9D9D9D"/>
<rect x="792.108" y="530.898" width="176.513" height="28.5536" fill="#D9D9D9"/>
<rect x="822.608" y="473.142" width="115.512" height="57.7561" fill="#B3B3B3"/>
<rect x="833.64" y="473.142" width="93.448" height="57.7561" fill="#565656"/>
<path d="M921.248 502.993L938.836 502.993L968.621 527.249L968.621 542.579L938.836 512.804L921.248 531.238L921.248 502.993Z" fill="#D9D9D9"/>
<path d="M921.248 475.737L938.836 475.737L968.621 499.993L968.621 515.323L938.836 485.549L921.248 503.982L921.248 475.737Z" fill="#D9D9D9"/>
<path d="M921.248 515.972L903.659 515.972L873.875 491.716L873.875 476.386L903.659 506.161L921.248 487.727L921.248 515.972Z" fill="#D9D9D9"/>
<path d="M921.248 447.184L938.836 447.184L968.621 471.439L968.621 486.769L938.836 456.995L921.248 475.429L921.248 447.184Z" fill="#D9D9D9"/>
<path d="M892.694 403.704L942.014 475.737H892.694V403.704Z" fill="#EFEFEF"/>
<rect width="9.73417" height="72.6818" transform="matrix(-1 0 0 1 818.715 458.216)" fill="#868686"/>
<path d="M803.464 621.75H811.576H822.284V590.925L797.624 561.398L803.464 588.654V621.75Z" fill="#868686"/>
<path d="M811.326 628.888H828.276L833.64 605.6L797.058 559.451H794.055L811.326 589.149V628.888Z" fill="#9D9D9D"/>
<path d="M827.889 640.569H843.699V606.175L797.299 559.451H794.055L827.889 606.966V640.569Z" fill="#B3B3B3"/>
<path d="M858.949 634.148V606.431L821.174 559.451H797.299L843.669 606.431V640.569L858.949 634.148Z" fill="#D9D9D9"/>
<rect width="12.3299" height="61.6497" transform="matrix(-1 0 0 1 804.438 473.142)" fill="#9D9D9D"/>
<path d="M839.481 502.993L821.892 502.993L792.108 527.249L792.108 542.579L821.892 512.804L839.481 531.238L839.481 502.993Z" fill="#D9D9D9"/>
<path d="M839.481 475.737L821.892 475.737L792.108 499.993L792.108 515.323L821.892 485.549L839.481 503.982L839.481 475.737Z" fill="#D9D9D9"/>
<path d="M839.481 515.972L857.069 515.972L886.854 491.716L886.854 476.386L857.069 506.161L839.481 487.727L839.481 515.972Z" fill="#D9D9D9"/>
<path d="M839.481 447.184L821.892 447.184L792.108 471.439L792.108 486.769L821.892 456.995L839.481 475.429L839.481 447.184Z" fill="#D9D9D9"/>
<path d="M868.034 403.704L818.715 475.737H868.034V403.704Z" fill="#EFEFEF"/>
<rect x="868.034" y="403.704" width="24.6599" height="127.193" fill="#EFEFEF"/>
<rect x="792.108" y="530.898" width="176.513" height="11.681" fill="white"/>
<rect x="1051.17" y="521.331" width="5.36046" height="40.0248" fill="#868686"/>
<path d="M1059.57 611.386H1055.1H1049.21V594.411L1062.79 578.151L1059.57 593.161V611.386Z" fill="#868686"/>
<path d="M1055.24 615.317H1045.91L1042.95 602.493L1063.1 577.079H1064.75L1055.24 593.433V615.317Z" fill="#9D9D9D"/>
<path d="M1046.12 621.75H1037.41V602.809L1062.96 577.079H1064.75L1046.12 603.245V621.75Z" fill="#B3B3B3"/>
<rect x="1017.34" y="555.887" width="44.0654" height="44.0654" transform="rotate(45 1017.34 555.887)" fill="#565656"/>
<path d="M1029.02 618.214V602.95L1049.82 577.079H1062.96L1037.43 602.95V621.75L1029.02 618.214Z" fill="#D9D9D9"/>
<path d="M1029.02 603.167H1005.43V618.176H1029.02V603.167Z" fill="#B3B3B3"/>
<rect x="1059.03" y="529.55" width="6.78992" height="33.9496" fill="#9D9D9D"/>
<rect x="968.621" y="561.355" width="97.203" height="15.724" fill="#D9D9D9"/>
<rect x="985.417" y="529.55" width="63.6108" height="31.8054" fill="#B3B3B3"/>
<rect x="991.492" y="529.55" width="51.4604" height="31.8054" fill="#565656"/>
<path d="M1039.74 545.989L1049.42 545.989L1065.82 559.346L1065.82 567.788L1049.42 551.392L1039.74 561.543L1039.74 545.989Z" fill="#D9D9D9"/>
<path d="M1039.74 530.979L1049.42 530.979L1065.82 544.337L1065.82 552.779L1049.42 536.382L1039.74 546.533L1039.74 530.979Z" fill="#D9D9D9"/>
<path d="M1039.74 553.136L1030.05 553.136L1013.65 539.779L1013.65 531.337L1030.05 547.733L1039.74 537.582L1039.74 553.136Z" fill="#D9D9D9"/>
<path d="M1039.74 515.255L1049.42 515.255L1065.82 528.613L1065.82 537.055L1049.42 520.658L1039.74 530.809L1039.74 515.255Z" fill="#D9D9D9"/>
<path d="M1024.01 491.312L1051.17 530.979H1024.01V491.312Z" fill="#EFEFEF"/>
<rect width="5.36046" height="40.0248" transform="matrix(-1 0 0 1 983.273 521.331)" fill="#868686"/>
<path d="M974.875 611.386H979.342H985.238V594.411L971.658 578.151L974.875 593.161V611.386Z" fill="#868686"/>
<path d="M979.204 615.317H988.538L991.492 602.493L971.347 577.079H969.693L979.204 593.433V615.317Z" fill="#9D9D9D"/>
<path d="M988.325 621.75H997.031V602.809L971.48 577.079H969.693L988.325 603.245V621.75Z" fill="#B3B3B3"/>
<path d="M1005.43 618.214V602.95L984.627 577.079H971.48L997.015 602.95V621.75L1005.43 618.214Z" fill="#D9D9D9"/>
<rect width="6.78992" height="33.9496" transform="matrix(-1 0 0 1 975.411 529.55)" fill="#9D9D9D"/>
<path d="M994.708 545.989L985.023 545.989L968.621 559.346L968.621 567.788L985.023 551.392L994.708 561.543L994.708 545.989Z" fill="#D9D9D9"/>
<path d="M994.708 530.979L985.023 530.979L968.621 544.337L968.621 552.779L985.023 536.382L994.708 546.533L994.708 530.979Z" fill="#D9D9D9"/>
<path d="M994.708 553.136L1004.39 553.136L1020.8 539.779L1020.8 531.337L1004.39 547.733L994.708 537.582L994.708 553.136Z" fill="#D9D9D9"/>
<path d="M994.708 515.255L985.023 515.255L968.621 528.613L968.621 537.055L985.023 520.658L994.708 530.809L994.708 515.255Z" fill="#D9D9D9"/>
<path d="M1010.43 491.312L983.273 530.979H1010.43V491.312Z" fill="#EFEFEF"/>
<rect x="1010.43" y="491.312" width="13.5798" height="70.0433" fill="#EFEFEF"/>
<rect x="968.621" y="561.355" width="97.203" height="6.43255" fill="white"/>
<rect x="777.317" y="521.331" width="5.36046" height="40.0248" fill="#868686"/>
<path d="M785.715 611.386H781.248H775.352V594.411L788.932 578.151L785.715 593.161V611.386Z" fill="#868686"/>
<path d="M781.386 615.317H772.052L769.098 602.493L789.243 577.079H790.897L781.386 593.433V615.317Z" fill="#9D9D9D"/>
<path d="M772.265 621.75H763.559V602.809L789.11 577.079H790.897L772.265 603.245V621.75Z" fill="#B3B3B3"/>
<rect x="743.481" y="555.887" width="44.0654" height="44.0654" transform="rotate(45 743.481 555.887)" fill="#565656"/>
<path d="M755.161 618.214V602.95L775.963 577.079H789.11L763.575 602.95V621.75L755.161 618.214Z" fill="#D9D9D9"/>
<path d="M755.161 603.167H731.575V618.176H755.161V603.167Z" fill="#B3B3B3"/>
<rect x="785.179" y="529.55" width="6.78992" height="33.9496" fill="#9D9D9D"/>
<rect x="694.766" y="561.355" width="97.203" height="15.724" fill="#D9D9D9"/>
<rect x="711.562" y="529.55" width="63.6108" height="31.8054" fill="#B3B3B3"/>
<rect x="717.638" y="529.55" width="51.4604" height="31.8054" fill="#565656"/>
<path d="M765.882 545.989L775.567 545.989L791.969 559.346L791.969 567.788L775.567 551.392L765.882 561.543L765.882 545.989Z" fill="#D9D9D9"/>
<path d="M765.882 530.979L775.567 530.979L791.969 544.337L791.969 552.779L775.567 536.382L765.882 546.533L765.882 530.979Z" fill="#D9D9D9"/>
<path d="M765.882 553.136L756.196 553.136L739.794 539.779L739.794 531.337L756.196 547.733L765.882 537.582L765.882 553.136Z" fill="#D9D9D9"/>
<path d="M765.882 515.255L775.567 515.255L791.969 528.613L791.969 537.055L775.567 520.658L765.882 530.809L765.882 515.255Z" fill="#D9D9D9"/>
<path d="M750.158 491.312L777.317 530.979H750.158V491.312Z" fill="#EFEFEF"/>
<rect width="5.36046" height="40.0248" transform="matrix(-1 0 0 1 709.418 521.331)" fill="#868686"/>
<path d="M701.02 611.386H705.487H711.384V594.411L697.804 578.151L701.02 593.161V611.386Z" fill="#868686"/>
<path d="M705.35 615.317H714.684L717.638 602.493L697.492 577.079H695.838L705.35 593.433V615.317Z" fill="#9D9D9D"/>
<path d="M714.47 621.75H723.177V602.809L697.625 577.079H695.838L714.47 603.245V621.75Z" fill="#B3B3B3"/>
<path d="M731.575 618.214V602.95L710.773 577.079H697.625L723.16 602.95V621.75L731.575 618.214Z" fill="#D9D9D9"/>
<rect width="6.78992" height="33.9496" transform="matrix(-1 0 0 1 701.556 529.55)" fill="#9D9D9D"/>
<path d="M720.854 545.989L711.168 545.989L694.766 559.346L694.766 567.788L711.168 551.392L720.854 561.543L720.854 545.989Z" fill="#D9D9D9"/>
<path d="M720.854 530.979L711.168 530.979L694.766 544.337L694.766 552.779L711.168 536.382L720.854 546.533L720.854 530.979Z" fill="#D9D9D9"/>
<path d="M720.854 553.136L730.54 553.136L746.941 539.779L746.941 531.337L730.54 547.733L720.854 537.582L720.854 553.136Z" fill="#D9D9D9"/>
<path d="M720.854 515.255L711.168 515.255L694.766 528.613L694.766 537.055L711.168 520.658L720.854 530.809L720.854 515.255Z" fill="#D9D9D9"/>
<path d="M736.578 491.312L709.418 530.979H736.578V491.312Z" fill="#EFEFEF"/>
<rect x="736.578" y="491.312" width="13.5798" height="70.0433" fill="#EFEFEF"/>
<rect x="694.766" y="561.355" width="97.203" height="6.43255" fill="white"/>
<rect x="210.448" y="294.033" width="229.726" height="327.717" fill="#D9D9D9"/>
<path d="M253.603 239.522L117 409.545H281.183L319.795 239.522H253.603Z" fill="#EFEFEF"/>
<path d="M165.671 489.365V409.545H194.224V455.944H232.188V489.365H165.671Z" fill="#9D9D9D"/>
<path d="M190.98 510.131L232.512 455.62V510.131H190.98Z" fill="#EFEFEF"/>
<rect x="190.98" y="510.131" width="41.5324" height="102.533" fill="#B3B3B3"/>
<rect x="218.235" y="413.439" width="39.5856" height="35.043" fill="#868686"/>
<rect x="220.182" y="438.099" width="36.3409" height="9.08522" fill="#565656"/>
<rect x="220.182" y="414.737" width="36.3409" height="9.08522" fill="#565656"/>
<rect x="220.182" y="425.769" width="36.3409" height="10.3831" fill="#565656"/>
<path d="M277.614 455.62H232.512V510.131L301.3 514.998L277.614 455.62Z" fill="#F5F5F5"/>
<path d="M395.397 239.522L532 409.545H367.817L329.205 239.522H395.397Z" fill="#EFEFEF"/>
<path d="M483.329 489.365V409.545H454.776V455.944H416.812V489.365H483.329Z" fill="#9D9D9D"/>
<path d="M458.02 510.131L416.488 455.62V510.131H458.02Z" fill="#EFEFEF"/>
<rect width="41.5324" height="102.533" transform="matrix(-1 0 0 1 458.02 510.131)" fill="#B3B3B3"/>
<rect width="39.5856" height="35.043" transform="matrix(-1 0 0 1 430.765 413.439)" fill="#868686"/>
<rect width="36.3409" height="9.08522" transform="matrix(-1 0 0 1 428.818 438.099)" fill="#565656"/>
<rect width="36.3409" height="9.08522" transform="matrix(-1 0 0 1 428.818 414.737)" fill="#565656"/>
<rect width="36.3409" height="10.3831" transform="matrix(-1 0 0 1 428.818 425.769)" fill="#565656"/>
<path d="M371.386 455.62H416.488V510.131L347.7 514.998L371.386 455.62Z" fill="#F5F5F5"/>
<path d="M322.715 447.184L259.768 373.204L322.715 222V447.184Z" fill="white"/>
<path d="M322.715 447.184L385.663 373.204L322.715 222V447.184Z" fill="white"/>
<rect x="385.014" y="458.216" width="9.73417" height="72.6818" fill="#868686"/>
<path d="M400.264 621.75H392.152H381.445V590.925L406.105 561.398L400.264 588.654V621.75Z" fill="#868686"/>
<path d="M392.402 628.888H375.452L370.088 605.6L406.67 559.451H409.674L392.402 589.149V628.888Z" fill="#9D9D9D"/>
<path d="M375.84 640.569H360.03V606.175L406.429 559.451H409.674L375.84 606.966V640.569Z" fill="#B3B3B3"/>
<rect x="323.569" y="520.968" width="80.0192" height="80.0192" transform="rotate(45 323.569 520.968)" fill="#565656"/>
<path d="M344.78 634.148V606.431L382.555 559.451H406.429L360.059 606.431V640.569L344.78 634.148Z" fill="#D9D9D9"/>
<path d="M344.779 606.824H301.949V634.08H344.779V606.824Z" fill="#B3B3B3"/>
<rect x="399.291" y="473.142" width="12.3299" height="61.6497" fill="#9D9D9D"/>
<rect x="235.108" y="530.898" width="176.513" height="28.5536" fill="#D9D9D9"/>
<rect x="265.608" y="473.142" width="115.512" height="57.7561" fill="#B3B3B3"/>
<rect x="276.64" y="473.142" width="93.448" height="57.7561" fill="#565656"/>
<path d="M364.248 502.993L381.836 502.993L411.621 527.249L411.621 542.579L381.836 512.804L364.248 531.238L364.248 502.993Z" fill="#D9D9D9"/>
<path d="M364.248 475.737L381.836 475.737L411.621 499.993L411.621 515.323L381.836 485.549L364.248 503.982L364.248 475.737Z" fill="#D9D9D9"/>
<path d="M364.248 515.972L346.659 515.972L316.875 491.716L316.875 476.386L346.659 506.161L364.248 487.727L364.248 515.972Z" fill="#D9D9D9"/>
<path d="M364.248 447.184L381.836 447.184L411.621 471.439L411.621 486.769L381.836 456.995L364.248 475.429L364.248 447.184Z" fill="#D9D9D9"/>
<path d="M335.694 403.704L385.014 475.737H335.694V403.704Z" fill="#EFEFEF"/>
<rect width="9.73417" height="72.6818" transform="matrix(-1 0 0 1 261.715 458.216)" fill="#868686"/>
<path d="M246.464 621.75H254.576H265.284V590.925L240.624 561.398L246.464 588.654V621.75Z" fill="#868686"/>
<path d="M254.326 628.888H271.276L276.64 605.6L240.058 559.451H237.055L254.326 589.149V628.888Z" fill="#9D9D9D"/>
<path d="M270.889 640.569H286.699V606.175L240.299 559.451H237.055L270.889 606.966V640.569Z" fill="#B3B3B3"/>
<path d="M301.949 634.148V606.431L264.174 559.451H240.299L286.669 606.431V640.569L301.949 634.148Z" fill="#D9D9D9"/>
<rect width="12.3299" height="61.6497" transform="matrix(-1 0 0 1 247.438 473.142)" fill="#9D9D9D"/>
<path d="M282.481 502.993L264.892 502.993L235.108 527.249L235.108 542.579L264.892 512.804L282.481 531.238L282.481 502.993Z" fill="#D9D9D9"/>
<path d="M282.481 475.737L264.892 475.737L235.108 499.993L235.108 515.323L264.892 485.549L282.481 503.982L282.481 475.737Z" fill="#D9D9D9"/>
<path d="M282.481 515.972L300.069 515.972L329.854 491.716L329.854 476.386L300.069 506.161L282.481 487.727L282.481 515.972Z" fill="#D9D9D9"/>
<path d="M282.481 447.184L264.892 447.184L235.108 471.439L235.108 486.769L264.892 456.995L282.481 475.429L282.481 447.184Z" fill="#D9D9D9"/>
<path d="M311.034 403.704L261.715 475.737H311.034V403.704Z" fill="#EFEFEF"/>
<rect x="311.034" y="403.704" width="24.6599" height="127.193" fill="#EFEFEF"/>
<rect x="235.108" y="530.898" width="176.513" height="11.681" fill="white"/>
<rect x="494.172" y="521.331" width="5.36046" height="40.0248" fill="#868686"/>
<path d="M502.57 611.386H498.103H492.206V594.411L505.786 578.151L502.57 593.161V611.386Z" fill="#868686"/>
<path d="M498.24 615.317H488.906L485.953 602.493L506.098 577.079H507.752L498.24 593.433V615.317Z" fill="#9D9D9D"/>
<path d="M489.12 621.75H480.413V602.809L505.965 577.079H507.752L489.12 603.245V621.75Z" fill="#B3B3B3"/>
<rect x="460.335" y="555.887" width="44.0654" height="44.0654" transform="rotate(45 460.335 555.887)" fill="#565656"/>
<path d="M472.015 618.214V602.95L492.817 577.079H505.965L480.43 602.95V621.75L472.015 618.214Z" fill="#D9D9D9"/>
<path d="M472.015 603.167H448.429V618.176H472.015V603.167Z" fill="#B3B3B3"/>
<rect x="502.034" y="529.55" width="6.78992" height="33.9496" fill="#9D9D9D"/>
<rect x="411.621" y="561.355" width="97.203" height="15.724" fill="#D9D9D9"/>
<rect x="428.417" y="529.55" width="63.6108" height="31.8054" fill="#B3B3B3"/>
<rect x="434.492" y="529.55" width="51.4604" height="31.8054" fill="#565656"/>
<path d="M482.736 545.989L492.422 545.989L508.824 559.346L508.824 567.788L492.422 551.392L482.736 561.543L482.736 545.989Z" fill="#D9D9D9"/>
<path d="M482.736 530.979L492.422 530.979L508.824 544.337L508.824 552.779L492.422 536.382L482.736 546.533L482.736 530.979Z" fill="#D9D9D9"/>
<path d="M482.736 553.136L473.051 553.136L456.649 539.779L456.649 531.337L473.051 547.733L482.736 537.582L482.736 553.136Z" fill="#D9D9D9"/>
<path d="M482.736 515.255L492.422 515.255L508.824 528.613L508.824 537.055L492.422 520.658L482.736 530.809L482.736 515.255Z" fill="#D9D9D9"/>
<path d="M467.012 491.312L494.172 530.979H467.012V491.312Z" fill="#EFEFEF"/>
<rect width="5.36046" height="40.0248" transform="matrix(-1 0 0 1 426.273 521.331)" fill="#868686"/>
<path d="M417.875 611.386H422.342H428.238V594.411L414.658 578.151L417.875 593.161V611.386Z" fill="#868686"/>
<path d="M422.204 615.317H431.538L434.492 602.493L414.347 577.079H412.693L422.204 593.433V615.317Z" fill="#9D9D9D"/>
<path d="M431.325 621.75H440.031V602.809L414.48 577.079H412.693L431.325 603.245V621.75Z" fill="#B3B3B3"/>
<path d="M448.429 618.214V602.95L427.627 577.079H414.48L440.015 602.95V621.75L448.429 618.214Z" fill="#D9D9D9"/>
<rect width="6.78992" height="33.9496" transform="matrix(-1 0 0 1 418.411 529.55)" fill="#9D9D9D"/>
<path d="M437.708 545.989L428.023 545.989L411.621 559.346L411.621 567.788L428.023 551.392L437.708 561.543L437.708 545.989Z" fill="#D9D9D9"/>
<path d="M437.708 530.979L428.023 530.979L411.621 544.337L411.621 552.779L428.023 536.382L437.708 546.533L437.708 530.979Z" fill="#D9D9D9"/>
<path d="M437.708 553.136L447.394 553.136L463.796 539.779L463.796 531.337L447.394 547.733L437.708 537.582L437.708 553.136Z" fill="#D9D9D9"/>
<path d="M437.708 515.255L428.023 515.255L411.621 528.613L411.621 537.055L428.023 520.658L437.708 530.809L437.708 515.255Z" fill="#D9D9D9"/>
<path d="M453.432 491.312L426.273 530.979H453.432V491.312Z" fill="#EFEFEF"/>
<rect x="453.432" y="491.312" width="13.5798" height="70.0433" fill="#EFEFEF"/>
<rect x="411.621" y="561.355" width="97.203" height="6.43255" fill="white"/>
<rect x="220.317" y="521.331" width="5.36046" height="40.0248" fill="#868686"/>
<path d="M228.715 611.386H224.248H218.352V594.411L231.932 578.151L228.715 593.161V611.386Z" fill="#868686"/>
<path d="M224.386 615.317H215.052L212.098 602.493L232.243 577.079H233.897L224.386 593.433V615.317Z" fill="#9D9D9D"/>
<path d="M215.265 621.75H206.559V602.809L232.11 577.079H233.897L215.265 603.245V621.75Z" fill="#B3B3B3"/>
<rect x="186.481" y="555.887" width="44.0654" height="44.0654" transform="rotate(45 186.481 555.887)" fill="#565656"/>
<path d="M198.161 618.214V602.95L218.963 577.079H232.11L206.575 602.95V621.75L198.161 618.214Z" fill="#D9D9D9"/>
<path d="M198.161 603.167H174.575V618.176H198.161V603.167Z" fill="#B3B3B3"/>
<rect x="228.179" y="529.55" width="6.78992" height="33.9496" fill="#9D9D9D"/>
<rect x="137.766" y="561.355" width="97.203" height="15.724" fill="#D9D9D9"/>
<rect x="154.562" y="529.55" width="63.6108" height="31.8054" fill="#B3B3B3"/>
<rect x="160.638" y="529.55" width="51.4604" height="31.8054" fill="#565656"/>
<path d="M208.882 545.989L218.567 545.989L234.969 559.346L234.969 567.788L218.567 551.392L208.882 561.543L208.882 545.989Z" fill="#D9D9D9"/>
<path d="M208.882 530.979L218.567 530.979L234.969 544.337L234.969 552.779L218.567 536.382L208.882 546.533L208.882 530.979Z" fill="#D9D9D9"/>
<path d="M208.882 553.136L199.196 553.136L182.794 539.779L182.794 531.337L199.196 547.733L208.882 537.582L208.882 553.136Z" fill="#D9D9D9"/>
<path d="M208.882 515.255L218.567 515.255L234.969 528.613L234.969 537.055L218.567 520.658L208.882 530.809L208.882 515.255Z" fill="#D9D9D9"/>
<path d="M193.158 491.312L220.317 530.979H193.158V491.312Z" fill="#EFEFEF"/>
<rect width="5.36046" height="40.0248" transform="matrix(-1 0 0 1 152.418 521.331)" fill="#868686"/>
<path d="M144.02 611.386H148.487H154.384V594.411L140.804 578.151L144.02 593.161V611.386Z" fill="#868686"/>
<path d="M148.35 615.317H157.684L160.638 602.493L140.492 577.079H138.838L148.35 593.433V615.317Z" fill="#9D9D9D"/>
<path d="M157.47 621.75H166.177V602.809L140.625 577.079H138.838L157.47 603.245V621.75Z" fill="#B3B3B3"/>
<path d="M174.575 618.214V602.95L153.773 577.079H140.625L166.16 602.95V621.75L174.575 618.214Z" fill="#D9D9D9"/>
<rect width="6.78992" height="33.9496" transform="matrix(-1 0 0 1 144.556 529.55)" fill="#9D9D9D"/>
<path d="M163.854 545.989L154.168 545.989L137.766 559.346L137.766 567.788L154.168 551.392L163.854 561.543L163.854 545.989Z" fill="#D9D9D9"/>
<path d="M163.854 530.979L154.168 530.979L137.766 544.337L137.766 552.779L154.168 536.382L163.854 546.533L163.854 530.979Z" fill="#D9D9D9"/>
<path d="M163.854 553.136L173.54 553.136L189.941 539.779L189.941 531.337L173.54 547.733L163.854 537.582L163.854 553.136Z" fill="#D9D9D9"/>
<path d="M163.854 515.255L154.168 515.255L137.766 528.613L137.766 537.055L154.168 520.658L163.854 530.809L163.854 515.255Z" fill="#D9D9D9"/>
<path d="M179.578 491.312L152.418 530.979H179.578V491.312Z" fill="#EFEFEF"/>
<rect x="179.578" y="491.312" width="13.5798" height="70.0433" fill="#EFEFEF"/>
<rect x="137.766" y="561.355" width="97.203" height="6.43255" fill="white"/>
<defs>
<linearGradient id="paint0_linear_2_381" x1="600" y1="634" x2="600" y2="800" gradientUnits="userSpaceOnUse">
<stop stop-color="#565656"/>
<stop offset="1" stop-color="#868686"/>
</linearGradient>
</defs>
</svg>
