<svg width="300" height="300" viewBox="0 0 300 300" fill="none" xmlns="http://www.w3.org/2000/svg">
<path d="M108.81 300H75.7143C67.43 300 60.7143 293.284 60.7143 285V161.379H34.4214C21.3204 161.379 14.5152 145.762 23.4345 136.166L139.013 11.8203C144.947 5.43655 155.053 5.43655 160.987 11.8203L276.565 136.166C285.485 145.762 278.68 161.379 265.579 161.379H239.286V285C239.286 293.284 232.57 300 224.286 300H191.19C182.906 300 176.19 293.284 176.19 285V245.689C176.19 237.405 169.475 230.689 161.19 230.689H138.81C130.525 230.689 123.81 237.405 123.81 245.689V285C123.81 293.284 117.094 300 108.81 300Z" fill="#F5F5F5"/>
<rect x="199.167" y="31.5364" width="40" height="80.0539" rx="15" fill="#F5F5F5"/>
</svg>
