<svg width="1200" height="800" viewBox="0 0 1200 800" fill="none" xmlns="http://www.w3.org/2000/svg">
<rect width="1200" height="800" fill="#4F4F4F"/>
<path d="M185.833 440V348.992C192.916 348.309 199.786 347.968 206.442 347.968C215.402 347.968 222.57 350.059 227.946 354.24C233.407 358.421 236.138 364.736 236.138 373.184C236.138 381.547 232.426 388.459 225.002 393.92C217.663 399.296 208.874 401.984 198.634 401.984C198.207 401.984 197.738 401.984 197.226 401.984V397.76C197.567 397.76 197.866 397.76 198.122 397.76C206.57 397.76 213.908 395.541 220.138 391.104C226.367 386.667 229.482 380.907 229.482 373.824C229.482 366.656 227.306 361.493 222.954 358.336C218.602 355.093 212.756 353.472 205.418 353.472C201.578 353.472 197.098 353.643 191.978 353.984V440H185.833ZM258.673 440V356.928H264.561V434.624H302.705V440H258.673ZM324.269 411.2L312.365 440H306.349L341.165 356.416H344.621L379.693 440H373.165L361.133 411.2H324.269ZM342.573 365.888C341.293 369.728 340.141 372.928 339.117 375.488L326.317 406.208H359.085L346.413 375.616C344.45 370.837 343.17 367.595 342.573 365.888ZM459.688 435.904C453.288 439.488 444.37 441.28 432.936 441.28C421.586 441.28 411.56 437.184 402.856 428.992C394.237 420.8 389.928 410.645 389.928 398.528C389.928 386.325 393.682 376.128 401.192 367.936C408.786 359.744 418.557 355.648 430.504 355.648C440.146 355.648 449.576 357.141 458.792 360.128L457.256 364.992C448.381 362.261 439.208 360.896 429.736 360.896C420.264 360.896 412.285 364.523 405.8 371.776C399.4 378.944 396.2 387.776 396.2 398.272C396.2 408.683 399.912 417.557 407.336 424.896C414.845 432.235 423.506 435.904 433.32 435.904C443.133 435.904 451.282 434.539 457.768 431.808L459.688 435.904ZM480.673 440V356.928H519.457V362.048H486.561V392.256H516.257V397.248H486.561V434.624H520.737V440H480.673ZM607.914 440V398.016H550.186V440H544.298V356.928H550.186V392.768H607.914V356.928H613.802V440H607.914ZM681.284 441.28C669.422 441.28 659.481 437.141 651.46 428.864C643.438 420.587 639.428 410.475 639.428 398.528C639.428 386.496 643.438 376.341 651.46 368.064C659.481 359.787 669.422 355.648 681.284 355.648C693.145 355.648 703.086 359.787 711.108 368.064C719.129 376.341 723.14 386.496 723.14 398.528C723.14 410.475 719.129 420.587 711.108 428.864C703.086 437.141 693.145 441.28 681.284 441.28ZM681.284 360.896C671.044 360.896 662.51 364.523 655.684 371.776C648.942 379.029 645.572 387.947 645.572 398.528C645.572 409.024 648.942 417.899 655.684 425.152C662.51 432.32 671.044 435.904 681.284 435.904C691.609 435.904 700.142 432.32 706.884 425.152C713.625 417.899 716.996 409.024 716.996 398.528C716.996 387.947 713.625 379.029 706.884 371.776C700.142 364.523 691.609 360.896 681.284 360.896ZM748.798 440V356.928H754.686V434.624H792.83V440H748.798ZM836.922 435.648C847.844 435.648 856.591 432.704 863.162 426.816C869.818 420.928 873.146 412.053 873.146 400.192C873.146 388.331 869.391 378.901 861.882 371.904C854.458 364.907 845.284 361.408 834.362 361.408C826.596 361.408 820.623 361.579 816.442 361.92V434.752C821.562 435.349 828.388 435.648 836.922 435.648ZM834.362 356.16C847.162 356.16 857.828 360.128 866.362 368.064C874.98 375.915 879.29 386.624 879.29 400.192C879.29 413.76 875.322 423.957 867.386 430.784C859.535 437.611 849.38 441.024 836.922 441.024C828.303 441.024 819.428 440.597 810.298 439.744V356.928C817.124 356.416 825.146 356.16 834.362 356.16ZM904.923 440V356.928H943.707V362.048H910.811V392.256H940.507V397.248H910.811V434.624H944.987V440H904.923ZM968.548 440V357.312C975.886 356.715 982.116 356.416 987.236 356.416C995.086 356.416 1001.57 358.464 1006.69 362.56C1011.81 366.571 1014.37 372.331 1014.37 379.84C1014.37 384.875 1012.92 389.525 1010.02 393.792C1007.12 398.059 1003.83 401.515 1000.16 404.16C1010.32 417.643 1016.59 425.707 1018.98 428.352C1023.84 433.387 1029.13 436.245 1034.85 436.928L1034.72 440.896C1029.94 440.811 1026.06 440.128 1023.08 438.848C1020.09 437.483 1017.1 435.221 1014.12 432.064C1011.21 428.907 1004.77 420.416 994.788 406.592C987.876 406.592 981.092 406.379 974.436 405.952V440H968.548ZM991.588 401.728C994.916 401.728 998.5 399.509 1002.34 395.072C1006.18 390.635 1008.1 385.472 1008.1 379.584C1008.1 373.696 1006.09 369.216 1002.08 366.144C998.073 363.072 992.868 361.536 986.468 361.536C983.054 361.536 979.044 361.707 974.436 362.048V401.088C980.58 401.515 986.297 401.728 991.588 401.728Z" fill="white"/>
</svg>
