<svg width="294" height="294" viewBox="0 0 294 294" fill="none" xmlns="http://www.w3.org/2000/svg">
<path fill-rule="evenodd" clip-rule="evenodd" d="M30.9826 146.549L172.163 289.494C177.92 295.323 187.289 295.454 193.207 289.79L288.992 198.111C295.044 192.319 295.179 182.694 289.293 176.734L148.202 33.8789L148.193 33.8695C148 33.675 79.5262 -35.2551 20.9739 24.1067C-29.5389 75.3179 26.5486 141.503 30.5146 146.048C30.6703 146.227 30.8161 146.38 30.9826 146.549ZM82.9698 113.552C101.302 113.552 116.163 98.7188 116.163 80.4213C116.163 62.1237 101.302 47.2907 82.9698 47.2907C64.6379 47.2907 49.777 62.1237 49.777 80.4213C49.777 98.7188 64.6379 113.552 82.9698 113.552Z" fill="white"/>
</svg>
