<svg width="300" height="300" viewBox="0 0 300 300" fill="none" xmlns="http://www.w3.org/2000/svg">
<path d="M123.81 300H75.7143C67.43 300 60.7143 293.284 60.7143 285V161.379H22.9476C14.2136 161.379 9.67682 150.968 15.623 144.57L139.013 11.8203C144.947 5.43655 155.053 5.43655 160.987 11.8203L284.377 144.57C290.323 150.968 285.786 161.379 277.052 161.379H239.286V285C239.286 293.284 232.57 300 224.286 300H176.19V245.689C176.19 237.405 169.475 230.689 161.19 230.689H138.81C130.525 230.689 123.81 237.405 123.81 245.689V300Z" fill="white"/>
<rect x="190" y="30" width="50" height="80" rx="15" fill="white"/>
</svg>
