<svg width="300" height="300" viewBox="0 0 300 300" fill="none" xmlns="http://www.w3.org/2000/svg">
<rect x="7.5" y="7.5" width="285" height="285" rx="7.5" stroke="white" stroke-width="15" stroke-linecap="round" stroke-dasharray="80 80"/>
<path d="M124.078 84.2041C124.078 75.9198 117.362 69.2041 109.078 69.2041H76.6818C73.2035 69.2041 69.8674 70.5842 67.4058 73.0416L63.5453 76.8953C56.6964 83.7322 45 78.8814 45 69.2041V58C45 49.7157 51.7157 43 60 43H240C248.284 43 255 49.7157 255 58V69.2041C255 78.8814 243.304 83.7322 236.455 76.8953L232.594 73.0416C230.133 70.5842 226.796 69.2041 223.318 69.2041H191.578C183.294 69.2041 176.578 75.9198 176.578 84.2041V220.431C176.578 226.227 179.918 231.505 185.156 233.986L195.286 238.785C199.625 240.841 202.391 245.212 202.391 250.012C202.391 253.871 199.262 257 195.403 257H176.578H124.078H104.488C100.629 257 97.5 253.871 97.5 250.012C97.5 245.221 100.289 240.868 104.642 238.865L115.348 233.939C120.669 231.491 124.078 226.17 124.078 220.312V84.2041Z" fill="white"/>
</svg>
