<svg width="300" height="300" viewBox="0 0 300 300" fill="none" xmlns="http://www.w3.org/2000/svg">
<path d="M112.969 51.7347C112.969 43.4504 106.253 36.7347 97.9688 36.7347H43.6228C39.6981 36.7347 35.9298 38.2729 33.1261 41.0193L25.4967 48.493C16.0035 57.7925 0 51.0668 0 37.7776V36.7347V15C0 6.71573 6.71573 0 15 0H285C293.284 0 300 6.71573 300 15V36.7347V37.7776C300 51.0668 283.997 57.7925 274.503 48.493L266.874 41.0193C264.07 38.2729 260.302 36.7347 256.377 36.7347H202.969C194.684 36.7347 187.969 43.4504 187.969 51.7347V252.472C187.969 258.308 191.353 263.614 196.645 266.074L216.167 275.15C221.459 277.61 224.844 282.916 224.844 288.752V290.204C224.844 295.614 220.458 300 215.048 300H187.969H112.969H84.7959C79.3858 300 75 295.614 75 290.204V288.869C75 282.973 78.4539 277.624 83.8275 275.198L104.141 266.026C109.515 263.6 112.969 258.251 112.969 252.355V51.7347Z" fill="white"/>
</svg>
